AbhayaLibre-latin-0.ufo
<glyph name="exclam" format="1">
  <advance width="279"/>
  <unicode hex="0021"/>
  <outline>
    <contour>
      <point x="154" y="167" type="line"/>
      <point x="154" y="377"/>
      <point x="192" y="463"/>
      <point x="192" y="546" type="curve" smooth="yes"/>
      <point x="192" y="582"/>
      <point x="183" y="610"/>
      <point x="140" y="610" type="curve" smooth="yes"/>
      <point x="99" y="610"/>
      <point x="87" y="583"/>
      <point x="87" y="544" type="curve" smooth="yes"/>
      <point x="87" y="461"/>
      <point x="124" y="382"/>
      <point x="124" y="167" type="curve"/>
    </contour>
    <component base="period" xOffset="37"/>
  </outline>
</glyph>
<glyph name="numbersign" format="1">
  <advance width="579"/>
  <unicode hex="0023"/>
  <outline>
    <contour>
      <point x="148" y="-10" type="line"/>
      <point x="178" y="-10" type="line"/>
      <point x="258" y="600" type="line"/>
      <point x="228" y="600" type="line"/>
    </contour>
    <contour>
      <point x="322" y="-10" type="line"/>
      <point x="352" y="-10" type="line"/>
      <point x="432" y="600" type="line"/>
      <point x="402" y="600" type="line"/>
    </contour>
    <contour>
      <point x="73" y="370" type="line"/>
      <point x="519" y="370" type="line"/>
      <point x="519" y="415" type="line"/>
      <point x="73" y="415" type="line"/>
    </contour>
    <contour>
      <point x="60" y="195" type="line"/>
      <point x="506" y="195" type="line"/>
      <point x="506" y="240" type="line"/>
      <point x="60" y="240" type="line"/>
    </contour>
  </outline>
</glyph>
<glyph name="quotesingle" format="1">
  <advance width="189"/>
  <unicode hex="0027"/>
  <outline>
    <contour>
      <point x="139" y="637"/>
      <point x="124" y="655"/>
      <point x="95" y="655" type="curve" smooth="yes"/>
      <point x="67" y="655"/>
      <point x="50" y="638"/>
      <point x="50" y="613" type="curve" smooth="yes"/>
      <point x="50" y="580"/>
      <point x="77" y="522"/>
      <point x="81" y="450" type="curve"/>
      <point x="108" y="450" type="line"/>
      <point x="112" y="519"/>
      <point x="139" y="581"/>
      <point x="139" y="614" type="curve" smooth="yes"/>
    </contour>
  </outline>
</glyph>
<glyph name="parenleft" format="1">
  <advance width="336"/>
  <unicode hex="0028"/>
  <outline>
    <contour>
      <point x="312" y="650" type="line"/>
      <point x="138" y="603"/>
      <point x="50" y="424"/>
      <point x="50" y="246" type="curve" smooth="yes"/>
      <point x="50" y="71"/>
      <point x="135" y="-103"/>
      <point x="309" y="-150" type="curve"/>
      <point x="319" y="-125" type="line"/>
      <point x="196" y="-80"/>
      <point x="130" y="84"/>
      <point x="130" y="248" type="curve" smooth="yes"/>
      <point x="130" y="413"/>
      <point x="198" y="579"/>
      <point x="321" y="625" type="curve"/>
    </contour>
  </outline>
</glyph>
<glyph name="plus" format="1">
  <advance width="469"/>
  <unicode hex="002B"/>
  <outline>
    <contour>
      <point x="424" y="216" type="line"/>
      <point x="424" y="252" type="line"/>
      <point x="45" y="252" type="line"/>
      <point x="45" y="216" type="line"/>
    </contour>
    <contour>
      <point x="212" y="38" type="line"/>
      <point x="257" y="38" type="line"/>
      <point x="257" y="430" type="line"/>
      <point x="212" y="430" type="line"/>
    </contour>
  </outline>
</glyph>
<glyph name="short_dash1" format="1">
  <advance width="344"/>
  <unicode hex="002D"/>
  <outline>
    <contour>
      <point x="43" y="234" type="line"/>
      <point x="271" y="234" type="line"/>
      <point x="271" y="187" type="line"/>
      <point x="43" y="187" type="line"/>
    </contour>
  </outline>
</glyph>
<glyph name="period" format="1">
  <advance width="202"/>
  <unicode hex="002E"/>
  <outline>
    <contour>
      <point x="129" y="-5"/>
      <point x="152" y="18"/>
      <point x="152" y="46" type="curve" smooth="yes"/>
      <point x="152" y="75"/>
      <point x="129" y="98"/>
      <point x="101" y="98" type="curve" smooth="yes"/>
      <point x="73" y="98"/>
      <point x="50" y="75"/>
      <point x="50" y="46" type="curve" smooth="yes"/>
      <point x="50" y="18"/>
      <point x="73" y="-5"/>
      <point x="101" y="-5" type="curve" smooth="yes"/>
    </contour>
  </outline>
</glyph>
<glyph name="slash" format="1">
  <advance width="411"/>
  <unicode hex="002F"/>
  <outline>
    <contour>
      <point x="60" y="-155" type="line"/>
      <point x="401" y="710" type="line"/>
      <point x="341" y="710" type="line"/>
      <point x="0" y="-155" type="line"/>
    </contour>
  </outline>
</glyph>
<glyph name="seven" format="1">
  <advance width="446"/>
  <unicode hex="0037"/>
  <outline>
    <contour>
      <point x="249" y="-80"/>
      <point x="148" y="54"/>
      <point x="456" y="510" type="curve"/>
      <point x="429" y="521" type="line"/>
      <point x="202" y="186"/>
      <point x="97" y="43"/>
      <point x="97" y="-32" type="curve" smooth="yes"/>
      <point x="97" y="-61"/>
      <point x="114" y="-80"/>
      <point x="146" y="-80" type="curve" smooth="yes"/>
    </contour>
    <contour>
      <point x="47" y="354" type="line"/>
      <point x="65" y="410" type="line" smooth="yes"/>
      <point x="78" y="451"/>
      <point x="102" y="457"/>
      <point x="143" y="457" type="curve"/>
      <point x="27" y="530" type="line"/>
      <point x="25" y="354" type="line"/>
    </contour>
    <contour>
      <point x="386" y="457" type="line"/>
      <point x="456" y="510" type="line"/>
      <point x="456" y="530" type="line"/>
      <point x="27" y="530" type="line"/>
      <point x="27" y="457" type="line"/>
    </contour>
  </outline>
</glyph>
<glyph name="eight" format="1">
  <advance width="538"/>
  <unicode hex="0038"/>
  <outline>
    <contour>
      <point x="137" y="276"/>
      <point x="94" y="206"/>
      <point x="94" y="149" type="curve" smooth="yes"/>
      <point x="94" y="63"/>
      <point x="170" y="18"/>
      <point x="248" y="18" type="curve" smooth="yes"/>
      <point x="329" y="18"/>
      <point x="395" y="53"/>
      <point x="395" y="130" type="curve" smooth="yes"/>
      <point x="395" y="282"/>
      <point x="81" y="286"/>
      <point x="81" y="454" type="curve" smooth="yes"/>
      <point x="81" y="554"/>
      <point x="166" y="610"/>
      <point x="268" y="610" type="curve" smooth="yes"/>
      <point x="353" y="610"/>
      <point x="439" y="563"/>
      <point x="439" y="465" type="curve" smooth="yes"/>
      <point x="439" y="402"/>
      <point x="399" y="333"/>
      <point x="303" y="301" type="curve"/>
      <point x="279" y="320" type="line"/>
      <point x="367" y="341"/>
      <point x="405" y="406"/>
      <point x="405" y="464" type="curve" smooth="yes"/>
      <point x="405" y="541"/>
      <point x="339" y="582"/>
      <point x="276" y="582" type="curve" smooth="yes"/>
      <point x="204" y="582"/>
      <point x="159" y="548"/>
      <point x="159" y="490" type="curve" smooth="yes"/>
      <point x="159" y="329"/>
      <point x="473" y="331"/>
      <point x="473" y="154" type="curve" smooth="yes"/>
      <point x="473" y="53"/>
      <point x="368" y="-10"/>
      <point x="255" y="-10" type="curve" smooth="yes"/>
      <point x="147" y="-10"/>
      <point x="60" y="45"/>
      <point x="60" y="147" type="curve" smooth="yes"/>
      <point x="60" y="209"/>
      <point x="97" y="281"/>
      <point x="204" y="308" type="curve"/>
      <point x="250" y="292" type="line"/>
    </contour>
  </outline>
</glyph>
<glyph name="equal" format="1">
  <advance width="469"/>
  <unicode hex="003D"/>
  <outline>
    <contour>
      <point x="424" y="271" type="line"/>
      <point x="424" y="307" type="line"/>
      <point x="45" y="307" type="line"/>
      <point x="45" y="271" type="line"/>
    </contour>
    <contour>
      <point x="424" y="161" type="line"/>
      <point x="424" y="197" type="line"/>
      <point x="45" y="197" type="line"/>
      <point x="45" y="161" type="line"/>
    </contour>
  </outline>
</glyph>
<glyph name="D" format="1">
  <advance width="679"/>
  <unicode hex="0044"/>
  <outline>
    <contour>
      <point x="40" y="600" type="line"/>
      <point x="40" y="574" type="line"/>
      <point x="316" y="574" type="line" smooth="yes"/>
      <point x="436" y="574"/>
      <point x="529" y="517"/>
      <point x="529" y="304" type="curve" smooth="yes"/>
      <point x="529" y="100"/>
      <point x="439" y="26"/>
      <point x="319" y="26" type="curve" smooth="yes"/>
      <point x="40" y="26" type="line"/>
      <point x="40" y="0" type="line"/>
      <point x="316" y="0" type="line" smooth="yes"/>
      <point x="474" y="0"/>
      <point x="624" y="102"/>
      <point x="624" y="300" type="curve" smooth="yes"/>
      <point x="624" y="507"/>
      <point x="476" y="600"/>
      <point x="319" y="600" type="curve" smooth="yes"/>
    </contour>
    <component base="vertical_stem_upper" xOffset="80"/>
    <contour>
      <point x="342" y="350" type="move" name="center"/>
    </contour>
    <contour>
      <point x="332" y="630" type="move" name="top"/>
    </contour>
  </outline>
</glyph>
<glyph name="E" format="1">
  <advance width="556"/>
  <unicode hex="0045"/>
  <outline>
    <contour>
      <point x="506" y="420" type="line"/>
      <point x="501" y="600" type="line"/>
      <point x="40" y="600" type="line"/>
      <point x="40" y="574" type="line"/>
      <point x="366" y="574" type="line" smooth="yes"/>
      <point x="433" y="574"/>
      <point x="458" y="515"/>
      <point x="472" y="467" type="curve" smooth="yes"/>
      <point x="486" y="420" type="line"/>
    </contour>
    <contour>
      <point x="501" y="0" type="line"/>
      <point x="506" y="180" type="line"/>
      <point x="486" y="180" type="line"/>
      <point x="472" y="133" type="line" smooth="yes"/>
      <point x="457" y="82"/>
      <point x="433" y="26"/>
      <point x="366" y="26" type="curve" smooth="yes"/>
      <point x="40" y="26" type="line"/>
      <point x="40" y="0" type="line"/>
    </contour>
    <contour>
      <point x="412" y="295" type="line"/>
      <point x="412" y="324" type="line"/>
      <point x="162" y="324" type="line"/>
      <point x="162" y="295" type="line"/>
    </contour>
    <component base="vertical_stem_upper" xOffset="80"/>
    <contour>
      <point x="492" y="9" type="move" name="ogonek"/>
    </contour>
    <contour>
      <point x="272" y="0" type="move" name="bottom"/>
    </contour>
    <contour>
      <point x="292" y="630" type="move" name="top"/>
    </contour>
  </outline>
</glyph>
<glyph name="H" format="1">
  <advance width="718"/>
  <unicode hex="0048"/>
  <outline>
    <contour>
      <point x="554" y="295" type="line"/>
      <point x="554" y="324" type="line"/>
      <point x="164" y="324" type="line"/>
      <point x="164" y="295" type="line"/>
    </contour>
    <contour>
      <point x="285" y="0" type="line"/>
      <point x="285" y="20"/>
      <point x="279" y="26"/>
      <point x="259" y="26" type="curve" smooth="yes"/>
      <point x="40" y="26" type="line"/>
      <point x="40" y="0" type="line"/>
    </contour>
    <contour>
      <point x="678" y="0" type="line"/>
      <point x="678" y="20"/>
      <point x="672" y="26"/>
      <point x="652" y="26" type="curve" smooth="yes"/>
      <point x="433" y="26" type="line"/>
      <point x="433" y="0" type="line"/>
    </contour>
    <contour>
      <point x="285" y="574" type="line"/>
      <point x="285" y="600" type="line"/>
      <point x="40" y="600" type="line"/>
      <point x="40" y="574" type="line"/>
    </contour>
    <contour>
      <point x="678" y="574" type="line"/>
      <point x="678" y="600" type="line"/>
      <point x="433" y="600" type="line"/>
      <point x="433" y="574" type="line"/>
    </contour>
    <component base="vertical_stem_upper" xOffset="80"/>
    <component base="vertical_stem_upper" xOffset="473"/>
  </outline>
</glyph>
<glyph name="M" format="1">
  <advance width="811"/>
  <unicode hex="004D"/>
  <outline>
    <contour>
      <point x="781" y="600" type="line"/>
      <point x="621" y="600" type="line"/>
      <point x="394" y="86" type="line"/>
      <point x="416" y="86" type="line"/>
      <point x="173" y="600" type="line"/>
      <point x="30" y="600" type="line"/>
      <point x="30" y="574" type="line"/>
      <point x="110" y="574" type="line"/>
      <point x="110" y="26" type="line"/>
      <point x="30" y="26" type="line"/>
      <point x="30" y="0" type="line"/>
      <point x="230" y="0" type="line"/>
      <point x="230" y="20"/>
      <point x="224" y="26"/>
      <point x="204" y="26" type="curve" smooth="yes"/>
      <point x="150" y="26" type="line"/>
      <point x="150" y="500" type="line"/>
      <point x="138" y="482" type="line"/>
      <point x="369" y="-5" type="line"/>
      <point x="390" y="-5" type="line"/>
      <point x="630" y="530" type="line"/>
      <point x="621" y="550" type="line"/>
      <point x="621" y="26" type="line"/>
      <point x="541" y="26" type="line"/>
      <point x="541" y="0" type="line"/>
      <point x="781" y="0" type="line"/>
      <point x="781" y="20"/>
      <point x="775" y="26"/>
      <point x="755" y="26" type="curve" smooth="yes"/>
      <point x="701" y="26" type="line"/>
      <point x="701" y="574" type="line"/>
      <point x="781" y="574" type="line"/>
    </contour>
  </outline>
</glyph>
<glyph name="T" format="1">
  <advance width="574"/>
  <unicode hex="0054"/>
  <outline>
    <contour>
      <point x="422" y="0" type="line"/>
      <point x="422" y="20"/>
      <point x="416" y="26"/>
      <point x="396" y="26" type="curve" smooth="yes"/>
      <point x="147" y="26" type="line"/>
      <point x="147" y="0" type="line"/>
    </contour>
    <contour>
      <point x="40" y="600" type="line"/>
      <point x="35" y="403" type="line"/>
      <point x="63" y="403" type="line"/>
      <point x="79" y="470" type="line" smooth="yes"/>
      <point x="91" y="520"/>
      <point x="121" y="574"/>
      <point x="188" y="574" type="curve" smooth="yes"/>
      <point x="386" y="574" type="line" smooth="yes"/>
      <point x="453" y="574"/>
      <point x="483" y="520"/>
      <point x="495" y="470" type="curve" smooth="yes"/>
      <point x="511" y="403" type="line"/>
      <point x="539" y="403" type="line"/>
      <point x="534" y="600" type="line"/>
    </contour>
    <component base="vertical_stem_upper" xOffset="202"/>
    <contour>
      <point x="287" y="350" type="move" name="center"/>
    </contour>
    <contour>
      <point x="285" y="0" type="move" name="bottom"/>
    </contour>
    <contour>
      <point x="286" y="630" type="move" name="top"/>
    </contour>
  </outline>
</glyph>
<glyph name="W" format="1">
  <advance width="830"/>
  <unicode hex="0057"/>
  <outline>
    <contour>
      <point x="582" y="0" type="line"/>
      <point x="780" y="574" type="line"/>
      <point x="748" y="574" type="line"/>
      <point x="581" y="71" type="line"/>
      <point x="602" y="71" type="line"/>
      <point x="430" y="574" type="line"/>
      <point x="511" y="574" type="line"/>
      <point x="511" y="600" type="line"/>
      <point x="340" y="600" type="line"/>
      <point x="531" y="60" type="line" smooth="yes"/>
      <point x="550" y="7"/>
      <point x="554" y="0"/>
      <point x="574" y="0" type="curve" smooth="yes"/>
    </contour>
    <contour>
      <point x="294" y="-5" type="line"/>
      <point x="463" y="472" type="line"/>
      <point x="430" y="472" type="line"/>
      <point x="292" y="71" type="line"/>
      <point x="315" y="71" type="line"/>
      <point x="125" y="600" type="line"/>
      <point x="45" y="600" type="line"/>
      <point x="238" y="60" type="line" smooth="yes"/>
      <point x="257" y="7"/>
      <point x="266" y="-5"/>
      <point x="286" y="-5" type="curve" smooth="yes"/>
    </contour>
    <contour>
      <point x="215" y="574" type="line"/>
      <point x="215" y="600" type="line"/>
      <point x="-5" y="600" type="line"/>
      <point x="-5" y="574" type="line"/>
    </contour>
    <contour>
      <point x="830" y="574" type="line"/>
      <point x="830" y="600" type="line"/>
      <point x="668" y="600" type="line"/>
      <point x="668" y="574" type="line"/>
    </contour>
  </outline>
</glyph>
<glyph name="X" format="1">
  <advance width="605"/>
  <unicode hex="0058"/>
  <outline>
    <contour>
      <point x="565" y="0" type="line"/>
      <point x="159" y="600" type="line"/>
      <point x="60" y="600" type="line"/>
      <point x="462" y="0" type="line"/>
    </contour>
    <contour>
      <point x="195" y="0" type="line"/>
      <point x="195" y="26" type="line"/>
      <point x="115" y="26" type="line"/>
      <point x="303" y="285" type="line"/>
      <point x="285" y="310" type="line"/>
      <point x="98" y="54" type="line" smooth="yes"/>
      <point x="82" y="32"/>
      <point x="61" y="26"/>
      <point x="36" y="26" type="curve" smooth="yes"/>
      <point x="16" y="26"/>
      <point x="10" y="20"/>
      <point x="10" y="0" type="curve"/>
    </contour>
    <contour>
      <point x="605" y="0" type="line"/>
      <point x="605" y="20"/>
      <point x="599" y="26"/>
      <point x="579" y="26" type="curve" smooth="yes"/>
      <point x="372" y="26" type="line"/>
      <point x="372" y="0" type="line"/>
    </contour>
    <contour>
      <point x="249" y="574" type="line"/>
      <point x="249" y="600" type="line"/>
      <point x="15" y="600" type="line"/>
      <point x="15" y="574" type="line"/>
    </contour>
    <contour>
      <point x="496" y="546" type="line" smooth="yes"/>
      <point x="514" y="570"/>
      <point x="525" y="574"/>
      <point x="550" y="574" type="curve" smooth="yes"/>
      <point x="570" y="574"/>
      <point x="576" y="580"/>
      <point x="576" y="600" type="curve"/>
      <point x="402" y="600" type="line"/>
      <point x="402" y="574" type="line"/>
      <point x="482" y="574" type="line"/>
      <point x="312" y="338" type="line"/>
      <point x="329" y="315" type="line"/>
    </contour>
  </outline>
</glyph>
<glyph name="underscore" format="1">
  <advance width="480"/>
  <unicode hex="005F"/>
  <outline>
    <contour>
      <point x="10" y="-65" type="line"/>
      <point x="470" y="-65" type="line"/>
      <point x="470" y="-25" type="line"/>
      <point x="10" y="-25" type="line"/>
    </contour>
  </outline>
</glyph>
<glyph name="e" format="1">
  <advance width="464"/>
  <unicode hex="0065"/>
  <outline>
    <contour>
      <point x="125" y="353"/>
      <point x="183" y="410"/>
      <point x="249" y="410" type="curve" smooth="yes"/>
      <point x="317" y="410"/>
      <point x="350" y="362"/>
      <point x="350" y="310" type="curve" smooth="yes"/>
      <point x="350" y="254"/>
      <point x="312" y="243"/>
      <point x="231" y="245" type="curve" smooth="yes"/>
      <point x="85" y="249" type="line"/>
      <point x="85" y="221" type="line"/>
      <point x="245" y="218" type="line" smooth="yes"/>
      <point x="356" y="216"/>
      <point x="429" y="223"/>
      <point x="429" y="298" type="curve" smooth="yes"/>
      <point x="429" y="376"/>
      <point x="349" y="435"/>
      <point x="247" y="435" type="curve" smooth="yes"/>
      <point x="104" y="435"/>
      <point x="40" y="324"/>
      <point x="40" y="209" type="curve" smooth="yes"/>
      <point x="40" y="68"/>
      <point x="137" y="-10"/>
      <point x="250" y="-10" type="curve" smooth="yes"/>
      <point x="331" y="-10"/>
      <point x="395" y="28"/>
      <point x="423" y="96" type="curve"/>
      <point x="398" y="105" type="line"/>
      <point x="372" y="49"/>
      <point x="323" y="18"/>
      <point x="266" y="18" type="curve" smooth="yes"/>
      <point x="182" y="18"/>
      <point x="125" y="84"/>
      <point x="125" y="233" type="curve" smooth="yes"/>
    </contour>
    <contour>
      <point x="378" y="9" type="move" name="ogonek"/>
    </contour>
    <contour>
      <point x="232" y="0" type="move" name="bottom"/>
    </contour>
    <contour>
      <point x="232" y="500" type="move" name="top"/>
    </contour>
  </outline>
</glyph>
<glyph name="h" format="1">
  <advance width="571"/>
  <unicode hex="0068"/>
  <outline>
    <contour>
      <point x="470" y="273" type="line" smooth="yes"/>
      <point x="470" y="383"/>
      <point x="408" y="435"/>
      <point x="338" y="435" type="curve" smooth="yes"/>
      <point x="275" y="435"/>
      <point x="204" y="398"/>
      <point x="180" y="323" type="curve"/>
      <point x="182" y="241" type="line"/>
      <point x="182" y="342"/>
      <point x="248" y="390"/>
      <point x="299" y="390" type="curve" smooth="yes"/>
      <point x="352" y="390"/>
      <point x="395" y="351"/>
      <point x="395" y="273" type="curve" smooth="yes"/>
      <point x="395" y="85" type="line" smooth="yes"/>
      <point x="395" y="30"/>
      <point x="380" y="25"/>
      <point x="325" y="25" type="curve"/>
      <point x="325" y="0" type="line"/>
      <point x="545" y="0" type="line"/>
      <point x="545" y="20"/>
      <point x="540" y="25"/>
      <point x="520" y="25" type="curve" smooth="yes"/>
      <point x="470" y="25" type="line"/>
    </contour>
    <contour>
      <point x="257" y="20"/>
      <point x="252" y="25"/>
      <point x="232" y="25" type="curve" smooth="yes"/>
      <point x="182" y="25" type="line"/>
      <point x="182" y="297" type="line"/>
      <point x="182" y="650" type="line"/>
      <point x="32" y="650" type="line"/>
      <point x="32" y="625" type="line"/>
      <point x="107" y="625" type="line"/>
      <point x="107" y="85" type="line" smooth="yes"/>
      <point x="107" y="30"/>
      <point x="87" y="25"/>
      <point x="32" y="25" type="curve"/>
      <point x="32" y="0" type="line"/>
      <point x="257" y="0" type="line"/>
    </contour>
  </outline>
</glyph>
<glyph name="j" format="1">
  <advance width="266"/>
  <unicode hex="006A"/>
  <outline>
    <contour>
      <point x="174" y="516"/>
      <point x="198" y="540"/>
      <point x="198" y="571" type="curve" smooth="yes"/>
      <point x="198" y="601"/>
      <point x="174" y="626"/>
      <point x="144" y="626" type="curve" smooth="yes"/>
      <point x="113" y="626"/>
      <point x="89" y="601"/>
      <point x="89" y="571" type="curve" smooth="yes"/>
      <point x="89" y="540"/>
      <point x="113" y="516"/>
      <point x="144" y="516" type="curve" smooth="yes"/>
    </contour>
    <contour>
      <point x="33" y="425" type="line"/>
      <point x="33" y="400" type="line"/>
      <point x="113" y="400" type="line"/>
      <point x="113" y="-3" type="line" smooth="yes"/>
      <point x="113" y="-24"/>
      <point x="113" y="-46"/>
      <point x="113" y="-67" type="curve" smooth="yes"/>
      <point x="112" y="-121"/>
      <point x="103" y="-165"/>
      <point x="72" y="-165" type="curve" smooth="yes"/>
      <point x="30" y="-165"/>
      <point x="57" y="-93"/>
      <point x="8" y="-93" type="curve" smooth="yes"/>
      <point x="-15" y="-93"/>
      <point x="-30" y="-108"/>
      <point x="-30" y="-129" type="curve" smooth="yes"/>
      <point x="-30" y="-164"/>
      <point x="10" y="-190"/>
      <point x="54" y="-190" type="curve" smooth="yes"/>
      <point x="116" y="-190"/>
      <point x="188" y="-143"/>
      <point x="188" y="-13" type="curve" smooth="yes"/>
      <point x="188" y="425" type="line"/>
    </contour>
  </outline>
</glyph>
<glyph name="n" format="1">
  <advance width="568"/>
  <unicode hex="006E"/>
  <outline>
    <contour>
      <point x="468" y="273" type="line" smooth="yes"/>
      <point x="468" y="378"/>
      <point x="403" y="435"/>
      <point x="330" y="435" type="curve" smooth="yes"/>
      <point x="272" y="435"/>
      <point x="207" y="400"/>
      <point x="178" y="323" type="curve"/>
      <point x="180" y="241" type="line"/>
      <point x="183" y="341"/>
      <point x="247" y="392"/>
      <point x="301" y="392" type="curve" smooth="yes"/>
      <point x="352" y="392"/>
      <point x="393" y="356"/>
      <point x="393" y="283" type="curve" smooth="yes"/>
      <point x="393" y="85" type="line" smooth="yes"/>
      <point x="393" y="30"/>
      <point x="373" y="25"/>
      <point x="318" y="25" type="curve"/>
      <point x="318" y="0" type="line"/>
      <point x="543" y="0" type="line"/>
      <point x="543" y="20"/>
      <point x="538" y="25"/>
      <point x="518" y="25" type="curve" smooth="yes"/>
      <point x="468" y="25" type="line"/>
    </contour>
    <contour>
      <point x="250" y="20"/>
      <point x="245" y="25"/>
      <point x="225" y="25" type="curve" smooth="yes"/>
      <point x="180" y="25" type="line"/>
      <point x="180" y="297" type="line"/>
      <point x="175" y="425" type="line"/>
      <point x="30" y="425" type="line"/>
      <point x="30" y="400" type="line"/>
      <point x="105" y="400" type="line"/>
      <point x="105" y="85" type="line" smooth="yes"/>
      <point x="105" y="30"/>
      <point x="85" y="25"/>
      <point x="30" y="25" type="curve"/>
      <point x="30" y="0" type="line"/>
      <point x="250" y="0" type="line"/>
    </contour>
    <contour>
      <point x="284" y="500" type="move" name="top"/>
    </contour>
    <contour>
      <point x="284" y="0" type="move" name="bottom"/>
    </contour>
  </outline>
</glyph>
<glyph name="r" format="1">
  <advance width="393"/>
  <unicode hex="0072"/>
  <outline>
    <contour>
      <point x="373" y="333"/>
      <point x="388" y="352"/>
      <point x="388" y="374" type="curve" smooth="yes"/>
      <point x="388" y="412"/>
      <point x="359" y="431"/>
      <point x="323" y="431" type="curve" smooth="yes"/>
      <point x="270" y="431"/>
      <point x="200" y="391"/>
      <point x="175" y="310" type="curve"/>
      <point x="182" y="224" type="line"/>
      <point x="182" y="331"/>
      <point x="250" y="392"/>
      <point x="275" y="392" type="curve" smooth="yes"/>
      <point x="310" y="392"/>
      <point x="305" y="333"/>
      <point x="348" y="333" type="curve" smooth="yes"/>
    </contour>
    <contour>
      <point x="279" y="20"/>
      <point x="274" y="25"/>
      <point x="254" y="25" type="curve" smooth="yes"/>
      <point x="182" y="25" type="line"/>
      <point x="182" y="297" type="line"/>
      <point x="177" y="425" type="line"/>
      <point x="32" y="425" type="line"/>
      <point x="32" y="400" type="line"/>
      <point x="107" y="400" type="line"/>
      <point x="107" y="85" type="line" smooth="yes"/>
      <point x="107" y="30"/>
      <point x="87" y="25"/>
      <point x="32" y="25" type="curve"/>
      <point x="32" y="0" type="line"/>
      <point x="279" y="0" type="line"/>
    </contour>
    <contour>
      <point x="199" y="500" type="move" name="top"/>
    </contour>
    <contour>
      <point x="145" y="0" type="move" name="bottom"/>
    </contour>
  </outline>
</glyph>
<glyph name="z" format="1">
  <advance width="422"/>
  <unicode hex="007A"/>
  <outline>
    <contour>
      <point x="115" y="26" type="line"/>
      <point x="386" y="409" type="line"/>
      <point x="386" y="430" type="line"/>
      <point x="48" y="430" type="line"/>
      <point x="68" y="404" type="line"/>
      <point x="303" y="404" type="line"/>
      <point x="22" y="22" type="line"/>
    </contour>
    <contour>
      <point x="115" y="26" type="line"/>
      <point x="22" y="22" type="line"/>
      <point x="22" y="0" type="line"/>
      <point x="387" y="0" type="line"/>
      <point x="357" y="26" type="line"/>
    </contour>
    <contour>
      <point x="39" y="300" type="line"/>
      <point x="54" y="300" type="line"/>
      <point x="78" y="355" type="line" smooth="yes"/>
      <point x="93" y="390"/>
      <point x="112" y="404"/>
      <point x="142" y="404" type="curve"/>
      <point x="48" y="430" type="line"/>
    </contour>
    <contour>
      <point x="390" y="151" type="line"/>
      <point x="376" y="151" type="line"/>
      <point x="364" y="96" type="line" smooth="yes"/>
      <point x="357" y="62"/>
      <point x="335" y="26"/>
      <point x="295" y="26" type="curve"/>
      <point x="387" y="0" type="line"/>
    </contour>
    <contour>
      <point x="211" y="500" type="move" name="top"/>
    </contour>
  </outline>
</glyph>
<glyph name="yen" format="1">
  <advance width="567"/>
  <unicode hex="00A5"/>
  <outline>
    <contour>
      <point x="336" y="309" type="line"/>
      <point x="153" y="600" type="line"/>
      <point x="58" y="600" type="line"/>
      <point x="251" y="299" type="line"/>
    </contour>
    <contour>
      <point x="411" y="0" type="line"/>
      <point x="411" y="22"/>
      <point x="406" y="26"/>
      <point x="386" y="26" type="curve" smooth="yes"/>
      <point x="171" y="26" type="line"/>
      <point x="171" y="0" type="line"/>
    </contour>
    <contour>
      <point x="333" y="0" type="line"/>
      <point x="336" y="309" type="line"/>
      <point x="251" y="299" type="line"/>
      <point x="248" y="0" type="line"/>
    </contour>
    <contour>
      <point x="234" y="574" type="line"/>
      <point x="234" y="600" type="line"/>
      <point x="20" y="600" type="line"/>
      <point x="20" y="574" type="line"/>
    </contour>
    <contour>
      <point x="336" y="309" type="line"/>
      <point x="477" y="546" type="line" smooth="yes"/>
      <point x="490" y="568"/>
      <point x="496" y="574"/>
      <point x="536" y="574" type="curve" smooth="yes"/>
      <point x="550" y="574"/>
      <point x="557" y="579"/>
      <point x="557" y="600" type="curve"/>
      <point x="378" y="600" type="line"/>
      <point x="378" y="574" type="line"/>
      <point x="459" y="574" type="line"/>
      <point x="300" y="309" type="line"/>
    </contour>
    <contour>
      <point x="115" y="299" type="line"/>
      <point x="471" y="299" type="line"/>
      <point x="471" y="328" type="line"/>
      <point x="115" y="328" type="line"/>
    </contour>
    <contour>
      <point x="115" y="220" type="line"/>
      <point x="471" y="220" type="line"/>
      <point x="471" y="249" type="line"/>
      <point x="115" y="249" type="line"/>
    </contour>
  </outline>
</glyph>
<glyph name="brokenbar" format="1">
  <advance width="277"/>
  <unicode hex="00A6"/>
  <outline>
    <contour>
      <point x="167" y="315" type="line"/>
      <point x="167" y="650" type="line"/>
      <point x="110" y="650" type="line"/>
      <point x="110" y="315" type="line"/>
    </contour>
    <contour>
      <point x="167" y="-136" type="line"/>
      <point x="167" y="199" type="line"/>
      <point x="110" y="199" type="line"/>
      <point x="110" y="-136" type="line"/>
    </contour>
  </outline>
</glyph>
<glyph name="copyright" format="1">
  <advance width="661"/>
  <unicode hex="00A9"/>
  <outline>
    <contour>
      <point x="499" y="-10"/>
      <point x="616" y="117"/>
      <point x="616" y="275" type="curve" smooth="yes"/>
      <point x="616" y="432"/>
      <point x="499" y="559"/>
      <point x="331" y="559" type="curve" smooth="yes"/>
      <point x="162" y="559"/>
      <point x="45" y="433"/>
      <point x="45" y="275" type="curve" smooth="yes"/>
      <point x="45" y="117"/>
      <point x="163" y="-10"/>
      <point x="331" y="-10" type="curve" smooth="yes"/>
    </contour>
    <contour>
      <point x="178" y="17"/>
      <point x="76" y="132"/>
      <point x="76" y="275" type="curve" smooth="yes"/>
      <point x="76" y="418"/>
      <point x="175" y="532"/>
      <point x="331" y="532" type="curve" smooth="yes"/>
      <point x="483" y="532"/>
      <point x="586" y="418"/>
      <point x="586" y="275" type="curve" smooth="yes"/>
      <point x="586" y="132"/>
      <point x="483" y="17"/>
      <point x="331" y="17" type="curve" smooth="yes"/>
    </contour>
    <contour>
      <point x="406" y="455"/>
      <point x="336" y="455" type="curve" smooth="yes"/>
      <point x="223" y="455"/>
      <point x="165" y="364"/>
      <point x="165" y="274" type="curve" smooth="yes"/>
      <point x="165" y="186"/>
      <point x="222" y="99"/>
      <point x="337" y="99" type="curve" smooth="yes"/>
      <point x="400" y="99"/>
      <point x="452" y="128"/>
      <point x="476" y="181" type="curve"/>
      <point x="455" y="190" type="line"/>
      <point x="432" y="142"/>
      <point x="390" y="125"/>
      <point x="352" y="125" type="curve" smooth="yes"/>
      <point x="283" y="125"/>
      <point x="250" y="200"/>
      <point x="250" y="283" type="curve" smooth="yes"/>
      <point x="250" y="362"/>
      <point x="281" y="430"/>
      <point x="336" y="430" type="curve" smooth="yes"/>
      <point x="420" y="430"/>
      <point x="355" y="330"/>
      <point x="433" y="329" type="curve" smooth="yes"/>
      <point x="459" y="329"/>
      <point x="471" y="344"/>
      <point x="471" y="362" type="curve" smooth="yes"/>
      <point x="471" y="418"/>
    </contour>
  </outline>
</glyph>
<glyph name="guillemotleft" format="1">
  <advance width="414"/>
  <unicode hex="00AB"/>
  <outline>
    <contour>
      <point x="137" y="250"/>
      <point x="182" y="328"/>
      <point x="219" y="378" type="curve"/>
      <point x="201" y="395" type="line"/>
      <point x="150" y="340"/>
      <point x="65" y="264"/>
      <point x="38" y="235" type="curve" smooth="yes"/>
      <point x="30" y="226"/>
      <point x="25" y="216"/>
      <point x="25" y="205" type="curve" smooth="yes"/>
      <point x="25" y="194"/>
      <point x="29" y="183"/>
      <point x="38" y="173" type="curve" smooth="yes"/>
      <point x="61" y="146"/>
      <point x="146" y="72"/>
      <point x="201" y="16" type="curve"/>
      <point x="219" y="32" type="line"/>
      <point x="183" y="80"/>
      <point x="138" y="160"/>
      <point x="108" y="205" type="curve"/>
    </contour>
    <contour>
      <point x="307" y="250"/>
      <point x="352" y="328"/>
      <point x="389" y="378" type="curve"/>
      <point x="371" y="395" type="line"/>
      <point x="320" y="340"/>
      <point x="235" y="264"/>
      <point x="208" y="235" type="curve" smooth="yes"/>
      <point x="200" y="226"/>
      <point x="195" y="216"/>
      <point x="195" y="205" type="curve" smooth="yes"/>
      <point x="195" y="194"/>
      <point x="199" y="183"/>
      <point x="208" y="173" type="curve" smooth="yes"/>
      <point x="231" y="146"/>
      <point x="316" y="72"/>
      <point x="371" y="16" type="curve"/>
      <point x="389" y="32" type="line"/>
      <point x="353" y="80"/>
      <point x="308" y="160"/>
      <point x="278" y="205" type="curve"/>
    </contour>
  </outline>
</glyph>
<glyph name="macron" format="1">
  <advance width="500"/>
  <unicode hex="00AF"/>
  <outline>
    <contour>
      <point x="100" y="540" type="line"/>
      <point x="400" y="540" type="line"/>
      <point x="400" y="590" type="line"/>
      <point x="100" y="590" type="line"/>
    </contour>
    <contour>
      <point x="248" y="500" type="move" name="_top"/>
    </contour>
  </outline>
</glyph>
<glyph name="degree" format="1">
  <advance width="298"/>
  <unicode hex="00B0"/>
  <outline>
    <contour>
      <point x="110" y="472"/>
      <point x="79" y="502"/>
      <point x="79" y="542" type="curve" smooth="yes"/>
      <point x="79" y="583"/>
      <point x="110" y="617"/>
      <point x="149" y="617" type="curve" smooth="yes"/>
      <point x="187" y="617"/>
      <point x="219" y="583"/>
      <point x="219" y="542" type="curve" smooth="yes"/>
      <point x="219" y="503"/>
      <point x="188" y="472"/>
      <point x="149" y="472" type="curve" smooth="yes"/>
    </contour>
    <contour>
      <point x="204" y="446"/>
      <point x="248" y="489"/>
      <point x="248" y="542" type="curve" smooth="yes"/>
      <point x="248" y="597"/>
      <point x="203" y="643"/>
      <point x="149" y="643" type="curve" smooth="yes"/>
      <point x="94" y="643"/>
      <point x="50" y="597"/>
      <point x="50" y="542" type="curve" smooth="yes"/>
      <point x="50" y="488"/>
      <point x="94" y="446"/>
      <point x="149" y="446" type="curve" smooth="yes"/>
    </contour>
  </outline>
</glyph>
<glyph name="periodcentered" format="1">
  <advance width="308"/>
  <unicode hex="00B7"/>
  <outline>
    <contour>
      <point x="184" y="178"/>
      <point x="208" y="202"/>
      <point x="208" y="232" type="curve" smooth="yes"/>
      <point x="208" y="262"/>
      <point x="184" y="286"/>
      <point x="154" y="286" type="curve" smooth="yes"/>
      <point x="124" y="286"/>
      <point x="100" y="262"/>
      <point x="100" y="232" type="curve" smooth="yes"/>
      <point x="100" y="202"/>
      <point x="124" y="178"/>
      <point x="154" y="178" type="curve" smooth="yes"/>
    </contour>
  </outline>
</glyph>
<glyph name="ordmasculine" format="1">
  <advance width="298"/>
  <unicode hex="00BA"/>
  <outline>
    <contour>
      <point x="96" y="353"/>
      <point x="82" y="399"/>
      <point x="82" y="465" type="curve" smooth="yes"/>
      <point x="82" y="532"/>
      <point x="96" y="577"/>
      <point x="146" y="577" type="curve" smooth="yes"/>
      <point x="199" y="577"/>
      <point x="211" y="532"/>
      <point x="211" y="467" type="curve" smooth="yes"/>
      <point x="211" y="401"/>
      <point x="199" y="353"/>
      <point x="148" y="353" type="curve" smooth="yes"/>
    </contour>
    <contour>
      <point x="278" y="555"/>
      <point x="213" y="600"/>
      <point x="148" y="600" type="curve" smooth="yes"/>
      <point x="82" y="600"/>
      <point x="15" y="554"/>
      <point x="15" y="467" type="curve" smooth="yes"/>
      <point x="15" y="377"/>
      <point x="81" y="330"/>
      <point x="146" y="330" type="curve" smooth="yes"/>
      <point x="212" y="330"/>
      <point x="278" y="378"/>
      <point x="278" y="465" type="curve" smooth="yes"/>
    </contour>
    <contour>
      <point x="21" y="244" type="line"/>
      <point x="273" y="244" type="line"/>
      <point x="273" y="279" type="line"/>
      <point x="21" y="279" type="line"/>
    </contour>
  </outline>
</glyph>
<glyph name="AE" format="1">
  <advance width="870"/>
  <unicode hex="00C6"/>
  <outline>
    <contour>
      <point x="186" y="0" type="line"/>
      <point x="186" y="22"/>
      <point x="181" y="26"/>
      <point x="162" y="26" type="curve" smooth="yes"/>
      <point x="105" y="26" type="line"/>
      <point x="235" y="240" type="line"/>
      <point x="473" y="240" type="line"/>
      <point x="458" y="269" type="line"/>
      <point x="253" y="269" type="line"/>
      <point x="438" y="574" type="line"/>
      <point x="680" y="574" type="line" smooth="yes"/>
      <point x="747" y="574"/>
      <point x="772" y="515"/>
      <point x="786" y="467" type="curve" smooth="yes"/>
      <point x="800" y="420" type="line"/>
      <point x="820" y="420" type="line"/>
      <point x="815" y="600" type="line"/>
      <point x="412" y="600" type="line"/>
      <point x="60" y="26" type="line"/>
      <point x="0" y="26" type="line"/>
      <point x="0" y="0" type="line"/>
    </contour>
    <contour>
      <point x="815" y="0" type="line"/>
      <point x="820" y="180" type="line"/>
      <point x="800" y="180" type="line"/>
      <point x="786" y="133" type="line" smooth="yes"/>
      <point x="771" y="82"/>
      <point x="747" y="26"/>
      <point x="680" y="26" type="curve" smooth="yes"/>
      <point x="354" y="26" type="line"/>
      <point x="354" y="0" type="line"/>
    </contour>
    <contour>
      <point x="726" y="295" type="line"/>
      <point x="726" y="324" type="line"/>
      <point x="479" y="324" type="line"/>
      <point x="479" y="295" type="line"/>
    </contour>
    <component base="vertical_stem_upper" xOffset="397"/>
    <contour>
      <point x="573" y="630" type="move" name="top"/>
    </contour>
  </outline>
</glyph>
<glyph name="oslash" format="1">
  <advance width="513"/>
  <unicode hex="00F8"/>
  <outline>
    <contour>
      <point x="29" y="-9" type="line"/>
      <point x="490" y="441" type="line"/>
      <point x="469" y="460" type="line"/>
      <point x="8" y="11" type="line"/>
    </contour>
    <component base="o"/>
  </outline>
</glyph>
<glyph name="imacron" format="1">
  <advance width="287"/>
  <unicode hex="012B"/>
  <outline>
    <contour>
      <point x="26" y="540" type="line"/>
      <point x="266" y="540" type="line"/>
      <point x="266" y="590" type="line"/>
      <point x="26" y="590" type="line"/>
    </contour>
    <component base="dotlessi"/>
  </outline>
</glyph>
<glyph name="Lslash" format="1">
  <advance width="499"/>
  <unicode hex="0141"/>
  <outline>
    <contour>
      <point x="29" y="157" type="line"/>
      <point x="410" y="373" type="line"/>
      <point x="395" y="398" type="line"/>
      <point x="14" y="183" type="line"/>
    </contour>
    <component base="L"/>
  </outline>
</glyph>
<glyph name="oe" format="1">
  <advance width="807"/>
  <unicode hex="0153"/>
  <outline>
    <contour>
      <point x="468" y="355"/>
      <point x="524" y="410"/>
      <point x="592" y="410" type="curve" smooth="yes"/>
      <point x="660" y="410"/>
      <point x="693" y="362"/>
      <point x="693" y="310" type="curve" smooth="yes"/>
      <point x="693" y="254"/>
      <point x="655" y="243"/>
      <point x="574" y="245" type="curve" smooth="yes"/>
      <point x="428" y="249" type="line"/>
      <point x="428" y="221" type="line"/>
      <point x="588" y="218" type="line" smooth="yes"/>
      <point x="699" y="216"/>
      <point x="772" y="223"/>
      <point x="772" y="298" type="curve" smooth="yes"/>
      <point x="772" y="376"/>
      <point x="692" y="435"/>
      <point x="590" y="435" type="curve" smooth="yes"/>
      <point x="452" y="435"/>
      <point x="393" y="324"/>
      <point x="393" y="209" type="curve" smooth="yes"/>
      <point x="393" y="68"/>
      <point x="485" y="-10"/>
      <point x="593" y="-10" type="curve" smooth="yes"/>
      <point x="676" y="-10"/>
      <point x="740" y="29"/>
      <point x="767" y="100" type="curve"/>
      <point x="741" y="105" type="line"/>
      <point x="715" y="49"/>
      <point x="666" y="18"/>
      <point x="609" y="18" type="curve" smooth="yes"/>
      <point x="525" y="18"/>
      <point x="468" y="84"/>
      <point x="468" y="233" type="curve" smooth="yes"/>
    </contour>
    <contour>
      <point x="166" y="15"/>
      <point x="125" y="97"/>
      <point x="125" y="213" type="curve" smooth="yes"/>
      <point x="125" y="330"/>
      <point x="166" y="410"/>
      <point x="256" y="410" type="curve" smooth="yes"/>
      <point x="350" y="410"/>
      <point x="388" y="330"/>
      <point x="388" y="217" type="curve" smooth="yes"/>
      <point x="388" y="99"/>
      <point x="350" y="15"/>
      <point x="259" y="15" type="curve" smooth="yes"/>
    </contour>
    <contour>
      <point x="463" y="361"/>
      <point x="361" y="435"/>
      <point x="259" y="435" type="curve" smooth="yes"/>
      <point x="151" y="435"/>
      <point x="40" y="359"/>
      <point x="40" y="217" type="curve" smooth="yes"/>
      <point x="40" y="68"/>
      <point x="148" y="-10"/>
      <point x="256" y="-10" type="curve" smooth="yes"/>
      <point x="359" y="-10"/>
      <point x="463" y="69"/>
      <point x="463" y="213" type="curve" smooth="yes"/>
    </contour>
    <contour>
      <point x="421" y="500" type="move" name="top"/>
    </contour>
  </outline>
</glyph>
<glyph name="breve" format="1">
  <advance width="500"/>
  <unicode hex="02D8"/>
  <outline>
    <contour>
      <point x="159" y="586"/>
      <point x="205" y="574"/>
      <point x="254" y="574" type="curve" smooth="yes"/>
      <point x="297" y="574"/>
      <point x="341" y="583"/>
      <point x="352" y="639" type="curve"/>
      <point x="373" y="639" type="line"/>
      <point x="373" y="573"/>
      <point x="340" y="510"/>
      <point x="251" y="510" type="curve" smooth="yes"/>
      <point x="163" y="510"/>
      <point x="128" y="573"/>
      <point x="128" y="639" type="curve"/>
      <point x="148" y="639" type="line"/>
    </contour>
    <contour>
      <point x="251" y="500" type="move" name="_top"/>
    </contour>
  </outline>
</glyph>
<glyph name="ring" format="1">
  <advance width="500"/>
  <unicode hex="02DA"/>
  <outline>
    <contour>
      <point x="210" y="505"/>
      <point x="198" y="541"/>
      <point x="198" y="573" type="curve" smooth="yes"/>
      <point x="198" y="607"/>
      <point x="212" y="642"/>
      <point x="248" y="642" type="curve" smooth="yes"/>
      <point x="286" y="642"/>
      <point x="299" y="607"/>
      <point x="299" y="575" type="curve" smooth="yes"/>
      <point x="299" y="541"/>
      <point x="284" y="505"/>
      <point x="248" y="505" type="curve" smooth="yes"/>
    </contour>
    <contour>
      <point x="353" y="626"/>
      <point x="316" y="665"/>
      <point x="251" y="665" type="curve" smooth="yes"/>
      <point x="184" y="665"/>
      <point x="144" y="627"/>
      <point x="144" y="575" type="curve" smooth="yes"/>
      <point x="144" y="522"/>
      <point x="182" y="482"/>
      <point x="246" y="482" type="curve" smooth="yes"/>
      <point x="313" y="482"/>
      <point x="353" y="523"/>
      <point x="353" y="576" type="curve" smooth="yes"/>
    </contour>
    <contour>
      <point x="247" y="500" type="move" name="_top"/>
    </contour>
  </outline>
</glyph>
<glyph name="uni0964" format="1">
  <advance width="285"/>
  <unicode hex="0964"/>
  <outline>
    <contour>
      <point x="215" y="0" type="line"/>
      <point x="140" y="0" type="line"/>
      <point x="140" y="400" type="line"/>
      <point x="215" y="400" type="line"/>
      <point x="215" y="0" type="line"/>
    </contour>
  </outline>
</glyph>
<glyph name="uni0965" format="1">
  <advance width="461"/>
  <unicode hex="0965"/>
  <outline>
    <contour>
      <point x="391" y="0" type="line"/>
      <point x="316" y="0" type="line"/>
      <point x="316" y="400" type="line"/>
      <point x="391" y="400" type="line"/>
      <point x="391" y="0" type="line"/>
    </contour>
    <contour>
      <point x="215" y="0" type="line"/>
      <point x="140" y="0" type="line"/>
      <point x="140" y="400" type="line"/>
      <point x="215" y="400" type="line"/>
      <point x="215" y="0" type="line"/>
    </contour>
  </outline>
</glyph>
<glyph name="uni0B83" format="1">
  <advance width="685"/>
  <unicode hex="0B83"/>
  <outline>
    <contour>
      <point x="400" y="360"/>
      <point x="439" y="401" type="qcurve" smooth="yes"/>
      <point x="479" y="443"/>
      <point x="479" y="501" type="qcurve" smooth="yes"/>
      <point x="479" y="560"/>
      <point x="439" y="602" type="qcurve" smooth="yes"/>
      <point x="400" y="644"/>
      <point x="344" y="644" type="qcurve" smooth="yes"/>
      <point x="282" y="644"/>
      <point x="245" y="605" type="qcurve" smooth="yes"/>
      <point x="208" y="566"/>
      <point x="208" y="501" type="qcurve" smooth="yes"/>
      <point x="208" y="437"/>
      <point x="245" y="399" type="qcurve" smooth="yes"/>
      <point x="282" y="360"/>
      <point x="344" y="360" type="qcurve" smooth="yes"/>
    </contour>
    <contour>
      <point x="113" y="25"/>
      <point x="88" y="58" type="qcurve" smooth="yes"/>
      <point x="63" y="90"/>
      <point x="63" y="136" type="qcurve" smooth="yes"/>
      <point x="63" y="183"/>
      <point x="88" y="216" type="qcurve" smooth="yes"/>
      <point x="113" y="249"/>
      <point x="148" y="249" type="qcurve" smooth="yes"/>
      <point x="182" y="249"/>
      <point x="205" y="216" type="qcurve" smooth="yes"/>
      <point x="229" y="183"/>
      <point x="229" y="136" type="qcurve" smooth="yes"/>
      <point x="229" y="90"/>
      <point x="205" y="58" type="qcurve" smooth="yes"/>
      <point x="182" y="25"/>
      <point x="148" y="25" type="qcurve" smooth="yes"/>
    </contour>
    <contour>
      <point x="225" y="-5"/>
      <point x="264" y="36" type="qcurve" smooth="yes"/>
      <point x="304" y="78"/>
      <point x="304" y="136" type="qcurve" smooth="yes"/>
      <point x="304" y="195"/>
      <point x="264" y="237" type="qcurve" smooth="yes"/>
      <point x="225" y="279"/>
      <point x="169" y="279" type="qcurve" smooth="yes"/>
      <point x="107" y="279"/>
      <point x="70" y="240" type="qcurve" smooth="yes"/>
      <point x="33" y="201"/>
      <point x="33" y="136" type="qcurve" smooth="yes"/>
      <point x="33" y="72"/>
      <point x="70" y="34" type="qcurve" smooth="yes"/>
      <point x="107" y="-5"/>
      <point x="169" y="-5" type="qcurve" smooth="yes"/>
    </contour>
    <contour>
      <point x="464" y="25"/>
      <point x="439" y="58" type="qcurve" smooth="yes"/>
      <point x="414" y="90"/>
      <point x="414" y="136" type="qcurve" smooth="yes"/>
      <point x="414" y="183"/>
      <point x="439" y="216" type="qcurve" smooth="yes"/>
      <point x="464" y="249"/>
      <point x="499" y="249" type="qcurve" smooth="yes"/>
      <point x="532" y="249"/>
      <point x="556" y="216" type="qcurve" smooth="yes"/>
      <point x="579" y="183"/>
      <point x="579" y="136" type="qcurve" smooth="yes"/>
      <point x="579" y="90"/>
      <point x="556" y="58" type="qcurve" smooth="yes"/>
      <point x="532" y="25"/>
      <point x="499" y="25" type="qcurve" smooth="yes"/>
    </contour>
    <contour>
      <point x="575" y="-5"/>
      <point x="614" y="36" type="qcurve" smooth="yes"/>
      <point x="654" y="78"/>
      <point x="654" y="136" type="qcurve" smooth="yes"/>
      <point x="654" y="195"/>
      <point x="614" y="237" type="qcurve" smooth="yes"/>
      <point x="575" y="279"/>
      <point x="519" y="279" type="qcurve" smooth="yes"/>
      <point x="458" y="279"/>
      <point x="421" y="240" type="qcurve" smooth="yes"/>
      <point x="384" y="201"/>
      <point x="384" y="136" type="qcurve" smooth="yes"/>
      <point x="384" y="72"/>
      <point x="421" y="34" type="qcurve" smooth="yes"/>
      <point x="458" y="-5"/>
      <point x="519" y="-5" type="qcurve" smooth="yes"/>
    </contour>
    <contour>
      <point x="288" y="390"/>
      <point x="263" y="423" type="qcurve" smooth="yes"/>
      <point x="238" y="455"/>
      <point x="238" y="501" type="qcurve" smooth="yes"/>
      <point x="238" y="548"/>
      <point x="263" y="581" type="qcurve" smooth="yes"/>
      <point x="288" y="614"/>
      <point x="323" y="614" type="qcurve" smooth="yes"/>
      <point x="357" y="614"/>
      <point x="380" y="581" type="qcurve" smooth="yes"/>
      <point x="404" y="548"/>
      <point x="404" y="501" type="qcurve" smooth="yes"/>
      <point x="404" y="455"/>
      <point x="380" y="423" type="qcurve" smooth="yes"/>
      <point x="357" y="390"/>
      <point x="323" y="390" type="qcurve" smooth="yes"/>
    </contour>
  </outline>
</glyph>
<glyph name="uni0B85" format="1">
  <advance width="908"/>
  <unicode hex="0B85"/>
  <outline>
    <contour>
      <point x="838" y="-134" type="line"/>
      <point x="838" y="400" type="line"/>
      <point x="763" y="400" type="line"/>
      <point x="763" y="78" type="line"/>
      <point x="648" y="78" type="line"/>
      <point x="672" y="127"/>
      <point x="672" y="209" type="qcurve" smooth="yes"/>
      <point x="672" y="291"/>
      <point x="612" y="349" type="qcurve" smooth="yes"/>
      <point x="552" y="407"/>
      <point x="468" y="407" type="qcurve" smooth="yes"/>
      <point x="387" y="407"/>
      <point x="339" y="370" type="qcurve" smooth="yes"/>
      <point x="290" y="333"/>
      <point x="290" y="273" type="qcurve" smooth="yes"/>
      <point x="290" y="225"/>
      <point x="321" y="192" type="qcurve" smooth="yes"/>
      <point x="352" y="158"/>
      <point x="395" y="158" type="qcurve" smooth="yes"/>
      <point x="448" y="158"/>
      <point x="486" y="188" type="qcurve" smooth="yes"/>
      <point x="523" y="218"/>
      <point x="523" y="262" type="qcurve" smooth="yes"/>
      <point x="523" y="298"/>
      <point x="507" y="329" type="qcurve" smooth="yes"/>
      <point x="491" y="360"/>
      <point x="462" y="377" type="qcurve"/>
      <point x="518" y="377"/>
      <point x="557" y="330" type="qcurve" smooth="yes"/>
      <point x="597" y="282"/>
      <point x="597" y="215" type="qcurve" smooth="yes"/>
      <point x="597" y="141"/>
      <point x="565" y="78" type="qcurve"/>
      <point x="73" y="78" type="line" smooth="yes"/>
      <point x="48" y="78"/>
      <point x="30" y="65" type="qcurve"/>
      <point x="12" y="51"/>
      <point x="12" y="32" type="qcurve" smooth="yes"/>
      <point x="12" y="-31"/>
      <point x="94" y="-75" type="qcurve" smooth="yes"/>
      <point x="176" y="-120"/>
      <point x="292" y="-120" type="qcurve" smooth="yes"/>
      <point x="408" y="-120"/>
      <point x="500" y="-75" type="qcurve" smooth="yes"/>
      <point x="592" y="-30"/>
      <point x="635" y="48" type="qcurve"/>
      <point x="763" y="48" type="line"/>
      <point x="763" y="-134" type="line"/>
    </contour>
    <contour>
      <point x="173" y="-90"/>
      <point x="102" y="-52" type="qcurve" smooth="yes"/>
      <point x="32" y="-14"/>
      <point x="43" y="33" type="qcurve"/>
      <point x="45" y="40"/>
      <point x="53" y="44" type="qcurve"/>
      <point x="62" y="48"/>
      <point x="75" y="48" type="qcurve" smooth="yes"/>
      <point x="550" y="48" type="line"/>
      <point x="510" y="-16"/>
      <point x="435" y="-53" type="qcurve" smooth="yes"/>
      <point x="361" y="-90"/>
      <point x="271" y="-90" type="qcurve" smooth="yes"/>
    </contour>
    <contour>
      <point x="357" y="188"/>
      <point x="338" y="212" type="qcurve" smooth="yes"/>
      <point x="320" y="236"/>
      <point x="320" y="270" type="qcurve" smooth="yes"/>
      <point x="320" y="306"/>
      <point x="339" y="332" type="qcurve" smooth="yes"/>
      <point x="358" y="358"/>
      <point x="384" y="358" type="qcurve" smooth="yes"/>
      <point x="411" y="358"/>
      <point x="429" y="332" type="qcurve" smooth="yes"/>
      <point x="448" y="306"/>
      <point x="448" y="270" type="qcurve" smooth="yes"/>
      <point x="448" y="236"/>
      <point x="429" y="212" type="qcurve" smooth="yes"/>
      <point x="410" y="188"/>
      <point x="383" y="188" type="qcurve" smooth="yes"/>
    </contour>
  </outline>
</glyph>
<glyph name="uni0B86" format="1">
  <advance width="999"/>
  <unicode hex="0B86"/>
  <outline>
    <contour>
      <point x="829" y="-298"/>
      <point x="914" y="-232" type="qcurve" smooth="yes"/>
      <point x="999" y="-167"/>
      <point x="999" y="-58" type="qcurve" smooth="yes"/>
      <point x="999" y="-9"/>
      <point x="965" y="25" type="qcurve" smooth="yes"/>
      <point x="930" y="60"/>
      <point x="882" y="60" type="qcurve" smooth="yes"/>
      <point x="859" y="60"/>
      <point x="838" y="48" type="qcurve"/>
      <point x="838" y="400" type="line"/>
      <point x="763" y="400" type="line"/>
      <point x="763" y="78" type="line"/>
      <point x="648" y="78" type="line"/>
      <point x="672" y="127"/>
      <point x="672" y="209" type="qcurve" smooth="yes"/>
      <point x="672" y="291"/>
      <point x="612" y="349" type="qcurve" smooth="yes"/>
      <point x="552" y="407"/>
      <point x="468" y="407" type="qcurve" smooth="yes"/>
      <point x="387" y="407"/>
      <point x="339" y="370" type="qcurve" smooth="yes"/>
      <point x="290" y="334"/>
      <point x="290" y="273" type="qcurve" smooth="yes"/>
      <point x="290" y="225"/>
      <point x="321" y="192" type="qcurve" smooth="yes"/>
      <point x="352" y="158"/>
      <point x="395" y="158" type="qcurve" smooth="yes"/>
      <point x="448" y="158"/>
      <point x="486" y="188" type="qcurve" smooth="yes"/>
      <point x="523" y="219"/>
      <point x="523" y="262" type="qcurve" smooth="yes"/>
      <point x="523" y="298"/>
      <point x="507" y="329" type="qcurve" smooth="yes"/>
      <point x="490" y="360"/>
      <point x="462" y="377" type="qcurve"/>
      <point x="518" y="377"/>
      <point x="557" y="330" type="qcurve" smooth="yes"/>
      <point x="597" y="282"/>
      <point x="597" y="215" type="qcurve" smooth="yes"/>
      <point x="597" y="143"/>
      <point x="564" y="78" type="qcurve"/>
      <point x="73" y="78" type="line" smooth="yes"/>
      <point x="48" y="78"/>
      <point x="30" y="65" type="qcurve"/>
      <point x="12" y="51"/>
      <point x="12" y="32" type="qcurve" smooth="yes"/>
      <point x="12" y="-31"/>
      <point x="94" y="-75" type="qcurve" smooth="yes"/>
      <point x="176" y="-120"/>
      <point x="292" y="-120" type="qcurve" smooth="yes"/>
      <point x="408" y="-120"/>
      <point x="500" y="-75" type="qcurve" smooth="yes"/>
      <point x="592" y="-30"/>
      <point x="635" y="48" type="qcurve"/>
      <point x="763" y="48" type="line"/>
      <point x="763" y="-113" type="line"/>
      <point x="838" y="-113" type="line"/>
      <point x="838" y="20" type="line"/>
      <point x="843" y="25"/>
      <point x="851" y="27" type="qcurve"/>
      <point x="859" y="30"/>
      <point x="869" y="30" type="qcurve" smooth="yes"/>
      <point x="892" y="30"/>
      <point x="908" y="3" type="qcurve" smooth="yes"/>
      <point x="924" y="-24"/>
      <point x="924" y="-62" type="qcurve" smooth="yes"/>
      <point x="924" y="-155"/>
      <point x="859" y="-212" type="qcurve" smooth="yes"/>
      <point x="795" y="-268"/>
      <point x="687" y="-268" type="qcurve" smooth="yes"/>
      <point x="592" y="-268"/>
      <point x="524" y="-246" type="qcurve" smooth="yes"/>
      <point x="457" y="-225"/>
      <point x="457" y="-194" type="qcurve" smooth="yes"/>
      <point x="457" y="-187"/>
      <point x="468" y="-181" type="qcurve"/>
      <point x="479" y="-176"/>
      <point x="495" y="-176" type="qcurve" smooth="yes"/>
      <point x="612" y="-176" type="line"/>
      <point x="612" y="-146" type="line"/>
      <point x="497" y="-146" type="line" smooth="yes"/>
      <point x="468" y="-146"/>
      <point x="448" y="-160" type="qcurve" smooth="yes"/>
      <point x="427" y="-174"/>
      <point x="427" y="-193" type="qcurve" smooth="yes"/>
      <point x="427" y="-236"/>
      <point x="503" y="-267" type="qcurve" smooth="yes"/>
      <point x="579" y="-298"/>
      <point x="687" y="-298" type="qcurve" smooth="yes"/>
    </contour>
    <contour>
      <point x="173" y="-90"/>
      <point x="102" y="-52" type="qcurve" smooth="yes"/>
      <point x="32" y="-14"/>
      <point x="43" y="33" type="qcurve"/>
      <point x="45" y="40"/>
      <point x="53" y="44" type="qcurve"/>
      <point x="62" y="48"/>
      <point x="75" y="48" type="qcurve" smooth="yes"/>
      <point x="550" y="48" type="line"/>
      <point x="510" y="-16"/>
      <point x="435" y="-53" type="qcurve" smooth="yes"/>
      <point x="361" y="-90"/>
      <point x="271" y="-90" type="qcurve" smooth="yes"/>
    </contour>
    <contour>
      <point x="356" y="188"/>
      <point x="338" y="212" type="qcurve" smooth="yes"/>
      <point x="320" y="236"/>
      <point x="320" y="270" type="qcurve" smooth="yes"/>
      <point x="320" y="306"/>
      <point x="339" y="332" type="qcurve" smooth="yes"/>
      <point x="357" y="358"/>
      <point x="384" y="358" type="qcurve" smooth="yes"/>
      <point x="411" y="358"/>
      <point x="429" y="332" type="qcurve" smooth="yes"/>
      <point x="448" y="306"/>
      <point x="448" y="270" type="qcurve" smooth="yes"/>
      <point x="448" y="236"/>
      <point x="429" y="212" type="qcurve" smooth="yes"/>
      <point x="409" y="188"/>
      <point x="382" y="188" type="qcurve" smooth="yes"/>
    </contour>
  </outline>
</glyph>
<glyph name="uni0B87" format="1">
  <advance width="913"/>
  <unicode hex="0B87"/>
  <outline>
    <contour>
      <point x="258" y="-285"/>
      <point x="348" y="-222" type="qcurve"/>
      <point x="441" y="-285"/>
      <point x="549" y="-285" type="qcurve" smooth="yes"/>
      <point x="629" y="-285"/>
      <point x="686" y="-242" type="qcurve" smooth="yes"/>
      <point x="743" y="-199"/>
      <point x="743" y="-139" type="qcurve" smooth="yes"/>
      <point x="743" y="-94"/>
      <point x="707" y="-52" type="qcurve" smooth="yes"/>
      <point x="672" y="-10"/>
      <point x="612" y="15" type="qcurve"/>
      <point x="660" y="86"/>
      <point x="660" y="193" type="qcurve" smooth="yes"/>
      <point x="660" y="280"/>
      <point x="599" y="341" type="qcurve" smooth="yes"/>
      <point x="538" y="403"/>
      <point x="452" y="403" type="qcurve" smooth="yes"/>
      <point x="375" y="403"/>
      <point x="328" y="364" type="qcurve" smooth="yes"/>
      <point x="282" y="325"/>
      <point x="282" y="261" type="qcurve" smooth="yes"/>
      <point x="282" y="209"/>
      <point x="311" y="177" type="qcurve" smooth="yes"/>
      <point x="341" y="146"/>
      <point x="390" y="146" type="qcurve" smooth="yes"/>
      <point x="448" y="146"/>
      <point x="483" y="176" type="qcurve" smooth="yes"/>
      <point x="518" y="206"/>
      <point x="518" y="256" type="qcurve" smooth="yes"/>
      <point x="518" y="294"/>
      <point x="502" y="326" type="qcurve" smooth="yes"/>
      <point x="486" y="357"/>
      <point x="458" y="373" type="qcurve"/>
      <point x="511" y="373"/>
      <point x="548" y="323" type="qcurve" smooth="yes"/>
      <point x="585" y="272"/>
      <point x="585" y="201" type="qcurve" smooth="yes"/>
      <point x="585" y="113"/>
      <point x="539" y="36" type="qcurve"/>
      <point x="480" y="53"/>
      <point x="418" y="53" type="qcurve" smooth="yes"/>
      <point x="270" y="53"/>
      <point x="174" y="2" type="qcurve"/>
      <point x="96" y="113"/>
      <point x="96" y="236" type="qcurve" smooth="yes"/>
      <point x="96" y="398"/>
      <point x="193" y="496" type="qcurve" smooth="yes"/>
      <point x="289" y="594"/>
      <point x="450" y="594" type="qcurve" smooth="yes"/>
      <point x="617" y="594"/>
      <point x="717" y="483" type="qcurve" smooth="yes"/>
      <point x="818" y="373"/>
      <point x="818" y="189" type="qcurve" smooth="yes"/>
      <point x="818" y="-273" type="line"/>
      <point x="848" y="-273" type="line"/>
      <point x="848" y="188" type="line" smooth="yes"/>
      <point x="848" y="407"/>
      <point x="740" y="539" type="qcurve" smooth="yes"/>
      <point x="632" y="671"/>
      <point x="452" y="671" type="qcurve" smooth="yes"/>
      <point x="271" y="671"/>
      <point x="161" y="558" type="qcurve" smooth="yes"/>
      <point x="52" y="446"/>
      <point x="52" y="259" type="qcurve" smooth="yes"/>
      <point x="52" y="181"/>
      <point x="75" y="111" type="qcurve" smooth="yes"/>
      <point x="98" y="40"/>
      <point x="141" y="-15" type="qcurve"/>
      <point x="84" y="-44"/>
      <point x="51" y="-90" type="qcurve" smooth="yes"/>
      <point x="18" y="-136"/>
      <point x="18" y="-186" type="qcurve" smooth="yes"/>
      <point x="18" y="-227"/>
      <point x="56" y="-256" type="qcurve" smooth="yes"/>
      <point x="95" y="-285"/>
      <point x="149" y="-285" type="qcurve" smooth="yes"/>
    </contour>
    <contour>
      <point x="110" y="-255"/>
      <point x="79" y="-235" type="qcurve" smooth="yes"/>
      <point x="48" y="-215"/>
      <point x="48" y="-186" type="qcurve" smooth="yes"/>
      <point x="48" y="-149"/>
      <point x="78" y="-113" type="qcurve" smooth="yes"/>
      <point x="108" y="-76"/>
      <point x="159" y="-50" type="qcurve"/>
      <point x="223" y="-132"/>
      <point x="314" y="-198" type="qcurve"/>
      <point x="233" y="-255"/>
      <point x="153" y="-255" type="qcurve" smooth="yes"/>
    </contour>
    <contour>
      <point x="259" y="-119"/>
      <point x="194" y="-32" type="qcurve"/>
      <point x="267" y="7"/>
      <point x="402" y="7" type="qcurve" smooth="yes"/>
      <point x="460" y="7"/>
      <point x="509" y="-9" type="qcurve"/>
      <point x="440" y="-112"/>
      <point x="346" y="-175" type="qcurve"/>
    </contour>
    <contour>
      <point x="450" y="-229"/>
      <point x="392" y="-198" type="qcurve"/>
      <point x="501" y="-133"/>
      <point x="579" y="-36" type="qcurve"/>
      <point x="613" y="-46"/>
      <point x="635" y="-74" type="qcurve" smooth="yes"/>
      <point x="656" y="-102"/>
      <point x="656" y="-137" type="qcurve" smooth="yes"/>
      <point x="656" y="-175"/>
      <point x="616" y="-202" type="qcurve" smooth="yes"/>
      <point x="576" y="-229"/>
      <point x="520" y="-229" type="qcurve" smooth="yes"/>
    </contour>
    <contour>
      <point x="352" y="176"/>
      <point x="332" y="202" type="qcurve" smooth="yes"/>
      <point x="312" y="228"/>
      <point x="312" y="264" type="qcurve" smooth="yes"/>
      <point x="312" y="299"/>
      <point x="333" y="324" type="qcurve" smooth="yes"/>
      <point x="354" y="349"/>
      <point x="384" y="349" type="qcurve" smooth="yes"/>
      <point x="408" y="349"/>
      <point x="426" y="324" type="qcurve"/>
      <point x="443" y="298"/>
      <point x="443" y="262" type="qcurve" smooth="yes"/>
      <point x="443" y="226"/>
      <point x="425" y="201" type="qcurve" smooth="yes"/>
      <point x="406" y="176"/>
      <point x="380" y="176" type="qcurve" smooth="yes"/>
    </contour>
  </outline>
</glyph>
<glyph name="uni0B88" format="1">
  <advance width="583"/>
  <unicode hex="0B88"/>
  <outline>
    <contour>
      <point x="100" y="0" type="line"/>
      <point x="100" y="370" type="line"/>
      <point x="334" y="370" type="line"/>
      <point x="334" y="0" type="line"/>
      <point x="409" y="0" type="line"/>
      <point x="409" y="370" type="line"/>
      <point x="555" y="370" type="line"/>
      <point x="555" y="400" type="line"/>
      <point x="70" y="400" type="line"/>
      <point x="70" y="0" type="line"/>
    </contour>
    <contour>
      <point x="239" y="148"/>
      <point x="255" y="163" type="qcurve" smooth="yes"/>
      <point x="272" y="178"/>
      <point x="272" y="199" type="qcurve" smooth="yes"/>
      <point x="272" y="220"/>
      <point x="255" y="234" type="qcurve"/>
      <point x="239" y="249"/>
      <point x="215" y="249" type="qcurve" smooth="yes"/>
      <point x="192" y="249"/>
      <point x="175" y="234" type="qcurve" smooth="yes"/>
      <point x="159" y="220"/>
      <point x="159" y="199" type="qcurve" smooth="yes"/>
      <point x="159" y="178"/>
      <point x="175" y="163" type="qcurve" smooth="yes"/>
      <point x="192" y="148"/>
      <point x="215" y="148" type="qcurve" smooth="yes"/>
    </contour>
    <contour>
      <point x="531" y="148"/>
      <point x="547" y="163" type="qcurve" smooth="yes"/>
      <point x="564" y="178"/>
      <point x="564" y="199" type="qcurve" smooth="yes"/>
      <point x="564" y="220"/>
      <point x="547" y="234" type="qcurve"/>
      <point x="531" y="249"/>
      <point x="507" y="249" type="qcurve" smooth="yes"/>
      <point x="484" y="249"/>
      <point x="467" y="234" type="qcurve" smooth="yes"/>
      <point x="451" y="220"/>
      <point x="451" y="199" type="qcurve" smooth="yes"/>
      <point x="451" y="178"/>
      <point x="467" y="163" type="qcurve" smooth="yes"/>
      <point x="484" y="148"/>
      <point x="507" y="148" type="qcurve" smooth="yes"/>
    </contour>
  </outline>
</glyph>
<glyph name="uni0B89" format="1">
  <advance width="709"/>
  <unicode hex="0B89"/>
  <outline>
    <contour>
      <point x="704" y="0" type="line"/>
      <point x="704" y="30" type="line"/>
      <point x="154" y="30" type="line" smooth="yes"/>
      <point x="136" y="30"/>
      <point x="124" y="40" type="qcurve"/>
      <point x="111" y="49"/>
      <point x="111" y="63" type="qcurve" smooth="yes"/>
      <point x="111" y="76"/>
      <point x="124" y="86" type="qcurve"/>
      <point x="137" y="95"/>
      <point x="156" y="95" type="qcurve" smooth="yes"/>
      <point x="275" y="95" type="line" smooth="yes"/>
      <point x="345" y="95"/>
      <point x="394" y="141" type="qcurve" smooth="yes"/>
      <point x="443" y="187"/>
      <point x="443" y="252" type="qcurve" smooth="yes"/>
      <point x="443" y="320"/>
      <point x="386" y="361" type="qcurve" smooth="yes"/>
      <point x="330" y="402"/>
      <point x="236" y="402" type="qcurve" smooth="yes"/>
      <point x="142" y="402"/>
      <point x="94" y="371" type="qcurve" smooth="yes"/>
      <point x="46" y="340"/>
      <point x="46" y="280" type="qcurve" smooth="yes"/>
      <point x="46" y="241"/>
      <point x="74" y="214" type="qcurve" smooth="yes"/>
      <point x="102" y="186"/>
      <point x="141" y="186" type="qcurve" smooth="yes"/>
      <point x="193" y="186"/>
      <point x="225" y="212" type="qcurve" smooth="yes"/>
      <point x="256" y="237"/>
      <point x="256" y="280" type="qcurve" smooth="yes"/>
      <point x="256" y="313"/>
      <point x="238" y="338" type="qcurve" smooth="yes"/>
      <point x="220" y="364"/>
      <point x="192" y="372" type="qcurve"/>
      <point x="263" y="372" type="line" smooth="yes"/>
      <point x="306" y="372"/>
      <point x="337" y="337" type="qcurve" smooth="yes"/>
      <point x="368" y="302"/>
      <point x="368" y="253" type="qcurve" smooth="yes"/>
      <point x="368" y="200"/>
      <point x="338" y="162" type="qcurve" smooth="yes"/>
      <point x="308" y="125"/>
      <point x="266" y="125" type="qcurve" smooth="yes"/>
      <point x="115" y="125" type="line" smooth="yes"/>
      <point x="82" y="125"/>
      <point x="59" y="107" type="qcurve" smooth="yes"/>
      <point x="36" y="89"/>
      <point x="36" y="64" type="qcurve" smooth="yes"/>
      <point x="36" y="37"/>
      <point x="63" y="19" type="qcurve" smooth="yes"/>
      <point x="90" y="0"/>
      <point x="128" y="0" type="qcurve" smooth="yes"/>
    </contour>
    <contour>
      <point x="105" y="216"/>
      <point x="90" y="237" type="qcurve" smooth="yes"/>
      <point x="76" y="257"/>
      <point x="76" y="286" type="qcurve" smooth="yes"/>
      <point x="76" y="315"/>
      <point x="91" y="335" type="qcurve" smooth="yes"/>
      <point x="106" y="356"/>
      <point x="127" y="356" type="qcurve" smooth="yes"/>
      <point x="149" y="356"/>
      <point x="165" y="335" type="qcurve" smooth="yes"/>
      <point x="181" y="315"/>
      <point x="181" y="286" type="qcurve" smooth="yes"/>
      <point x="181" y="257"/>
      <point x="165" y="237" type="qcurve" smooth="yes"/>
      <point x="148" y="216"/>
      <point x="125" y="216" type="qcurve" smooth="yes"/>
    </contour>
  </outline>
</glyph>
<glyph name="uni0B8A" format="1">
  <advance width="1215"/>
  <unicode hex="0B8A"/>
  <outline>
    <contour>
      <point x="1189" y="0" type="line"/>
      <point x="1189" y="30" type="line"/>
      <point x="154" y="30" type="line" smooth="yes"/>
      <point x="136" y="30"/>
      <point x="124" y="40" type="qcurve"/>
      <point x="111" y="49"/>
      <point x="111" y="63" type="qcurve" smooth="yes"/>
      <point x="111" y="74"/>
      <point x="124" y="82" type="qcurve" smooth="yes"/>
      <point x="137" y="90"/>
      <point x="156" y="90" type="qcurve" smooth="yes"/>
      <point x="275" y="90" type="line" smooth="yes"/>
      <point x="345" y="90"/>
      <point x="394" y="137" type="qcurve" smooth="yes"/>
      <point x="443" y="185"/>
      <point x="443" y="252" type="qcurve" smooth="yes"/>
      <point x="443" y="319"/>
      <point x="386" y="360" type="qcurve" smooth="yes"/>
      <point x="330" y="400"/>
      <point x="236" y="400" type="qcurve" smooth="yes"/>
      <point x="142" y="400"/>
      <point x="94" y="370" type="qcurve" smooth="yes"/>
      <point x="46" y="339"/>
      <point x="46" y="280" type="qcurve" smooth="yes"/>
      <point x="46" y="241"/>
      <point x="74" y="214" type="qcurve" smooth="yes"/>
      <point x="102" y="186"/>
      <point x="141" y="186" type="qcurve" smooth="yes"/>
      <point x="193" y="186"/>
      <point x="225" y="212" type="qcurve" smooth="yes"/>
      <point x="256" y="237"/>
      <point x="256" y="280" type="qcurve" smooth="yes"/>
      <point x="256" y="312"/>
      <point x="238" y="337" type="qcurve" smooth="yes"/>
      <point x="220" y="362"/>
      <point x="192" y="370" type="qcurve"/>
      <point x="263" y="370" type="line" smooth="yes"/>
      <point x="306" y="370"/>
      <point x="337" y="336" type="qcurve" smooth="yes"/>
      <point x="368" y="301"/>
      <point x="368" y="253" type="qcurve" smooth="yes"/>
      <point x="368" y="198"/>
      <point x="338" y="159" type="qcurve" smooth="yes"/>
      <point x="308" y="120"/>
      <point x="266" y="120" type="qcurve" smooth="yes"/>
      <point x="115" y="120" type="line" smooth="yes"/>
      <point x="82" y="120"/>
      <point x="59" y="104" type="qcurve" smooth="yes"/>
      <point x="36" y="87"/>
      <point x="36" y="64" type="qcurve" smooth="yes"/>
      <point x="36" y="37"/>
      <point x="63" y="19" type="qcurve" smooth="yes"/>
      <point x="90" y="0"/>
      <point x="128" y="0" type="qcurve" smooth="yes"/>
    </contour>
    <contour>
      <point x="105" y="216"/>
      <point x="90" y="237" type="qcurve" smooth="yes"/>
      <point x="76" y="257"/>
      <point x="76" y="286" type="qcurve" smooth="yes"/>
      <point x="76" y="315"/>
      <point x="91" y="335" type="qcurve" smooth="yes"/>
      <point x="106" y="356"/>
      <point x="127" y="356" type="qcurve" smooth="yes"/>
      <point x="149" y="356"/>
      <point x="165" y="335" type="qcurve" smooth="yes"/>
      <point x="181" y="315"/>
      <point x="181" y="286" type="qcurve" smooth="yes"/>
      <point x="181" y="257"/>
      <point x="165" y="237" type="qcurve" smooth="yes"/>
      <point x="148" y="216"/>
      <point x="125" y="216" type="qcurve" smooth="yes"/>
    </contour>
    <contour>
      <point x="636" y="113"/>
      <point x="619" y="135" type="qcurve" smooth="yes"/>
      <point x="603" y="157"/>
      <point x="603" y="188" type="qcurve" smooth="yes"/>
      <point x="603" y="219"/>
      <point x="618" y="241" type="qcurve" smooth="yes"/>
      <point x="633" y="263"/>
      <point x="655" y="263" type="qcurve" smooth="yes"/>
      <point x="677" y="263"/>
      <point x="692" y="241" type="qcurve"/>
      <point x="708" y="220"/>
      <point x="708" y="189" type="qcurve" smooth="yes"/>
      <point x="708" y="158"/>
      <point x="694" y="135" type="qcurve"/>
      <point x="679" y="113"/>
      <point x="659" y="113" type="qcurve" smooth="yes"/>
    </contour>
    <contour>
      <point x="717" y="83"/>
      <point x="750" y="112" type="qcurve" smooth="yes"/>
      <point x="783" y="142"/>
      <point x="783" y="191" type="qcurve" smooth="yes"/>
      <point x="783" y="237"/>
      <point x="754" y="265" type="qcurve" smooth="yes"/>
      <point x="725" y="293"/>
      <point x="677" y="293" type="qcurve" smooth="yes"/>
      <point x="630" y="293"/>
      <point x="601" y="265" type="qcurve" smooth="yes"/>
      <point x="573" y="237"/>
      <point x="573" y="190" type="qcurve" smooth="yes"/>
      <point x="573" y="170"/>
      <point x="578" y="152" type="qcurve" smooth="yes"/>
      <point x="583" y="135"/>
      <point x="592" y="123" type="qcurve"/>
      <point x="570" y="141"/>
      <point x="557" y="168" type="qcurve" smooth="yes"/>
      <point x="545" y="194"/>
      <point x="545" y="224" type="qcurve" smooth="yes"/>
      <point x="545" y="284"/>
      <point x="590" y="327" type="qcurve" smooth="yes"/>
      <point x="636" y="370"/>
      <point x="700" y="370" type="qcurve" smooth="yes"/>
      <point x="750" y="370"/>
      <point x="796" y="348" type="qcurve" smooth="yes"/>
      <point x="842" y="325"/>
      <point x="873" y="285" type="qcurve"/>
      <point x="873" y="90" type="line"/>
      <point x="948" y="90" type="line"/>
      <point x="948" y="370" type="line"/>
      <point x="1066" y="370" type="line"/>
      <point x="1066" y="90" type="line"/>
      <point x="1141" y="90" type="line"/>
      <point x="1141" y="370" type="line"/>
      <point x="1189" y="370" type="line"/>
      <point x="1189" y="400" type="line"/>
      <point x="902" y="400" type="line"/>
      <point x="902" y="334" type="line"/>
      <point x="876" y="365"/>
      <point x="822" y="383" type="qcurve" smooth="yes"/>
      <point x="769" y="400"/>
      <point x="699" y="400" type="qcurve" smooth="yes"/>
      <point x="623" y="400"/>
      <point x="569" y="350" type="qcurve" smooth="yes"/>
      <point x="515" y="299"/>
      <point x="515" y="228" type="qcurve" smooth="yes"/>
      <point x="515" y="168"/>
      <point x="558" y="125" type="qcurve" smooth="yes"/>
      <point x="601" y="83"/>
      <point x="662" y="83" type="qcurve" smooth="yes"/>
    </contour>
  </outline>
</glyph>
<glyph name="uni0B90" format="1">
  <advance width="708"/>
  <unicode hex="0B90"/>
  <outline>
    <contour>
      <point x="249" y="-216"/>
      <point x="293" y="-194" type="qcurve" smooth="yes"/>
      <point x="336" y="-173"/>
      <point x="362" y="-135" type="qcurve"/>
      <point x="379" y="-172"/>
      <point x="425" y="-194" type="qcurve" smooth="yes"/>
      <point x="470" y="-216"/>
      <point x="529" y="-216" type="qcurve" smooth="yes"/>
      <point x="586" y="-216"/>
      <point x="626" y="-178" type="qcurve" smooth="yes"/>
      <point x="666" y="-140"/>
      <point x="666" y="-87" type="qcurve" smooth="yes"/>
      <point x="666" y="2" type="line"/>
      <point x="636" y="2" type="line"/>
      <point x="636" y="-87" type="line" smooth="yes"/>
      <point x="636" y="-128"/>
      <point x="604" y="-157" type="qcurve" smooth="yes"/>
      <point x="572" y="-186"/>
      <point x="526" y="-186" type="qcurve" smooth="yes"/>
      <point x="483" y="-186"/>
      <point x="452" y="-158" type="qcurve" smooth="yes"/>
      <point x="421" y="-130"/>
      <point x="421" y="-91" type="qcurve" smooth="yes"/>
      <point x="421" y="2" type="line"/>
      <point x="346" y="2" type="line"/>
      <point x="346" y="-86" type="line" smooth="yes"/>
      <point x="346" y="-127"/>
      <point x="305" y="-157" type="qcurve" smooth="yes"/>
      <point x="263" y="-186"/>
      <point x="205" y="-186" type="qcurve" smooth="yes"/>
      <point x="162" y="-186"/>
      <point x="131" y="-150" type="qcurve" smooth="yes"/>
      <point x="101" y="-115"/>
      <point x="101" y="-64" type="qcurve" smooth="yes"/>
      <point x="101" y="-17"/>
      <point x="134" y="17" type="qcurve" smooth="yes"/>
      <point x="168" y="50"/>
      <point x="215" y="50" type="qcurve" smooth="yes"/>
      <point x="487" y="50" type="line" smooth="yes"/>
      <point x="564" y="50"/>
      <point x="619" y="104" type="qcurve" smooth="yes"/>
      <point x="673" y="157"/>
      <point x="673" y="233" type="qcurve" smooth="yes"/>
      <point x="673" y="301"/>
      <point x="628" y="350" type="qcurve" smooth="yes"/>
      <point x="583" y="398"/>
      <point x="520" y="398" type="qcurve" smooth="yes"/>
      <point x="477" y="398"/>
      <point x="444" y="377" type="qcurve" smooth="yes"/>
      <point x="410" y="355"/>
      <point x="397" y="320" type="qcurve"/>
      <point x="374" y="356"/>
      <point x="324" y="377" type="qcurve" smooth="yes"/>
      <point x="273" y="398"/>
      <point x="207" y="398" type="qcurve" smooth="yes"/>
      <point x="135" y="398"/>
      <point x="85" y="357" type="qcurve" smooth="yes"/>
      <point x="34" y="316"/>
      <point x="34" y="258" type="qcurve" smooth="yes"/>
      <point x="34" y="204"/>
      <point x="72" y="165" type="qcurve" smooth="yes"/>
      <point x="110" y="127"/>
      <point x="163" y="127" type="qcurve" smooth="yes"/>
      <point x="216" y="127"/>
      <point x="248" y="154" type="qcurve" smooth="yes"/>
      <point x="280" y="181"/>
      <point x="280" y="225" type="qcurve" smooth="yes"/>
      <point x="280" y="270"/>
      <point x="253" y="298" type="qcurve" smooth="yes"/>
      <point x="226" y="325"/>
      <point x="182" y="325" type="qcurve" smooth="yes"/>
      <point x="146" y="325"/>
      <point x="121" y="297" type="qcurve" smooth="yes"/>
      <point x="96" y="269"/>
      <point x="96" y="229" type="qcurve" smooth="yes"/>
      <point x="96" y="209"/>
      <point x="103" y="191" type="qcurve" smooth="yes"/>
      <point x="110" y="173"/>
      <point x="123" y="159" type="qcurve"/>
      <point x="96" y="169"/>
      <point x="80" y="196" type="qcurve" smooth="yes"/>
      <point x="64" y="223"/>
      <point x="64" y="257" type="qcurve" smooth="yes"/>
      <point x="64" y="303"/>
      <point x="104" y="335" type="qcurve" smooth="yes"/>
      <point x="143" y="368"/>
      <point x="199" y="368" type="qcurve" smooth="yes"/>
      <point x="260" y="368"/>
      <point x="303" y="336" type="qcurve" smooth="yes"/>
      <point x="346" y="304"/>
      <point x="346" y="259" type="qcurve" smooth="yes"/>
      <point x="346" y="138" type="line"/>
      <point x="421" y="138" type="line"/>
      <point x="421" y="270" type="line" smooth="yes"/>
      <point x="421" y="311"/>
      <point x="447" y="339" type="qcurve" smooth="yes"/>
      <point x="473" y="368"/>
      <point x="510" y="368" type="qcurve" smooth="yes"/>
      <point x="546" y="368"/>
      <point x="572" y="328" type="qcurve" smooth="yes"/>
      <point x="598" y="288"/>
      <point x="598" y="231" type="qcurve" smooth="yes"/>
      <point x="598" y="168"/>
      <point x="563" y="124" type="qcurve" smooth="yes"/>
      <point x="528" y="80"/>
      <point x="478" y="80" type="qcurve" smooth="yes"/>
      <point x="200" y="80" type="line" smooth="yes"/>
      <point x="128" y="80"/>
      <point x="77" y="39" type="qcurve" smooth="yes"/>
      <point x="26" y="-1"/>
      <point x="26" y="-59" type="qcurve" smooth="yes"/>
      <point x="26" y="-124"/>
      <point x="76" y="-170" type="qcurve" smooth="yes"/>
      <point x="126" y="-216"/>
      <point x="197" y="-216" type="qcurve" smooth="yes"/>
    </contour>
    <contour>
      <point x="152" y="157"/>
      <point x="139" y="178" type="qcurve" smooth="yes"/>
      <point x="126" y="199"/>
      <point x="126" y="229" type="qcurve" smooth="yes"/>
      <point x="126" y="256"/>
      <point x="140" y="276" type="qcurve" smooth="yes"/>
      <point x="154" y="295"/>
      <point x="173" y="295" type="qcurve" smooth="yes"/>
      <point x="191" y="295"/>
      <point x="204" y="274" type="qcurve" smooth="yes"/>
      <point x="217" y="254"/>
      <point x="217" y="225" type="qcurve" smooth="yes"/>
      <point x="217" y="197"/>
      <point x="203" y="177" type="qcurve" smooth="yes"/>
      <point x="189" y="157"/>
      <point x="170" y="157" type="qcurve" smooth="yes"/>
    </contour>
  </outline>
</glyph>
<glyph name="uni0B93" format="1">
  <advance width="716"/>
  <unicode hex="0B93"/>
  <outline>
    <contour>
      <point x="319" y="-302"/>
      <point x="368" y="-268" type="qcurve" smooth="yes"/>
      <point x="416" y="-233"/>
      <point x="416" y="-176" type="qcurve" smooth="yes"/>
      <point x="416" y="-146"/>
      <point x="433" y="-125" type="qcurve" smooth="yes"/>
      <point x="450" y="-104"/>
      <point x="474" y="-104" type="qcurve" smooth="yes"/>
      <point x="612" y="-104" type="line"/>
      <point x="612" y="-74" type="line"/>
      <point x="518" y="-74" type="line" smooth="yes"/>
      <point x="469" y="-74"/>
      <point x="434" y="-41" type="qcurve" smooth="yes"/>
      <point x="399" y="-7"/>
      <point x="399" y="40" type="qcurve" smooth="yes"/>
      <point x="399" y="68"/>
      <point x="410" y="92" type="qcurve" smooth="yes"/>
      <point x="422" y="116"/>
      <point x="442" y="131" type="qcurve"/>
      <point x="442" y="108" type="line" smooth="yes"/>
      <point x="442" y="67"/>
      <point x="470" y="37" type="qcurve" smooth="yes"/>
      <point x="498" y="8"/>
      <point x="538" y="8" type="qcurve" smooth="yes"/>
      <point x="597" y="8"/>
      <point x="639" y="51" type="qcurve" smooth="yes"/>
      <point x="681" y="94"/>
      <point x="681" y="154" type="qcurve" smooth="yes"/>
      <point x="681" y="265"/>
      <point x="588" y="332" type="qcurve" smooth="yes"/>
      <point x="495" y="399"/>
      <point x="341" y="399" type="qcurve" smooth="yes"/>
      <point x="203" y="399"/>
      <point x="120" y="333" type="qcurve" smooth="yes"/>
      <point x="37" y="266"/>
      <point x="37" y="156" type="qcurve" smooth="yes"/>
      <point x="37" y="87"/>
      <point x="85" y="39" type="qcurve" smooth="yes"/>
      <point x="133" y="-10"/>
      <point x="201" y="-10" type="qcurve" smooth="yes"/>
      <point x="252" y="-10"/>
      <point x="288" y="22" type="qcurve" smooth="yes"/>
      <point x="324" y="54"/>
      <point x="324" y="100" type="qcurve" smooth="yes"/>
      <point x="324" y="145"/>
      <point x="291" y="176" type="qcurve" smooth="yes"/>
      <point x="258" y="208"/>
      <point x="212" y="208" type="qcurve" smooth="yes"/>
      <point x="170" y="208"/>
      <point x="140" y="178" type="qcurve" smooth="yes"/>
      <point x="110" y="148"/>
      <point x="110" y="105" type="qcurve" smooth="yes"/>
      <point x="110" y="83"/>
      <point x="119" y="63" type="qcurve"/>
      <point x="127" y="43"/>
      <point x="143" y="28" type="qcurve"/>
      <point x="109" y="42"/>
      <point x="88" y="77" type="qcurve" smooth="yes"/>
      <point x="67" y="112"/>
      <point x="67" y="156" type="qcurve" smooth="yes"/>
      <point x="67" y="238"/>
      <point x="146" y="297" type="qcurve" smooth="yes"/>
      <point x="225" y="355"/>
      <point x="336" y="355" type="qcurve" smooth="yes"/>
      <point x="448" y="355"/>
      <point x="527" y="296" type="qcurve" smooth="yes"/>
      <point x="606" y="237"/>
      <point x="606" y="153" type="qcurve" smooth="yes"/>
      <point x="606" y="105"/>
      <point x="586" y="72" type="qcurve" smooth="yes"/>
      <point x="566" y="38"/>
      <point x="538" y="38" type="qcurve" smooth="yes"/>
      <point x="511" y="38"/>
      <point x="491" y="59" type="qcurve" smooth="yes"/>
      <point x="472" y="80"/>
      <point x="472" y="109" type="qcurve" smooth="yes"/>
      <point x="472" y="130"/>
      <point x="478" y="148" type="qcurve"/>
      <point x="483" y="165"/>
      <point x="494" y="178" type="qcurve"/>
      <point x="442" y="178"/>
      <point x="406" y="138" type="qcurve" smooth="yes"/>
      <point x="369" y="99"/>
      <point x="369" y="43" type="qcurve" smooth="yes"/>
      <point x="369" y="1"/>
      <point x="392" y="-32" type="qcurve" smooth="yes"/>
      <point x="415" y="-66"/>
      <point x="453" y="-80" type="qcurve"/>
      <point x="429" y="-80" type="line" smooth="yes"/>
      <point x="393" y="-80"/>
      <point x="367" y="-105" type="qcurve" smooth="yes"/>
      <point x="341" y="-129"/>
      <point x="341" y="-164" type="qcurve" smooth="yes"/>
      <point x="341" y="-213"/>
      <point x="313" y="-243" type="qcurve" smooth="yes"/>
      <point x="286" y="-272"/>
      <point x="240" y="-272" type="qcurve" smooth="yes"/>
      <point x="181" y="-272"/>
      <point x="146" y="-245" type="qcurve" smooth="yes"/>
      <point x="110" y="-218"/>
      <point x="110" y="-174" type="qcurve" smooth="yes"/>
      <point x="110" y="-144"/>
      <point x="126" y="-122" type="qcurve" smooth="yes"/>
      <point x="142" y="-99"/>
      <point x="167" y="-95" type="qcurve"/>
      <point x="160" y="-102"/>
      <point x="157" y="-112" type="qcurve"/>
      <point x="153" y="-121"/>
      <point x="153" y="-133" type="qcurve" smooth="yes"/>
      <point x="153" y="-165"/>
      <point x="174" y="-187" type="qcurve" smooth="yes"/>
      <point x="195" y="-210"/>
      <point x="224" y="-210" type="qcurve" smooth="yes"/>
      <point x="257" y="-210"/>
      <point x="280" y="-186" type="qcurve" smooth="yes"/>
      <point x="303" y="-161"/>
      <point x="303" y="-127" type="qcurve" smooth="yes"/>
      <point x="303" y="-93"/>
      <point x="273" y="-68" type="qcurve" smooth="yes"/>
      <point x="243" y="-44"/>
      <point x="200" y="-44" type="qcurve" smooth="yes"/>
      <point x="150" y="-44"/>
      <point x="115" y="-82" type="qcurve" smooth="yes"/>
      <point x="80" y="-120"/>
      <point x="80" y="-173" type="qcurve" smooth="yes"/>
      <point x="80" y="-226"/>
      <point x="127" y="-264" type="qcurve" smooth="yes"/>
      <point x="173" y="-302"/>
      <point x="239" y="-302" type="qcurve" smooth="yes"/>
    </contour>
    <contour>
      <point x="208" y="-185"/>
      <point x="197" y="-172" type="qcurve"/>
      <point x="185" y="-159"/>
      <point x="185" y="-141" type="qcurve" smooth="yes"/>
      <point x="185" y="-123"/>
      <point x="197" y="-110" type="qcurve"/>
      <point x="208" y="-97"/>
      <point x="225" y="-97" type="qcurve" smooth="yes"/>
      <point x="243" y="-97"/>
      <point x="256" y="-110" type="qcurve" smooth="yes"/>
      <point x="269" y="-123"/>
      <point x="269" y="-141" type="qcurve" smooth="yes"/>
      <point x="269" y="-159"/>
      <point x="256" y="-172" type="qcurve" smooth="yes"/>
      <point x="243" y="-185"/>
      <point x="225" y="-185" type="qcurve" smooth="yes"/>
    </contour>
    <contour>
      <point x="172" y="20"/>
      <point x="156" y="43" type="qcurve" smooth="yes"/>
      <point x="140" y="66"/>
      <point x="140" y="99" type="qcurve" smooth="yes"/>
      <point x="140" y="132"/>
      <point x="156" y="155" type="qcurve" smooth="yes"/>
      <point x="172" y="178"/>
      <point x="195" y="178" type="qcurve" smooth="yes"/>
      <point x="217" y="178"/>
      <point x="233" y="155" type="qcurve" smooth="yes"/>
      <point x="249" y="132"/>
      <point x="249" y="99" type="qcurve" smooth="yes"/>
      <point x="249" y="66"/>
      <point x="233" y="43" type="qcurve" smooth="yes"/>
      <point x="217" y="20"/>
      <point x="195" y="20" type="qcurve" smooth="yes"/>
    </contour>
  </outline>
</glyph>
<glyph name="uni0B95" format="1">
  <advance width="566"/>
  <unicode hex="0B95"/>
  <outline>
    <contour>
      <point x="259" y="-2"/>
      <point x="308" y="32" type="qcurve" smooth="yes"/>
      <point x="357" y="65"/>
      <point x="357" y="131" type="qcurve" smooth="yes"/>
      <point x="357" y="185" type="line"/>
      <point x="423" y="185" type="line" smooth="yes"/>
      <point x="442" y="185"/>
      <point x="451" y="167" type="qcurve"/>
      <point x="461" y="149"/>
      <point x="461" y="113" type="qcurve" smooth="yes"/>
      <point x="461" y="67"/>
      <point x="445" y="48" type="qcurve" smooth="yes"/>
      <point x="429" y="30"/>
      <point x="389" y="30" type="qcurve"/>
      <point x="389" y="0" type="line"/>
      <point x="468" y="0"/>
      <point x="502" y="26" type="qcurve" smooth="yes"/>
      <point x="536" y="53"/>
      <point x="536" y="114" type="qcurve" smooth="yes"/>
      <point x="536" y="160"/>
      <point x="514" y="187" type="qcurve" smooth="yes"/>
      <point x="492" y="215"/>
      <point x="456" y="215" type="qcurve" smooth="yes"/>
      <point x="357" y="215" type="line"/>
      <point x="357" y="370" type="line"/>
      <point x="491" y="370" type="line"/>
      <point x="491" y="400" type="line"/>
      <point x="144" y="400" type="line"/>
      <point x="144" y="215" type="line"/>
      <point x="120" y="215" type="line" smooth="yes"/>
      <point x="77" y="215"/>
      <point x="51" y="193" type="qcurve" smooth="yes"/>
      <point x="25" y="171"/>
      <point x="25" y="134" type="qcurve" smooth="yes"/>
      <point x="25" y="78"/>
      <point x="65" y="38" type="qcurve" smooth="yes"/>
      <point x="105" y="-2"/>
      <point x="162" y="-2" type="qcurve" smooth="yes"/>
    </contour>
    <contour>
      <point x="114" y="28"/>
      <point x="84" y="57" type="qcurve" smooth="yes"/>
      <point x="55" y="86"/>
      <point x="55" y="135" type="qcurve" smooth="yes"/>
      <point x="55" y="158"/>
      <point x="71" y="171" type="qcurve"/>
      <point x="87" y="185"/>
      <point x="113" y="185" type="qcurve" smooth="yes"/>
      <point x="282" y="185" type="line"/>
      <point x="282" y="138" type="line" smooth="yes"/>
      <point x="282" y="92"/>
      <point x="247" y="60" type="qcurve" smooth="yes"/>
      <point x="212" y="28"/>
      <point x="163" y="28" type="qcurve" smooth="yes"/>
    </contour>
    <contour>
      <point x="174" y="370" type="line"/>
      <point x="282" y="370" type="line"/>
      <point x="282" y="215" type="line"/>
      <point x="174" y="215" type="line"/>
    </contour>
  </outline>
</glyph>
<glyph name="uni0B99" format="1">
  <advance width="769"/>
  <unicode hex="0B99"/>
  <outline>
    <contour>
      <point x="100" y="0" type="line"/>
      <point x="100" y="370" type="line"/>
      <point x="246" y="370" type="line"/>
      <point x="246" y="110" type="line"/>
      <point x="321" y="110" type="line"/>
      <point x="321" y="212" type="line"/>
      <point x="333" y="225"/>
      <point x="348" y="233" type="qcurve"/>
      <point x="363" y="240"/>
      <point x="379" y="240" type="qcurve" smooth="yes"/>
      <point x="413" y="240"/>
      <point x="437" y="210" type="qcurve" smooth="yes"/>
      <point x="461" y="180"/>
      <point x="461" y="137" type="qcurve" smooth="yes"/>
      <point x="461" y="104"/>
      <point x="444" y="76" type="qcurve" smooth="yes"/>
      <point x="427" y="47"/>
      <point x="397" y="30" type="qcurve"/>
      <point x="246" y="30" type="line"/>
      <point x="246" y="0" type="line"/>
      <point x="699" y="0" type="line"/>
      <point x="699" y="400" type="line"/>
      <point x="624" y="400" type="line"/>
      <point x="624" y="30" type="line"/>
      <point x="457" y="30" type="line"/>
      <point x="493" y="44"/>
      <point x="514" y="74" type="qcurve"/>
      <point x="536" y="103"/>
      <point x="536" y="137" type="qcurve" smooth="yes"/>
      <point x="536" y="197"/>
      <point x="501" y="234" type="qcurve" smooth="yes"/>
      <point x="466" y="270"/>
      <point x="407" y="270" type="qcurve" smooth="yes"/>
      <point x="381" y="270"/>
      <point x="359" y="264" type="qcurve" smooth="yes"/>
      <point x="337" y="258"/>
      <point x="321" y="247" type="qcurve"/>
      <point x="321" y="370" type="line"/>
      <point x="504" y="370" type="line"/>
      <point x="504" y="400" type="line"/>
      <point x="70" y="400" type="line"/>
      <point x="70" y="0" type="line"/>
    </contour>
  </outline>
</glyph>
<glyph name="uni0B9A" format="1">
  <advance width="504"/>
  <unicode hex="0B9A"/>
  <outline>
    <contour>
      <point x="260" y="-2"/>
      <point x="309" y="33" type="qcurve" smooth="yes"/>
      <point x="358" y="68"/>
      <point x="358" y="137" type="qcurve" smooth="yes"/>
      <point x="358" y="185" type="line"/>
      <point x="493" y="185" type="line"/>
      <point x="493" y="215" type="line"/>
      <point x="358" y="215" type="line"/>
      <point x="358" y="370" type="line"/>
      <point x="493" y="370" type="line"/>
      <point x="493" y="400" type="line"/>
      <point x="135" y="400" type="line"/>
      <point x="135" y="215" type="line"/>
      <point x="121" y="215" type="line" smooth="yes"/>
      <point x="78" y="215"/>
      <point x="52" y="194" type="qcurve" smooth="yes"/>
      <point x="26" y="172"/>
      <point x="26" y="137" type="qcurve" smooth="yes"/>
      <point x="26" y="74"/>
      <point x="63" y="36" type="qcurve" smooth="yes"/>
      <point x="101" y="-2"/>
      <point x="163" y="-2" type="qcurve" smooth="yes"/>
    </contour>
    <contour>
      <point x="115" y="28"/>
      <point x="85" y="58" type="qcurve" smooth="yes"/>
      <point x="56" y="88"/>
      <point x="56" y="137" type="qcurve" smooth="yes"/>
      <point x="56" y="159"/>
      <point x="72" y="172" type="qcurve" smooth="yes"/>
      <point x="88" y="185"/>
      <point x="114" y="185" type="qcurve" smooth="yes"/>
      <point x="283" y="185" type="line"/>
      <point x="283" y="137" type="line" smooth="yes"/>
      <point x="283" y="88"/>
      <point x="250" y="58" type="qcurve" smooth="yes"/>
      <point x="218" y="28"/>
      <point x="164" y="28" type="qcurve" smooth="yes"/>
    </contour>
    <contour>
      <point x="165" y="370" type="line"/>
      <point x="283" y="370" type="line"/>
      <point x="283" y="215" type="line"/>
      <point x="165" y="215" type="line"/>
    </contour>
  </outline>
</glyph>
<glyph name="uni0B9C" format="1">
  <advance width="718"/>
  <unicode hex="0B9C"/>
  <outline>
    <contour>
      <point x="605" y="-228"/>
      <point x="644" y="-197" type="qcurve" smooth="yes"/>
      <point x="684" y="-166"/>
      <point x="684" y="-114" type="qcurve" smooth="yes"/>
      <point x="684" y="-60"/>
      <point x="645" y="-28" type="qcurve" smooth="yes"/>
      <point x="606" y="4"/>
      <point x="541" y="4" type="qcurve" smooth="yes"/>
      <point x="494" y="4"/>
      <point x="447" y="-20" type="qcurve" smooth="yes"/>
      <point x="399" y="-44"/>
      <point x="358" y="-88" type="qcurve" smooth="yes"/>
      <point x="313" y="-136"/>
      <point x="273" y="-162" type="qcurve" smooth="yes"/>
      <point x="234" y="-188"/>
      <point x="205" y="-188" type="qcurve" smooth="yes"/>
      <point x="162" y="-188"/>
      <point x="131" y="-152" type="qcurve" smooth="yes"/>
      <point x="100" y="-115"/>
      <point x="100" y="-64" type="qcurve" smooth="yes"/>
      <point x="100" y="-17"/>
      <point x="134" y="17" type="qcurve" smooth="yes"/>
      <point x="167" y="50"/>
      <point x="215" y="50" type="qcurve" smooth="yes"/>
      <point x="477" y="50" type="line" smooth="yes"/>
      <point x="563" y="50"/>
      <point x="623" y="102" type="qcurve" smooth="yes"/>
      <point x="684" y="154"/>
      <point x="684" y="228" type="qcurve" smooth="yes"/>
      <point x="684" y="298"/>
      <point x="638" y="348" type="qcurve" smooth="yes"/>
      <point x="592" y="398"/>
      <point x="527" y="398" type="qcurve" smooth="yes"/>
      <point x="481" y="398"/>
      <point x="446" y="377" type="qcurve" smooth="yes"/>
      <point x="410" y="355"/>
      <point x="397" y="320" type="qcurve"/>
      <point x="374" y="356"/>
      <point x="324" y="377" type="qcurve" smooth="yes"/>
      <point x="273" y="398"/>
      <point x="207" y="398" type="qcurve" smooth="yes"/>
      <point x="135" y="398"/>
      <point x="85" y="357" type="qcurve" smooth="yes"/>
      <point x="34" y="316"/>
      <point x="34" y="258" type="qcurve" smooth="yes"/>
      <point x="34" y="199"/>
      <point x="71" y="163" type="qcurve" smooth="yes"/>
      <point x="107" y="127"/>
      <point x="168" y="127" type="qcurve" smooth="yes"/>
      <point x="219" y="127"/>
      <point x="249" y="154" type="qcurve" smooth="yes"/>
      <point x="280" y="181"/>
      <point x="280" y="225" type="qcurve" smooth="yes"/>
      <point x="280" y="270"/>
      <point x="255" y="298" type="qcurve" smooth="yes"/>
      <point x="230" y="325"/>
      <point x="188" y="325" type="qcurve" smooth="yes"/>
      <point x="146" y="325"/>
      <point x="121" y="299" type="qcurve" smooth="yes"/>
      <point x="96" y="273"/>
      <point x="96" y="229" type="qcurve" smooth="yes"/>
      <point x="96" y="201"/>
      <point x="106" y="180" type="qcurve" smooth="yes"/>
      <point x="116" y="160"/>
      <point x="133" y="154" type="qcurve"/>
      <point x="104" y="157"/>
      <point x="84" y="188" type="qcurve" smooth="yes"/>
      <point x="64" y="219"/>
      <point x="64" y="262" type="qcurve" smooth="yes"/>
      <point x="64" y="306"/>
      <point x="101" y="337" type="qcurve" smooth="yes"/>
      <point x="137" y="368"/>
      <point x="189" y="368" type="qcurve" smooth="yes"/>
      <point x="255" y="368"/>
      <point x="301" y="336" type="qcurve" smooth="yes"/>
      <point x="348" y="304"/>
      <point x="348" y="259" type="qcurve" smooth="yes"/>
      <point x="348" y="138" type="line"/>
      <point x="423" y="138" type="line"/>
      <point x="423" y="271" type="line" smooth="yes"/>
      <point x="423" y="311"/>
      <point x="449" y="340" type="qcurve" smooth="yes"/>
      <point x="475" y="368"/>
      <point x="511" y="368" type="qcurve" smooth="yes"/>
      <point x="552" y="368"/>
      <point x="580" y="328" type="qcurve" smooth="yes"/>
      <point x="609" y="288"/>
      <point x="609" y="231" type="qcurve" smooth="yes"/>
      <point x="609" y="168"/>
      <point x="571" y="124" type="qcurve" smooth="yes"/>
      <point x="532" y="80"/>
      <point x="478" y="80" type="qcurve" smooth="yes"/>
      <point x="210" y="80" type="line" smooth="yes"/>
      <point x="133" y="80"/>
      <point x="79" y="38" type="qcurve" smooth="yes"/>
      <point x="25" y="-4"/>
      <point x="25" y="-64" type="qcurve" smooth="yes"/>
      <point x="25" y="-134"/>
      <point x="73" y="-176" type="qcurve" smooth="yes"/>
      <point x="121" y="-218"/>
      <point x="201" y="-218" type="qcurve" smooth="yes"/>
      <point x="269" y="-218"/>
      <point x="366" y="-122" type="qcurve" smooth="yes"/>
      <point x="463" y="-26"/>
      <point x="531" y="-26" type="qcurve" smooth="yes"/>
      <point x="563" y="-26"/>
      <point x="586" y="-51" type="qcurve" smooth="yes"/>
      <point x="609" y="-77"/>
      <point x="609" y="-113" type="qcurve" smooth="yes"/>
      <point x="609" y="-148"/>
      <point x="588" y="-173" type="qcurve" smooth="yes"/>
      <point x="568" y="-198"/>
      <point x="539" y="-198" type="qcurve" smooth="yes"/>
      <point x="512" y="-198"/>
      <point x="485" y="-187" type="qcurve" smooth="yes"/>
      <point x="459" y="-177"/>
      <point x="436" y="-157" type="qcurve"/>
      <point x="421" y="-181" type="line"/>
      <point x="442" y="-203"/>
      <point x="473" y="-216" type="qcurve" smooth="yes"/>
      <point x="504" y="-228"/>
      <point x="539" y="-228" type="qcurve" smooth="yes"/>
    </contour>
    <contour>
      <point x="152" y="157"/>
      <point x="139" y="178" type="qcurve" smooth="yes"/>
      <point x="126" y="199"/>
      <point x="126" y="229" type="qcurve" smooth="yes"/>
      <point x="126" y="256"/>
      <point x="140" y="276" type="qcurve" smooth="yes"/>
      <point x="154" y="295"/>
      <point x="173" y="295" type="qcurve" smooth="yes"/>
      <point x="191" y="295"/>
      <point x="204" y="274" type="qcurve" smooth="yes"/>
      <point x="217" y="254"/>
      <point x="217" y="225" type="qcurve" smooth="yes"/>
      <point x="217" y="197"/>
      <point x="203" y="177" type="qcurve" smooth="yes"/>
      <point x="189" y="157"/>
      <point x="170" y="157" type="qcurve" smooth="yes"/>
    </contour>
  </outline>
</glyph>
<glyph name="uni0BA3" format="1">
  <advance width="1175"/>
  <unicode hex="0BA3"/>
  <outline>
    <contour>
      <point x="250" y="-6"/>
      <point x="285" y="28" type="qcurve" smooth="yes"/>
      <point x="320" y="63"/>
      <point x="320" y="120" type="qcurve" smooth="yes"/>
      <point x="320" y="165"/>
      <point x="288" y="197" type="qcurve" smooth="yes"/>
      <point x="256" y="229"/>
      <point x="211" y="229" type="qcurve" smooth="yes"/>
      <point x="166" y="229"/>
      <point x="138" y="199" type="qcurve" smooth="yes"/>
      <point x="111" y="168"/>
      <point x="111" y="118" type="qcurve" smooth="yes"/>
      <point x="111" y="94"/>
      <point x="117" y="74" type="qcurve" smooth="yes"/>
      <point x="124" y="53"/>
      <point x="136" y="39" type="qcurve"/>
      <point x="106" y="51"/>
      <point x="87" y="88" type="qcurve" smooth="yes"/>
      <point x="69" y="125"/>
      <point x="69" y="175" type="qcurve" smooth="yes"/>
      <point x="69" y="255"/>
      <point x="132" y="312" type="qcurve" smooth="yes"/>
      <point x="194" y="369"/>
      <point x="283" y="369" type="qcurve" smooth="yes"/>
      <point x="335" y="369"/>
      <point x="379" y="354" type="qcurve" smooth="yes"/>
      <point x="423" y="340"/>
      <point x="454" y="312" type="qcurve"/>
      <point x="420" y="275"/>
      <point x="401" y="230" type="qcurve" smooth="yes"/>
      <point x="383" y="185"/>
      <point x="383" y="137" type="qcurve" smooth="yes"/>
      <point x="383" y="72"/>
      <point x="414" y="33" type="qcurve" smooth="yes"/>
      <point x="445" y="-6"/>
      <point x="497" y="-6" type="qcurve" smooth="yes"/>
      <point x="549" y="-6"/>
      <point x="581" y="33" type="qcurve" smooth="yes"/>
      <point x="612" y="72"/>
      <point x="612" y="137" type="qcurve" smooth="yes"/>
      <point x="612" y="191"/>
      <point x="589" y="241" type="qcurve" smooth="yes"/>
      <point x="565" y="292"/>
      <point x="523" y="330" type="qcurve"/>
      <point x="546" y="349"/>
      <point x="574" y="359" type="qcurve" smooth="yes"/>
      <point x="602" y="369"/>
      <point x="633" y="369" type="qcurve" smooth="yes"/>
      <point x="670" y="369"/>
      <point x="699" y="355" type="qcurve" smooth="yes"/>
      <point x="729" y="340"/>
      <point x="744" y="315" type="qcurve"/>
      <point x="713" y="278"/>
      <point x="696" y="232" type="qcurve" smooth="yes"/>
      <point x="680" y="186"/>
      <point x="680" y="137" type="qcurve" smooth="yes"/>
      <point x="680" y="72"/>
      <point x="709" y="33" type="qcurve" smooth="yes"/>
      <point x="738" y="-6"/>
      <point x="787" y="-6" type="qcurve" smooth="yes"/>
      <point x="836" y="-6"/>
      <point x="866" y="33" type="qcurve" smooth="yes"/>
      <point x="895" y="72"/>
      <point x="895" y="137" type="qcurve" smooth="yes"/>
      <point x="895" y="192"/>
      <point x="873" y="244" type="qcurve" smooth="yes"/>
      <point x="850" y="295"/>
      <point x="809" y="335" type="qcurve"/>
      <point x="830" y="352"/>
      <point x="861" y="360" type="qcurve"/>
      <point x="891" y="369"/>
      <point x="928" y="369" type="qcurve" smooth="yes"/>
      <point x="986" y="369" type="line"/>
      <point x="986" y="0" type="line"/>
      <point x="1061" y="0" type="line"/>
      <point x="1061" y="369" type="line"/>
      <point x="1169" y="369" type="line"/>
      <point x="1169" y="400" type="line"/>
      <point x="906" y="400" type="line" smooth="yes"/>
      <point x="842" y="400"/>
      <point x="785" y="357" type="qcurve"/>
      <point x="759" y="378"/>
      <point x="722" y="389" type="qcurve" smooth="yes"/>
      <point x="684" y="400"/>
      <point x="639" y="400" type="qcurve" smooth="yes"/>
      <point x="598" y="400"/>
      <point x="561" y="387" type="qcurve" smooth="yes"/>
      <point x="524" y="374"/>
      <point x="495" y="350" type="qcurve"/>
      <point x="467" y="374"/>
      <point x="417" y="386" type="qcurve" smooth="yes"/>
      <point x="367" y="399"/>
      <point x="302" y="399" type="qcurve" smooth="yes"/>
      <point x="183" y="399"/>
      <point x="111" y="337" type="qcurve" smooth="yes"/>
      <point x="39" y="276"/>
      <point x="39" y="173" type="qcurve" smooth="yes"/>
      <point x="39" y="99"/>
      <point x="84" y="46" type="qcurve" smooth="yes"/>
      <point x="128" y="-6"/>
      <point x="191" y="-6" type="qcurve" smooth="yes"/>
    </contour>
    <contour>
      <point x="171" y="44"/>
      <point x="156" y="65" type="qcurve" smooth="yes"/>
      <point x="141" y="87"/>
      <point x="141" y="117" type="qcurve" smooth="yes"/>
      <point x="141" y="147"/>
      <point x="156" y="168" type="qcurve" smooth="yes"/>
      <point x="171" y="189"/>
      <point x="193" y="189" type="qcurve" smooth="yes"/>
      <point x="215" y="189"/>
      <point x="230" y="168" type="qcurve" smooth="yes"/>
      <point x="245" y="147"/>
      <point x="245" y="118" type="qcurve" smooth="yes"/>
      <point x="245" y="87"/>
      <point x="230" y="66" type="qcurve" smooth="yes"/>
      <point x="215" y="44"/>
      <point x="193" y="44" type="qcurve" smooth="yes"/>
    </contour>
    <contour>
      <point x="449" y="44"/>
      <point x="431" y="71" type="qcurve" smooth="yes"/>
      <point x="413" y="98"/>
      <point x="413" y="137" type="qcurve" smooth="yes"/>
      <point x="413" y="176"/>
      <point x="430" y="215" type="qcurve" smooth="yes"/>
      <point x="447" y="254"/>
      <point x="478" y="289" type="qcurve"/>
      <point x="506" y="259"/>
      <point x="522" y="219" type="qcurve" smooth="yes"/>
      <point x="537" y="180"/>
      <point x="537" y="137" type="qcurve" smooth="yes"/>
      <point x="537" y="98"/>
      <point x="519" y="71" type="qcurve" smooth="yes"/>
      <point x="500" y="44"/>
      <point x="474" y="44" type="qcurve" smooth="yes"/>
    </contour>
    <contour>
      <point x="744" y="44"/>
      <point x="727" y="71" type="qcurve" smooth="yes"/>
      <point x="710" y="98"/>
      <point x="710" y="137" type="qcurve" smooth="yes"/>
      <point x="710" y="182"/>
      <point x="724" y="221" type="qcurve" smooth="yes"/>
      <point x="739" y="261"/>
      <point x="765" y="288" type="qcurve"/>
      <point x="792" y="260"/>
      <point x="806" y="220" type="qcurve" smooth="yes"/>
      <point x="820" y="181"/>
      <point x="820" y="137" type="qcurve" smooth="yes"/>
      <point x="820" y="98"/>
      <point x="805" y="71" type="qcurve" smooth="yes"/>
      <point x="790" y="44"/>
      <point x="768" y="44" type="qcurve" smooth="yes"/>
    </contour>
  </outline>
</glyph>
<glyph name="uni0BA4" format="1">
  <advance width="583"/>
  <unicode hex="0BA4"/>
  <outline>
    <contour>
      <point x="68" y="-222"/>
      <point x="82" y="-209" type="qcurve"/>
      <point x="95" y="-196"/>
      <point x="95" y="-178" type="qcurve" smooth="yes"/>
      <point x="95" y="-160"/>
      <point x="83" y="-148" type="qcurve"/>
      <point x="71" y="-135"/>
      <point x="54" y="-135" type="qcurve"/>
      <point x="45" y="-137" type="line"/>
      <point x="45" y="-121"/>
      <point x="62" y="-109" type="qcurve"/>
      <point x="79" y="-98"/>
      <point x="103" y="-98" type="qcurve" smooth="yes"/>
      <point x="324" y="-98" type="line" smooth="yes"/>
      <point x="429" y="-98"/>
      <point x="493" y="-48" type="qcurve" smooth="yes"/>
      <point x="556" y="2"/>
      <point x="556" y="85" type="qcurve" smooth="yes"/>
      <point x="556" y="139"/>
      <point x="512" y="177" type="qcurve" smooth="yes"/>
      <point x="468" y="215"/>
      <point x="406" y="215" type="qcurve" smooth="yes"/>
      <point x="357" y="215" type="line"/>
      <point x="357" y="370" type="line"/>
      <point x="491" y="370" type="line"/>
      <point x="491" y="400" type="line"/>
      <point x="144" y="400" type="line"/>
      <point x="144" y="215" type="line"/>
      <point x="119" y="215" type="line" smooth="yes"/>
      <point x="76" y="215"/>
      <point x="51" y="193" type="qcurve" smooth="yes"/>
      <point x="25" y="171"/>
      <point x="25" y="134" type="qcurve" smooth="yes"/>
      <point x="25" y="78"/>
      <point x="65" y="38" type="qcurve" smooth="yes"/>
      <point x="105" y="-2"/>
      <point x="161" y="-2" type="qcurve" smooth="yes"/>
      <point x="258" y="-2"/>
      <point x="308" y="32" type="qcurve" smooth="yes"/>
      <point x="357" y="65"/>
      <point x="357" y="131" type="qcurve" smooth="yes"/>
      <point x="357" y="185" type="line"/>
      <point x="406" y="185" type="line" smooth="yes"/>
      <point x="437" y="185"/>
      <point x="459" y="157" type="qcurve" smooth="yes"/>
      <point x="481" y="128"/>
      <point x="481" y="88" type="qcurve" smooth="yes"/>
      <point x="481" y="23"/>
      <point x="436" y="-22" type="qcurve" smooth="yes"/>
      <point x="391" y="-68"/>
      <point x="328" y="-68" type="qcurve" smooth="yes"/>
      <point x="107" y="-68" type="line" smooth="yes"/>
      <point x="63" y="-68"/>
      <point x="31" y="-98" type="qcurve" smooth="yes"/>
      <point x="0" y="-127"/>
      <point x="0" y="-169" type="qcurve" smooth="yes"/>
      <point x="0" y="-191"/>
      <point x="14" y="-206" type="qcurve" smooth="yes"/>
      <point x="29" y="-222"/>
      <point x="49" y="-222" type="qcurve" smooth="yes"/>
    </contour>
    <contour>
      <point x="113" y="28"/>
      <point x="84" y="57" type="qcurve" smooth="yes"/>
      <point x="55" y="86"/>
      <point x="55" y="135" type="qcurve" smooth="yes"/>
      <point x="55" y="156"/>
      <point x="72" y="170" type="qcurve" smooth="yes"/>
      <point x="89" y="185"/>
      <point x="113" y="185" type="qcurve" smooth="yes"/>
      <point x="282" y="185" type="line"/>
      <point x="282" y="138" type="line" smooth="yes"/>
      <point x="282" y="92"/>
      <point x="247" y="60" type="qcurve" smooth="yes"/>
      <point x="212" y="28"/>
      <point x="162" y="28" type="qcurve" smooth="yes"/>
    </contour>
    <contour>
      <point x="174" y="370" type="line"/>
      <point x="282" y="370" type="line"/>
      <point x="282" y="215" type="line"/>
      <point x="174" y="215" type="line"/>
    </contour>
  </outline>
</glyph>
<glyph name="uni0BAF" format="1">
  <advance width="683"/>
  <unicode hex="0BAF"/>
  <outline>
    <contour>
      <point x="613" y="0" type="line"/>
      <point x="613" y="400" type="line"/>
      <point x="538" y="400" type="line"/>
      <point x="538" y="30" type="line"/>
      <point x="319" y="30" type="line"/>
      <point x="319" y="400" type="line"/>
      <point x="244" y="400" type="line"/>
      <point x="244" y="112" type="line" smooth="yes"/>
      <point x="244" y="78"/>
      <point x="228" y="55" type="qcurve"/>
      <point x="213" y="31"/>
      <point x="191" y="31" type="qcurve" smooth="yes"/>
      <point x="169" y="31"/>
      <point x="154" y="55" type="qcurve" smooth="yes"/>
      <point x="139" y="79"/>
      <point x="139" y="113" type="qcurve" smooth="yes"/>
      <point x="139" y="400" type="line"/>
      <point x="64" y="400" type="line"/>
      <point x="64" y="119" type="line" smooth="yes"/>
      <point x="64" y="70"/>
      <point x="93" y="36" type="qcurve" smooth="yes"/>
      <point x="123" y="1"/>
      <point x="164" y="1" type="qcurve" smooth="yes"/>
      <point x="200" y="1"/>
      <point x="227" y="19" type="qcurve" smooth="yes"/>
      <point x="254" y="37"/>
      <point x="261" y="66" type="qcurve"/>
      <point x="261" y="0" type="line"/>
    </contour>
  </outline>
</glyph>
<glyph name="uni0BB0" format="1">
  <advance width="450"/>
  <unicode hex="0BB0"/>
  <outline>
    <contour>
      <point x="323" y="14" type="line"/>
      <point x="323" y="370" type="line"/>
      <point x="445" y="370" type="line"/>
      <point x="445" y="400" type="line"/>
      <point x="70" y="400" type="line"/>
      <point x="70" y="0" type="line"/>
      <point x="100" y="0" type="line"/>
      <point x="100" y="370" type="line"/>
      <point x="248" y="370" type="line"/>
      <point x="248" y="0" type="line"/>
      <point x="46" y="-142" type="line"/>
      <point x="63" y="-165" type="line"/>
    </contour>
  </outline>
</glyph>
<glyph name="uni0BB3" format="1">
  <advance width="805"/>
  <unicode hex="0BB3"/>
  <outline>
    <contour>
      <point x="259" y="-1"/>
      <point x="295" y="33" type="qcurve" smooth="yes"/>
      <point x="331" y="66"/>
      <point x="331" y="122" type="qcurve" smooth="yes"/>
      <point x="331" y="173"/>
      <point x="299" y="204" type="qcurve" smooth="yes"/>
      <point x="267" y="235"/>
      <point x="213" y="235" type="qcurve" smooth="yes"/>
      <point x="171" y="235"/>
      <point x="145" y="206" type="qcurve"/>
      <point x="120" y="176"/>
      <point x="120" y="127" type="qcurve" smooth="yes"/>
      <point x="120" y="97"/>
      <point x="125" y="74" type="qcurve"/>
      <point x="131" y="52"/>
      <point x="141" y="41" type="qcurve"/>
      <point x="108" y="53"/>
      <point x="87" y="89" type="qcurve" smooth="yes"/>
      <point x="67" y="124"/>
      <point x="67" y="170" type="qcurve" smooth="yes"/>
      <point x="67" y="252"/>
      <point x="124" y="309" type="qcurve" smooth="yes"/>
      <point x="180" y="367"/>
      <point x="260" y="367" type="qcurve" smooth="yes"/>
      <point x="307" y="367"/>
      <point x="348" y="331" type="qcurve" smooth="yes"/>
      <point x="389" y="296"/>
      <point x="409" y="238" type="qcurve"/>
      <point x="409" y="0" type="line"/>
      <point x="484" y="0" type="line"/>
      <point x="484" y="367" type="line"/>
      <point x="630" y="367" type="line"/>
      <point x="630" y="0" type="line"/>
      <point x="705" y="0" type="line"/>
      <point x="705" y="367" type="line"/>
      <point x="799" y="367" type="line"/>
      <point x="799" y="400" type="line"/>
      <point x="431" y="400" type="line"/>
      <point x="431" y="329" type="line"/>
      <point x="406" y="361"/>
      <point x="361" y="379" type="qcurve" smooth="yes"/>
      <point x="316" y="397"/>
      <point x="260" y="397" type="qcurve" smooth="yes"/>
      <point x="168" y="397"/>
      <point x="102" y="330" type="qcurve" smooth="yes"/>
      <point x="37" y="263"/>
      <point x="37" y="168" type="qcurve" smooth="yes"/>
      <point x="37" y="98"/>
      <point x="84" y="48" type="qcurve" smooth="yes"/>
      <point x="132" y="-1"/>
      <point x="199" y="-1" type="qcurve" smooth="yes"/>
    </contour>
    <contour>
      <point x="180" y="44"/>
      <point x="165" y="66" type="qcurve" smooth="yes"/>
      <point x="150" y="87"/>
      <point x="150" y="118" type="qcurve" smooth="yes"/>
      <point x="150" y="148"/>
      <point x="166" y="169" type="qcurve" smooth="yes"/>
      <point x="181" y="190"/>
      <point x="203" y="190" type="qcurve" smooth="yes"/>
      <point x="225" y="190"/>
      <point x="240" y="169" type="qcurve" smooth="yes"/>
      <point x="256" y="148"/>
      <point x="256" y="119" type="qcurve" smooth="yes"/>
      <point x="256" y="88"/>
      <point x="240" y="66" type="qcurve" smooth="yes"/>
      <point x="224" y="44"/>
      <point x="202" y="44" type="qcurve" smooth="yes"/>
    </contour>
  </outline>
</glyph>
<glyph name="uni0BB4" format="1">
  <advance width="680"/>
  <unicode hex="0BB4"/>
  <outline>
    <contour>
      <point x="259" y="-280"/>
      <point x="307" y="-252" type="qcurve" smooth="yes"/>
      <point x="356" y="-224"/>
      <point x="356" y="-185" type="qcurve" smooth="yes"/>
      <point x="356" y="-150"/>
      <point x="376" y="-126" type="qcurve" smooth="yes"/>
      <point x="396" y="-101"/>
      <point x="425" y="-101" type="qcurve" smooth="yes"/>
      <point x="533" y="-101" type="line"/>
      <point x="533" y="-71" type="line"/>
      <point x="449" y="-71" type="line" smooth="yes"/>
      <point x="431" y="-71"/>
      <point x="418" y="-50" type="qcurve" smooth="yes"/>
      <point x="405" y="-29"/>
      <point x="405" y="0" type="qcurve"/>
      <point x="514" y="0" type="line" smooth="yes"/>
      <point x="569" y="0"/>
      <point x="603" y="53" type="qcurve" smooth="yes"/>
      <point x="636" y="105"/>
      <point x="636" y="193" type="qcurve" smooth="yes"/>
      <point x="636" y="277"/>
      <point x="589" y="337" type="qcurve" smooth="yes"/>
      <point x="543" y="396"/>
      <point x="477" y="396" type="qcurve" smooth="yes"/>
      <point x="417" y="396"/>
      <point x="374" y="358" type="qcurve" smooth="yes"/>
      <point x="331" y="320"/>
      <point x="331" y="267" type="qcurve" smooth="yes"/>
      <point x="331" y="30" type="line"/>
      <point x="145" y="30" type="line"/>
      <point x="145" y="400" type="line"/>
      <point x="70" y="400" type="line"/>
      <point x="70" y="0" type="line"/>
      <point x="331" y="0" type="line"/>
      <point x="331" y="-28"/>
      <point x="348" y="-48" type="qcurve" smooth="yes"/>
      <point x="365" y="-67"/>
      <point x="390" y="-71" type="qcurve"/>
      <point x="345" y="-71"/>
      <point x="314" y="-97" type="qcurve" smooth="yes"/>
      <point x="281" y="-123"/>
      <point x="281" y="-160" type="qcurve" smooth="yes"/>
      <point x="281" y="-197"/>
      <point x="254" y="-224" type="qcurve" smooth="yes"/>
      <point x="227" y="-250"/>
      <point x="189" y="-250" type="qcurve" smooth="yes"/>
      <point x="144" y="-250"/>
      <point x="112" y="-228" type="qcurve" smooth="yes"/>
      <point x="80" y="-205"/>
      <point x="80" y="-174" type="qcurve" smooth="yes"/>
      <point x="80" y="-145"/>
      <point x="101" y="-125" type="qcurve" smooth="yes"/>
      <point x="122" y="-105"/>
      <point x="152" y="-105" type="qcurve"/>
      <point x="147" y="-108"/>
      <point x="144" y="-114" type="qcurve"/>
      <point x="142" y="-120"/>
      <point x="143" y="-126" type="qcurve"/>
      <point x="143" y="-141"/>
      <point x="154" y="-152" type="qcurve" smooth="yes"/>
      <point x="165" y="-163"/>
      <point x="180" y="-163" type="qcurve" smooth="yes"/>
      <point x="196" y="-163"/>
      <point x="207" y="-151" type="qcurve"/>
      <point x="218" y="-138"/>
      <point x="218" y="-121" type="qcurve" smooth="yes"/>
      <point x="218" y="-100"/>
      <point x="204" y="-86" type="qcurve" smooth="yes"/>
      <point x="189" y="-71"/>
      <point x="169" y="-71" type="qcurve" smooth="yes"/>
      <point x="120" y="-71"/>
      <point x="85" y="-101" type="qcurve" smooth="yes"/>
      <point x="50" y="-131"/>
      <point x="50" y="-173" type="qcurve" smooth="yes"/>
      <point x="50" y="-222"/>
      <point x="88" y="-251" type="qcurve" smooth="yes"/>
      <point x="126" y="-280"/>
      <point x="190" y="-280" type="qcurve" smooth="yes"/>
    </contour>
    <contour>
      <point x="406" y="271" type="line" smooth="yes"/>
      <point x="406" y="310"/>
      <point x="429" y="338" type="qcurve" smooth="yes"/>
      <point x="452" y="366"/>
      <point x="484" y="366" type="qcurve" smooth="yes"/>
      <point x="535" y="366"/>
      <point x="570" y="316" type="qcurve" smooth="yes"/>
      <point x="606" y="266"/>
      <point x="606" y="195" type="qcurve" smooth="yes"/>
      <point x="606" y="127"/>
      <point x="579" y="78" type="qcurve" smooth="yes"/>
      <point x="553" y="30"/>
      <point x="515" y="30" type="qcurve" smooth="yes"/>
      <point x="406" y="30" type="line"/>
    </contour>
  </outline>
</glyph>
<glyph name="uni0BB5" format="1">
  <advance width="757"/>
  <unicode hex="0BB5"/>
  <outline>
    <contour>
      <point x="687" y="0" type="line"/>
      <point x="687" y="400" type="line"/>
      <point x="612" y="400" type="line"/>
      <point x="612" y="30" type="line"/>
      <point x="442" y="30" type="line"/>
      <point x="470" y="51"/>
      <point x="486" y="93" type="qcurve" smooth="yes"/>
      <point x="502" y="135"/>
      <point x="502" y="188" type="qcurve" smooth="yes"/>
      <point x="502" y="274"/>
      <point x="432" y="335" type="qcurve" smooth="yes"/>
      <point x="361" y="396"/>
      <point x="262" y="396" type="qcurve" smooth="yes"/>
      <point x="169" y="396"/>
      <point x="104" y="333" type="qcurve" smooth="yes"/>
      <point x="38" y="271"/>
      <point x="38" y="182" type="qcurve" smooth="yes"/>
      <point x="38" y="100"/>
      <point x="81" y="50" type="qcurve" smooth="yes"/>
      <point x="124" y="1"/>
      <point x="196" y="1" type="qcurve" smooth="yes"/>
      <point x="250" y="1"/>
      <point x="282" y="34" type="qcurve" smooth="yes"/>
      <point x="314" y="67"/>
      <point x="314" y="122" type="qcurve" smooth="yes"/>
      <point x="314" y="170"/>
      <point x="284" y="199" type="qcurve" smooth="yes"/>
      <point x="254" y="228"/>
      <point x="205" y="228" type="qcurve" smooth="yes"/>
      <point x="161" y="228"/>
      <point x="134" y="199" type="qcurve" smooth="yes"/>
      <point x="108" y="171"/>
      <point x="108" y="123" type="qcurve" smooth="yes"/>
      <point x="108" y="100"/>
      <point x="114" y="79" type="qcurve"/>
      <point x="121" y="59"/>
      <point x="133" y="44" type="qcurve"/>
      <point x="103" y="65"/>
      <point x="85" y="101" type="qcurve" smooth="yes"/>
      <point x="68" y="138"/>
      <point x="68" y="182" type="qcurve" smooth="yes"/>
      <point x="68" y="258"/>
      <point x="120" y="312" type="qcurve" smooth="yes"/>
      <point x="173" y="366"/>
      <point x="247" y="366" type="qcurve" smooth="yes"/>
      <point x="322" y="366"/>
      <point x="374" y="316" type="qcurve" smooth="yes"/>
      <point x="427" y="266"/>
      <point x="427" y="196" type="qcurve" smooth="yes"/>
      <point x="427" y="137"/>
      <point x="405" y="91" type="qcurve" smooth="yes"/>
      <point x="384" y="46"/>
      <point x="347" y="27" type="qcurve"/>
      <point x="347" y="0" type="line"/>
    </contour>
    <contour>
      <point x="167" y="31"/>
      <point x="153" y="57" type="qcurve" smooth="yes"/>
      <point x="138" y="83"/>
      <point x="138" y="120" type="qcurve" smooth="yes"/>
      <point x="138" y="152"/>
      <point x="154" y="175" type="qcurve" smooth="yes"/>
      <point x="169" y="198"/>
      <point x="191" y="198" type="qcurve" smooth="yes"/>
      <point x="211" y="198"/>
      <point x="225" y="175" type="qcurve" smooth="yes"/>
      <point x="239" y="152"/>
      <point x="239" y="119" type="qcurve" smooth="yes"/>
      <point x="239" y="83"/>
      <point x="224" y="57" type="qcurve" smooth="yes"/>
      <point x="209" y="31"/>
      <point x="188" y="31" type="qcurve" smooth="yes"/>
    </contour>
  </outline>
</glyph>
<glyph name="uni0BB6" format="1">
  <advance width="731"/>
  <unicode hex="0BB6"/>
  <outline>
    <contour>
      <point x="235" y="0"/>
      <point x="272" y="35" type="qcurve" smooth="yes"/>
      <point x="309" y="69"/>
      <point x="309" y="118" type="qcurve" smooth="yes"/>
      <point x="309" y="370" type="line"/>
      <point x="422" y="370" type="line"/>
      <point x="422" y="116" type="line" smooth="yes"/>
      <point x="422" y="68"/>
      <point x="457" y="34" type="qcurve" smooth="yes"/>
      <point x="492" y="0"/>
      <point x="541" y="0" type="qcurve" smooth="yes"/>
      <point x="594" y="0"/>
      <point x="631" y="34" type="qcurve" smooth="yes"/>
      <point x="668" y="68"/>
      <point x="668" y="116" type="qcurve" smooth="yes"/>
      <point x="668" y="400" type="line"/>
      <point x="234" y="400" type="line"/>
      <point x="234" y="115" type="line" smooth="yes"/>
      <point x="234" y="87"/>
      <point x="213" y="67" type="qcurve" smooth="yes"/>
      <point x="192" y="47"/>
      <point x="163" y="47" type="qcurve" smooth="yes"/>
      <point x="134" y="47"/>
      <point x="114" y="67" type="qcurve" smooth="yes"/>
      <point x="93" y="87"/>
      <point x="93" y="115" type="qcurve" smooth="yes"/>
      <point x="93" y="400" type="line"/>
      <point x="63" y="400" type="line"/>
      <point x="63" y="115" type="line" smooth="yes"/>
      <point x="63" y="67"/>
      <point x="98" y="34" type="qcurve" smooth="yes"/>
      <point x="133" y="0"/>
      <point x="183" y="0" type="qcurve" smooth="yes"/>
    </contour>
    <contour>
      <point x="493" y="47"/>
      <point x="473" y="67" type="qcurve" smooth="yes"/>
      <point x="452" y="87"/>
      <point x="452" y="116" type="qcurve" smooth="yes"/>
      <point x="452" y="370" type="line"/>
      <point x="593" y="370" type="line"/>
      <point x="593" y="116" type="line" smooth="yes"/>
      <point x="593" y="87"/>
      <point x="572" y="67" type="qcurve" smooth="yes"/>
      <point x="551" y="47"/>
      <point x="522" y="47" type="qcurve" smooth="yes"/>
    </contour>
  </outline>
</glyph>
<glyph name="uni0BB7" format="1">
  <advance width="999"/>
  <unicode hex="0BB7"/>
  <outline>
    <contour>
      <point x="766" y="-242" type="line"/>
      <point x="766" y="0" type="line"/>
      <point x="946" y="0" type="line"/>
      <point x="946" y="304" type="line"/>
      <point x="932" y="304" type="line"/>
      <point x="907" y="253"/>
      <point x="862" y="223" type="qcurve" smooth="yes"/>
      <point x="817" y="193"/>
      <point x="766" y="193" type="qcurve"/>
      <point x="766" y="304" type="line" smooth="yes"/>
      <point x="766" y="339"/>
      <point x="739" y="364" type="qcurve" smooth="yes"/>
      <point x="713" y="389"/>
      <point x="675" y="389" type="qcurve" smooth="yes"/>
      <point x="625" y="389"/>
      <point x="594" y="360" type="qcurve" smooth="yes"/>
      <point x="564" y="330"/>
      <point x="564" y="281" type="qcurve" smooth="yes"/>
      <point x="564" y="228"/>
      <point x="599" y="196" type="qcurve" smooth="yes"/>
      <point x="633" y="164"/>
      <point x="691" y="164" type="qcurve"/>
      <point x="691" y="30" type="line"/>
      <point x="443" y="30" type="line"/>
      <point x="473" y="52"/>
      <point x="489" y="95" type="qcurve" smooth="yes"/>
      <point x="506" y="137"/>
      <point x="506" y="190" type="qcurve" smooth="yes"/>
      <point x="506" y="272"/>
      <point x="436" y="331" type="qcurve" smooth="yes"/>
      <point x="365" y="389"/>
      <point x="266" y="389" type="qcurve" smooth="yes"/>
      <point x="171" y="389"/>
      <point x="104" y="329" type="qcurve" smooth="yes"/>
      <point x="37" y="269"/>
      <point x="37" y="185" type="qcurve" smooth="yes"/>
      <point x="37" y="107"/>
      <point x="83" y="51" type="qcurve" smooth="yes"/>
      <point x="130" y="-4"/>
      <point x="195" y="-4" type="qcurve" smooth="yes"/>
      <point x="251" y="-4"/>
      <point x="284" y="30" type="qcurve" smooth="yes"/>
      <point x="318" y="65"/>
      <point x="318" y="122" type="qcurve" smooth="yes"/>
      <point x="318" y="175"/>
      <point x="289" y="206" type="qcurve" smooth="yes"/>
      <point x="260" y="238"/>
      <point x="212" y="238" type="qcurve" smooth="yes"/>
      <point x="167" y="238"/>
      <point x="139" y="205" type="qcurve" smooth="yes"/>
      <point x="112" y="172"/>
      <point x="112" y="118" type="qcurve" smooth="yes"/>
      <point x="112" y="97"/>
      <point x="118" y="78" type="qcurve"/>
      <point x="125" y="59"/>
      <point x="137" y="44" type="qcurve"/>
      <point x="104" y="66"/>
      <point x="86" y="103" type="qcurve" smooth="yes"/>
      <point x="67" y="139"/>
      <point x="67" y="182" type="qcurve" smooth="yes"/>
      <point x="67" y="255"/>
      <point x="125" y="307" type="qcurve" smooth="yes"/>
      <point x="182" y="359"/>
      <point x="264" y="359" type="qcurve" smooth="yes"/>
      <point x="333" y="359"/>
      <point x="382" y="311" type="qcurve" smooth="yes"/>
      <point x="431" y="264"/>
      <point x="431" y="196" type="qcurve" smooth="yes"/>
      <point x="431" y="139"/>
      <point x="410" y="94" type="qcurve" smooth="yes"/>
      <point x="388" y="48"/>
      <point x="351" y="27" type="qcurve"/>
      <point x="351" y="0" type="line"/>
      <point x="691" y="0" type="line"/>
      <point x="691" y="-242" type="line"/>
    </contour>
    <contour>
      <point x="171" y="51"/>
      <point x="157" y="71" type="qcurve" smooth="yes"/>
      <point x="142" y="91"/>
      <point x="142" y="119" type="qcurve" smooth="yes"/>
      <point x="142" y="148"/>
      <point x="157" y="168" type="qcurve" smooth="yes"/>
      <point x="171" y="188"/>
      <point x="192" y="188" type="qcurve" smooth="yes"/>
      <point x="213" y="188"/>
      <point x="228" y="168" type="qcurve" smooth="yes"/>
      <point x="243" y="148"/>
      <point x="243" y="119" type="qcurve" smooth="yes"/>
      <point x="243" y="91"/>
      <point x="228" y="71" type="qcurve" smooth="yes"/>
      <point x="213" y="51"/>
      <point x="192" y="51" type="qcurve" smooth="yes"/>
    </contour>
    <contour>
      <point x="651" y="188"/>
      <point x="622" y="215" type="qcurve" smooth="yes"/>
      <point x="594" y="242"/>
      <point x="594" y="281" type="qcurve" smooth="yes"/>
      <point x="594" y="313"/>
      <point x="610" y="336" type="qcurve" smooth="yes"/>
      <point x="627" y="359"/>
      <point x="650" y="359" type="qcurve" smooth="yes"/>
      <point x="667" y="359"/>
      <point x="679" y="342" type="qcurve" smooth="yes"/>
      <point x="691" y="326"/>
      <point x="691" y="302" type="qcurve" smooth="yes"/>
      <point x="691" y="188" type="line"/>
    </contour>
    <contour>
      <point x="766" y="164" type="line"/>
      <point x="797" y="164"/>
      <point x="824" y="172" type="qcurve" smooth="yes"/>
      <point x="851" y="179"/>
      <point x="871" y="194" type="qcurve"/>
      <point x="871" y="30" type="line"/>
      <point x="766" y="30" type="line"/>
    </contour>
  </outline>
</glyph>
<glyph name="uni0BB8" format="1">
  <advance width="1038"/>
  <unicode hex="0BB8"/>
  <outline>
    <contour>
      <point x="255" y="-6"/>
      <point x="293" y="31" type="qcurve" smooth="yes"/>
      <point x="332" y="69"/>
      <point x="332" y="122" type="qcurve" smooth="yes"/>
      <point x="332" y="173"/>
      <point x="303" y="204" type="qcurve" smooth="yes"/>
      <point x="273" y="235"/>
      <point x="224" y="235" type="qcurve" smooth="yes"/>
      <point x="175" y="235"/>
      <point x="145" y="205" type="qcurve" smooth="yes"/>
      <point x="116" y="174"/>
      <point x="116" y="124" type="qcurve" smooth="yes"/>
      <point x="116" y="99"/>
      <point x="123" y="77" type="qcurve" smooth="yes"/>
      <point x="129" y="56"/>
      <point x="142" y="41" type="qcurve"/>
      <point x="109" y="53"/>
      <point x="88" y="89" type="qcurve" smooth="yes"/>
      <point x="68" y="124"/>
      <point x="68" y="170" type="qcurve" smooth="yes"/>
      <point x="68" y="253"/>
      <point x="126" y="312" type="qcurve" smooth="yes"/>
      <point x="183" y="371"/>
      <point x="265" y="371" type="qcurve" smooth="yes"/>
      <point x="332" y="371"/>
      <point x="379" y="331" type="qcurve" smooth="yes"/>
      <point x="426" y="291"/>
      <point x="426" y="235" type="qcurve" smooth="yes"/>
      <point x="426" y="0" type="line"/>
      <point x="501" y="0" type="line"/>
      <point x="501" y="269" type="line" smooth="yes"/>
      <point x="501" y="309"/>
      <point x="527" y="337" type="qcurve" smooth="yes"/>
      <point x="553" y="365"/>
      <point x="589" y="365" type="qcurve" smooth="yes"/>
      <point x="630" y="365"/>
      <point x="658" y="333" type="qcurve" smooth="yes"/>
      <point x="687" y="302"/>
      <point x="687" y="257" type="qcurve" smooth="yes"/>
      <point x="687" y="114" type="line" smooth="yes"/>
      <point x="687" y="60"/>
      <point x="725" y="27" type="qcurve" smooth="yes"/>
      <point x="762" y="-6"/>
      <point x="825" y="-6" type="qcurve" smooth="yes"/>
      <point x="899" y="-6"/>
      <point x="944" y="51" type="qcurve" smooth="yes"/>
      <point x="989" y="109"/>
      <point x="989" y="204" type="qcurve" smooth="yes"/>
      <point x="989" y="294"/>
      <point x="961" y="358" type="qcurve" smooth="yes"/>
      <point x="932" y="422"/>
      <point x="892" y="422" type="qcurve" smooth="yes"/>
      <point x="878" y="422"/>
      <point x="869" y="413" type="qcurve"/>
      <point x="859" y="404"/>
      <point x="859" y="392" type="qcurve" smooth="yes"/>
      <point x="859" y="384"/>
      <point x="863" y="376" type="qcurve"/>
      <point x="866" y="367"/>
      <point x="873" y="360" type="qcurve" smooth="yes"/>
      <point x="913" y="319"/>
      <point x="932" y="288" type="qcurve" smooth="yes"/>
      <point x="959" y="246"/>
      <point x="959" y="204" type="qcurve" smooth="yes"/>
      <point x="959" y="122"/>
      <point x="924" y="73" type="qcurve" smooth="yes"/>
      <point x="889" y="24"/>
      <point x="830" y="24" type="qcurve" smooth="yes"/>
      <point x="802" y="24"/>
      <point x="782" y="51" type="qcurve" smooth="yes"/>
      <point x="762" y="78"/>
      <point x="762" y="117" type="qcurve" smooth="yes"/>
      <point x="762" y="256" type="line" smooth="yes"/>
      <point x="762" y="314"/>
      <point x="714" y="354" type="qcurve" smooth="yes"/>
      <point x="667" y="395"/>
      <point x="599" y="395" type="qcurve" smooth="yes"/>
      <point x="554" y="395"/>
      <point x="520" y="370" type="qcurve" smooth="yes"/>
      <point x="485" y="345"/>
      <point x="475" y="305" type="qcurve"/>
      <point x="454" y="349"/>
      <point x="397" y="375" type="qcurve" smooth="yes"/>
      <point x="340" y="401"/>
      <point x="266" y="401" type="qcurve" smooth="yes"/>
      <point x="172" y="401"/>
      <point x="105" y="333" type="qcurve" smooth="yes"/>
      <point x="38" y="265"/>
      <point x="38" y="168" type="qcurve" smooth="yes"/>
      <point x="38" y="96"/>
      <point x="85" y="45" type="qcurve" smooth="yes"/>
      <point x="133" y="-6"/>
      <point x="200" y="-6" type="qcurve" smooth="yes"/>
    </contour>
    <contour>
      <point x="178" y="39"/>
      <point x="162" y="62" type="qcurve" smooth="yes"/>
      <point x="146" y="86"/>
      <point x="146" y="119" type="qcurve" smooth="yes"/>
      <point x="146" y="148"/>
      <point x="162" y="169" type="qcurve" smooth="yes"/>
      <point x="178" y="190"/>
      <point x="201" y="190" type="qcurve" smooth="yes"/>
      <point x="224" y="190"/>
      <point x="241" y="169" type="qcurve" smooth="yes"/>
      <point x="257" y="148"/>
      <point x="257" y="119" type="qcurve" smooth="yes"/>
      <point x="257" y="86"/>
      <point x="241" y="62" type="qcurve"/>
      <point x="224" y="39"/>
      <point x="201" y="39" type="qcurve" smooth="yes"/>
    </contour>
  </outline>
</glyph>
<glyph name="uni0BB9" format="1">
  <advance width="1162"/>
  <unicode hex="0BB9"/>
  <outline>
    <contour>
      <point x="106" y="-220"/>
      <point x="120" y="-209" type="qcurve"/>
      <point x="133" y="-197"/>
      <point x="133" y="-181" type="qcurve" smooth="yes"/>
      <point x="133" y="-162"/>
      <point x="121" y="-148" type="qcurve" smooth="yes"/>
      <point x="110" y="-135"/>
      <point x="93" y="-135" type="qcurve"/>
      <point x="68" y="-139" type="line"/>
      <point x="68" y="-120"/>
      <point x="89" y="-107" type="qcurve" smooth="yes"/>
      <point x="111" y="-94"/>
      <point x="141" y="-94" type="qcurve" smooth="yes"/>
      <point x="877" y="-94" type="line" smooth="yes"/>
      <point x="976" y="-94"/>
      <point x="1045" y="-16" type="qcurve" smooth="yes"/>
      <point x="1115" y="62"/>
      <point x="1115" y="172" type="qcurve" smooth="yes"/>
      <point x="1115" y="282"/>
      <point x="1070" y="338" type="qcurve" smooth="yes"/>
      <point x="1026" y="394"/>
      <point x="938" y="394" type="qcurve" smooth="yes"/>
      <point x="901" y="394"/>
      <point x="872" y="377" type="qcurve" smooth="yes"/>
      <point x="843" y="359"/>
      <point x="834" y="331" type="qcurve"/>
      <point x="824" y="359"/>
      <point x="795" y="377" type="qcurve" smooth="yes"/>
      <point x="766" y="394"/>
      <point x="729" y="394" type="qcurve" smooth="yes"/>
      <point x="691" y="394"/>
      <point x="664" y="364" type="qcurve" smooth="yes"/>
      <point x="637" y="334"/>
      <point x="637" y="292" type="qcurve" smooth="yes"/>
      <point x="637" y="30" type="line"/>
      <point x="440" y="30" type="line"/>
      <point x="470" y="52"/>
      <point x="486" y="95" type="qcurve" smooth="yes"/>
      <point x="503" y="137"/>
      <point x="503" y="190" type="qcurve" smooth="yes"/>
      <point x="503" y="277"/>
      <point x="433" y="339" type="qcurve" smooth="yes"/>
      <point x="362" y="401"/>
      <point x="263" y="401" type="qcurve" smooth="yes"/>
      <point x="170" y="401"/>
      <point x="104" y="336" type="qcurve" smooth="yes"/>
      <point x="38" y="272"/>
      <point x="38" y="180" type="qcurve" smooth="yes"/>
      <point x="38" y="104"/>
      <point x="83" y="50" type="qcurve" smooth="yes"/>
      <point x="128" y="-4"/>
      <point x="192" y="-4" type="qcurve" smooth="yes"/>
      <point x="248" y="-4"/>
      <point x="281" y="30" type="qcurve" smooth="yes"/>
      <point x="315" y="65"/>
      <point x="315" y="122" type="qcurve" smooth="yes"/>
      <point x="315" y="170"/>
      <point x="286" y="199" type="qcurve" smooth="yes"/>
      <point x="257" y="228"/>
      <point x="209" y="228" type="qcurve" smooth="yes"/>
      <point x="164" y="228"/>
      <point x="136" y="199" type="qcurve" smooth="yes"/>
      <point x="109" y="171"/>
      <point x="109" y="123" type="qcurve" smooth="yes"/>
      <point x="109" y="97"/>
      <point x="115" y="77" type="qcurve" smooth="yes"/>
      <point x="122" y="56"/>
      <point x="134" y="44" type="qcurve"/>
      <point x="103" y="65"/>
      <point x="86" y="102" type="qcurve" smooth="yes"/>
      <point x="68" y="138"/>
      <point x="68" y="182" type="qcurve" smooth="yes"/>
      <point x="68" y="260"/>
      <point x="125" y="316" type="qcurve" smooth="yes"/>
      <point x="181" y="371"/>
      <point x="261" y="371" type="qcurve" smooth="yes"/>
      <point x="330" y="371"/>
      <point x="379" y="320" type="qcurve" smooth="yes"/>
      <point x="428" y="268"/>
      <point x="428" y="196" type="qcurve" smooth="yes"/>
      <point x="428" y="139"/>
      <point x="407" y="94" type="qcurve" smooth="yes"/>
      <point x="385" y="48"/>
      <point x="348" y="27" type="qcurve"/>
      <point x="348" y="0" type="line"/>
      <point x="667" y="0" type="line"/>
      <point x="667" y="294" type="line" smooth="yes"/>
      <point x="667" y="323"/>
      <point x="683" y="343" type="qcurve" smooth="yes"/>
      <point x="700" y="364"/>
      <point x="723" y="364" type="qcurve" smooth="yes"/>
      <point x="745" y="364"/>
      <point x="761" y="344" type="qcurve" smooth="yes"/>
      <point x="777" y="324"/>
      <point x="777" y="295" type="qcurve" smooth="yes"/>
      <point x="777" y="0" type="line"/>
      <point x="852" y="0" type="line"/>
      <point x="852" y="269" type="line" smooth="yes"/>
      <point x="852" y="308"/>
      <point x="875" y="336" type="qcurve" smooth="yes"/>
      <point x="898" y="364"/>
      <point x="930" y="364" type="qcurve" smooth="yes"/>
      <point x="980" y="364"/>
      <point x="1010" y="311" type="qcurve" smooth="yes"/>
      <point x="1040" y="258"/>
      <point x="1040" y="170" type="qcurve" smooth="yes"/>
      <point x="1040" y="73"/>
      <point x="991" y="5" type="qcurve" smooth="yes"/>
      <point x="942" y="-64"/>
      <point x="872" y="-64" type="qcurve" smooth="yes"/>
      <point x="140" y="-64" type="line" smooth="yes"/>
      <point x="98" y="-64"/>
      <point x="68" y="-93" type="qcurve" smooth="yes"/>
      <point x="38" y="-123"/>
      <point x="38" y="-164" type="qcurve" smooth="yes"/>
      <point x="38" y="-187"/>
      <point x="52" y="-204" type="qcurve"/>
      <point x="67" y="-220"/>
      <point x="87" y="-220" type="qcurve" smooth="yes"/>
    </contour>
    <contour>
      <point x="168" y="46"/>
      <point x="154" y="66" type="qcurve" smooth="yes"/>
      <point x="139" y="86"/>
      <point x="139" y="114" type="qcurve" smooth="yes"/>
      <point x="139" y="143"/>
      <point x="155" y="163" type="qcurve" smooth="yes"/>
      <point x="170" y="183"/>
      <point x="192" y="183" type="qcurve" smooth="yes"/>
      <point x="212" y="183"/>
      <point x="226" y="163" type="qcurve" smooth="yes"/>
      <point x="240" y="143"/>
      <point x="240" y="114" type="qcurve" smooth="yes"/>
      <point x="240" y="86"/>
      <point x="225" y="66" type="qcurve" smooth="yes"/>
      <point x="210" y="46"/>
      <point x="189" y="46" type="qcurve" smooth="yes"/>
    </contour>
  </outline>
</glyph>
<glyph name="uni0BC1" format="1">
  <advance width="299"/>
  <unicode hex="0BC1"/>
  <outline>
    <contour>
      <point x="-135" y="370" type="line"/>
      <point x="-135" y="400" type="line"/>
      <point x="274" y="400" type="line"/>
      <point x="274" y="320" type="line" smooth="yes"/>
      <point x="274" y="281"/>
      <point x="243" y="254" type="qcurve" smooth="yes"/>
      <point x="211" y="226"/>
      <point x="167" y="226" type="qcurve" smooth="yes"/>
      <point x="124" y="226"/>
      <point x="93" y="254" type="qcurve" smooth="yes"/>
      <point x="63" y="281"/>
      <point x="63" y="320" type="qcurve" smooth="yes"/>
      <point x="63" y="370" type="line"/>
      <point x="-135" y="370" type="line"/>
    </contour>
    <contour>
      <point x="199" y="321" type="line"/>
      <point x="199" y="370" type="line"/>
      <point x="93" y="370" type="line"/>
      <point x="93" y="320" type="line" smooth="yes"/>
      <point x="93" y="293"/>
      <point x="109" y="275" type="qcurve" smooth="yes"/>
      <point x="126" y="256"/>
      <point x="149" y="256" type="qcurve" smooth="yes"/>
      <point x="170" y="256"/>
      <point x="184" y="275" type="qcurve" smooth="yes"/>
      <point x="199" y="294"/>
      <point x="199" y="321" type="qcurve"/>
    </contour>
  </outline>
</glyph>
<glyph name="uni0BC8" format="1">
  <advance width="862"/>
  <unicode hex="0BC8"/>
  <outline>
    <contour>
      <point x="822" y="203" type="line"/>
      <point x="822" y="138"/>
      <point x="796" y="84" type="qcurve" smooth="yes"/>
      <point x="771" y="31"/>
      <point x="726" y="3" type="qcurve"/>
      <point x="697" y="25" type="line"/>
      <point x="747" y="96"/>
      <point x="747" y="202" type="qcurve" smooth="yes"/>
      <point x="747" y="270"/>
      <point x="706" y="319" type="qcurve" smooth="yes"/>
      <point x="666" y="367"/>
      <point x="608" y="367" type="qcurve" smooth="yes"/>
      <point x="550" y="367"/>
      <point x="506" y="331" type="qcurve"/>
      <point x="550" y="291"/>
      <point x="575" y="240" type="qcurve" smooth="yes"/>
      <point x="599" y="190"/>
      <point x="599" y="137" type="qcurve" smooth="yes"/>
      <point x="599" y="73"/>
      <point x="569" y="35" type="qcurve" smooth="yes"/>
      <point x="539" y="-3"/>
      <point x="489" y="-3" type="qcurve" smooth="yes"/>
      <point x="440" y="-3"/>
      <point x="410" y="35" type="qcurve" smooth="yes"/>
      <point x="380" y="73"/>
      <point x="380" y="137" type="qcurve" smooth="yes"/>
      <point x="380" y="182"/>
      <point x="398" y="228" type="qcurve" smooth="yes"/>
      <point x="416" y="274"/>
      <point x="450" y="316" type="qcurve"/>
      <point x="422" y="341"/>
      <point x="378" y="354" type="qcurve" smooth="yes"/>
      <point x="334" y="367"/>
      <point x="281" y="367" type="qcurve" smooth="yes"/>
      <point x="192" y="367"/>
      <point x="130" y="310" type="qcurve" smooth="yes"/>
      <point x="67" y="253"/>
      <point x="67" y="172" type="qcurve" smooth="yes"/>
      <point x="67" y="121"/>
      <point x="88" y="83" type="qcurve" smooth="yes"/>
      <point x="108" y="45"/>
      <point x="141" y="35" type="qcurve"/>
      <point x="126" y="45"/>
      <point x="117" y="69" type="qcurve" smooth="yes"/>
      <point x="108" y="92"/>
      <point x="108" y="122" type="qcurve" smooth="yes"/>
      <point x="108" y="171"/>
      <point x="136" y="200" type="qcurve" smooth="yes"/>
      <point x="165" y="229"/>
      <point x="212" y="229" type="qcurve" smooth="yes"/>
      <point x="260" y="229"/>
      <point x="288" y="199" type="qcurve" smooth="yes"/>
      <point x="317" y="169"/>
      <point x="317" y="120" type="qcurve" smooth="yes"/>
      <point x="317" y="64"/>
      <point x="281" y="31" type="qcurve" smooth="yes"/>
      <point x="245" y="-3"/>
      <point x="185" y="-3" type="qcurve" smooth="yes"/>
      <point x="124" y="-3"/>
      <point x="80" y="48" type="qcurve" smooth="yes"/>
      <point x="37" y="98"/>
      <point x="37" y="170" type="qcurve" smooth="yes"/>
      <point x="37" y="264"/>
      <point x="113" y="331" type="qcurve" smooth="yes"/>
      <point x="188" y="397"/>
      <point x="295" y="397" type="qcurve" smooth="yes"/>
      <point x="356" y="397"/>
      <point x="404" y="385" type="qcurve" smooth="yes"/>
      <point x="452" y="372"/>
      <point x="482" y="349" type="qcurve"/>
      <point x="504" y="372"/>
      <point x="539" y="385" type="qcurve" smooth="yes"/>
      <point x="573" y="397"/>
      <point x="614" y="397" type="qcurve" smooth="yes"/>
      <point x="700" y="397"/>
      <point x="761" y="340" type="qcurve" smooth="yes"/>
      <point x="822" y="283"/>
      <point x="822" y="203" type="qcurve"/>
    </contour>
    <contour>
      <point x="524" y="137" type="line"/>
      <point x="524" y="186"/>
      <point x="510" y="226" type="qcurve" smooth="yes"/>
      <point x="495" y="267"/>
      <point x="469" y="292" type="qcurve"/>
      <point x="440" y="259"/>
      <point x="425" y="219" type="qcurve" smooth="yes"/>
      <point x="410" y="179"/>
      <point x="410" y="137" type="qcurve" smooth="yes"/>
      <point x="410" y="87"/>
      <point x="426" y="57" type="qcurve" smooth="yes"/>
      <point x="443" y="27"/>
      <point x="470" y="27" type="qcurve" smooth="yes"/>
      <point x="495" y="27"/>
      <point x="509" y="57" type="qcurve" smooth="yes"/>
      <point x="524" y="87"/>
      <point x="524" y="137" type="qcurve"/>
    </contour>
    <contour>
      <point x="242" y="120" type="line"/>
      <point x="242" y="153"/>
      <point x="226" y="176" type="qcurve" smooth="yes"/>
      <point x="211" y="199"/>
      <point x="189" y="199" type="qcurve" smooth="yes"/>
      <point x="168" y="199"/>
      <point x="153" y="176" type="qcurve" smooth="yes"/>
      <point x="138" y="153"/>
      <point x="138" y="120" type="qcurve" smooth="yes"/>
      <point x="138" y="88"/>
      <point x="153" y="65" type="qcurve" smooth="yes"/>
      <point x="168" y="42"/>
      <point x="189" y="42" type="qcurve" smooth="yes"/>
      <point x="211" y="42"/>
      <point x="226" y="65" type="qcurve" smooth="yes"/>
      <point x="242" y="88"/>
      <point x="242" y="120" type="qcurve"/>
    </contour>
  </outline>
</glyph>
<glyph name="uni0BCD" format="1">
  <advance width="256"/>
  <unicode hex="0BCD"/>
  <outline>
    <contour>
      <point x="195" y="598" type="line"/>
      <point x="195" y="573"/>
      <point x="175" y="555" type="qcurve" smooth="yes"/>
      <point x="156" y="537"/>
      <point x="128" y="537" type="qcurve" smooth="yes"/>
      <point x="101" y="537"/>
      <point x="81" y="555" type="qcurve" smooth="yes"/>
      <point x="62" y="573"/>
      <point x="62" y="598" type="qcurve" smooth="yes"/>
      <point x="62" y="623"/>
      <point x="81" y="640" type="qcurve" smooth="yes"/>
      <point x="101" y="658"/>
      <point x="128" y="658" type="qcurve" smooth="yes"/>
      <point x="156" y="658"/>
      <point x="175" y="640" type="qcurve" smooth="yes"/>
      <point x="195" y="623"/>
      <point x="195" y="598" type="qcurve"/>
    </contour>
  </outline>
</glyph>
<glyph name="uni0BE6" format="1">
  <advance width="448"/>
  <unicode hex="0BE6"/>
  <outline>
    <contour>
      <point x="398" y="200" type="line"/>
      <point x="398" y="107"/>
      <point x="350" y="52" type="qcurve" smooth="yes"/>
      <point x="302" y="-4"/>
      <point x="222" y="-4" type="qcurve" smooth="yes"/>
      <point x="144" y="-4"/>
      <point x="97" y="51" type="qcurve" smooth="yes"/>
      <point x="50" y="107"/>
      <point x="50" y="199" type="qcurve" smooth="yes"/>
      <point x="50" y="292"/>
      <point x="97" y="349" type="qcurve" smooth="yes"/>
      <point x="144" y="405"/>
      <point x="222" y="405" type="qcurve" smooth="yes"/>
      <point x="302" y="405"/>
      <point x="350" y="349" type="qcurve" smooth="yes"/>
      <point x="398" y="293"/>
      <point x="398" y="200" type="qcurve"/>
    </contour>
    <contour>
      <point x="331" y="202" type="line"/>
      <point x="331" y="279"/>
      <point x="300" y="334" type="qcurve" smooth="yes"/>
      <point x="269" y="388"/>
      <point x="225" y="388" type="qcurve" smooth="yes"/>
      <point x="179" y="388"/>
      <point x="146" y="332" type="qcurve" smooth="yes"/>
      <point x="113" y="276"/>
      <point x="113" y="196" type="qcurve" smooth="yes"/>
      <point x="113" y="123"/>
      <point x="145" y="71" type="qcurve" smooth="yes"/>
      <point x="176" y="19"/>
      <point x="221" y="19" type="qcurve" smooth="yes"/>
      <point x="267" y="19"/>
      <point x="299" y="73" type="qcurve" smooth="yes"/>
      <point x="331" y="126"/>
      <point x="331" y="202" type="qcurve"/>
    </contour>
  </outline>
</glyph>
<glyph name="uni0BE7" format="1">
  <advance width="591"/>
  <unicode hex="0BE7"/>
  <outline>
    <contour>
      <point x="541" y="109" type="line"/>
      <point x="541" y="51"/>
      <point x="507" y="25" type="qcurve" smooth="yes"/>
      <point x="473" y="0"/>
      <point x="394" y="0" type="qcurve"/>
      <point x="394" y="30" type="line"/>
      <point x="434" y="30"/>
      <point x="450" y="49" type="qcurve" smooth="yes"/>
      <point x="466" y="69"/>
      <point x="466" y="118" type="qcurve" smooth="yes"/>
      <point x="466" y="151"/>
      <point x="456" y="168" type="qcurve" smooth="yes"/>
      <point x="447" y="185"/>
      <point x="428" y="185" type="qcurve" smooth="yes"/>
      <point x="382" y="185" type="line"/>
      <point x="382" y="131" type="line" smooth="yes"/>
      <point x="382" y="65"/>
      <point x="333" y="32" type="qcurve" smooth="yes"/>
      <point x="284" y="-2"/>
      <point x="187" y="-2" type="qcurve" smooth="yes"/>
      <point x="130" y="-2"/>
      <point x="90" y="38" type="qcurve" smooth="yes"/>
      <point x="50" y="78"/>
      <point x="50" y="134" type="qcurve" smooth="yes"/>
      <point x="50" y="171"/>
      <point x="76" y="193" type="qcurve" smooth="yes"/>
      <point x="102" y="215"/>
      <point x="145" y="215" type="qcurve" smooth="yes"/>
      <point x="169" y="215" type="line"/>
      <point x="169" y="400" type="line"/>
      <point x="516" y="400" type="line"/>
      <point x="516" y="370" type="line"/>
      <point x="382" y="370" type="line"/>
      <point x="382" y="215" type="line"/>
      <point x="461" y="215" type="line" smooth="yes"/>
      <point x="497" y="215"/>
      <point x="519" y="186" type="qcurve" smooth="yes"/>
      <point x="541" y="157"/>
      <point x="541" y="109" type="qcurve"/>
    </contour>
    <contour>
      <point x="307" y="215" type="line"/>
      <point x="307" y="370" type="line"/>
      <point x="199" y="370" type="line"/>
      <point x="199" y="215" type="line"/>
      <point x="307" y="215" type="line"/>
    </contour>
    <contour>
      <point x="307" y="138" type="line"/>
      <point x="307" y="185" type="line"/>
      <point x="138" y="185" type="line" smooth="yes"/>
      <point x="112" y="185"/>
      <point x="96" y="171" type="qcurve" smooth="yes"/>
      <point x="80" y="158"/>
      <point x="80" y="135" type="qcurve" smooth="yes"/>
      <point x="80" y="86"/>
      <point x="109" y="57" type="qcurve" smooth="yes"/>
      <point x="139" y="28"/>
      <point x="188" y="28" type="qcurve" smooth="yes"/>
      <point x="237" y="28"/>
      <point x="272" y="60" type="qcurve" smooth="yes"/>
      <point x="307" y="92"/>
      <point x="307" y="138" type="qcurve"/>
    </contour>
  </outline>
</glyph>
<glyph name="uni0BED" format="1">
  <advance width="742"/>
  <unicode hex="0BED"/>
  <outline>
    <contour>
      <point x="515" y="0" type="line"/>
      <point x="515" y="370" type="line"/>
      <point x="258" y="370" type="line" smooth="yes"/>
      <point x="184" y="370"/>
      <point x="132" y="314" type="qcurve" smooth="yes"/>
      <point x="80" y="259"/>
      <point x="80" y="180" type="qcurve" smooth="yes"/>
      <point x="80" y="130"/>
      <point x="98" y="93" type="qcurve" smooth="yes"/>
      <point x="116" y="56"/>
      <point x="145" y="44" type="qcurve"/>
      <point x="118" y="80"/>
      <point x="118" y="120" type="qcurve" smooth="yes"/>
      <point x="118" y="166"/>
      <point x="153" y="198" type="qcurve" smooth="yes"/>
      <point x="188" y="230"/>
      <point x="238" y="230" type="qcurve" smooth="yes"/>
      <point x="288" y="230"/>
      <point x="324" y="199" type="qcurve" smooth="yes"/>
      <point x="359" y="167"/>
      <point x="359" y="123" type="qcurve" smooth="yes"/>
      <point x="359" y="72"/>
      <point x="319" y="36" type="qcurve" smooth="yes"/>
      <point x="280" y="0"/>
      <point x="224" y="0" type="qcurve" smooth="yes"/>
      <point x="152" y="0"/>
      <point x="101" y="54" type="qcurve" smooth="yes"/>
      <point x="50" y="107"/>
      <point x="50" y="183" type="qcurve" smooth="yes"/>
      <point x="50" y="273"/>
      <point x="111" y="336" type="qcurve" smooth="yes"/>
      <point x="172" y="400"/>
      <point x="258" y="400" type="qcurve" smooth="yes"/>
      <point x="692" y="400" type="line"/>
      <point x="692" y="370" type="line"/>
      <point x="590" y="370" type="line"/>
      <point x="590" y="0" type="line"/>
      <point x="515" y="0" type="line"/>
    </contour>
    <contour>
      <point x="284" y="119" type="line"/>
      <point x="284" y="153"/>
      <point x="265" y="176" type="qcurve" smooth="yes"/>
      <point x="245" y="200"/>
      <point x="218" y="200" type="qcurve" smooth="yes"/>
      <point x="189" y="200"/>
      <point x="169" y="176" type="qcurve" smooth="yes"/>
      <point x="148" y="151"/>
      <point x="148" y="117" type="qcurve" smooth="yes"/>
      <point x="148" y="84"/>
      <point x="167" y="60" type="qcurve" smooth="yes"/>
      <point x="185" y="37"/>
      <point x="212" y="37" type="qcurve" smooth="yes"/>
      <point x="242" y="37"/>
      <point x="263" y="61" type="qcurve" smooth="yes"/>
      <point x="284" y="85"/>
      <point x="284" y="119" type="qcurve"/>
    </contour>
  </outline>
</glyph>
<glyph name="uni0BEE" format="1">
  <advance width="926"/>
  <unicode hex="0BEE"/>
  <outline>
    <contour>
      <point x="50" y="32" type="line"/>
      <point x="50" y="51"/>
      <point x="68" y="65" type="qcurve" smooth="yes"/>
      <point x="86" y="78"/>
      <point x="111" y="78" type="qcurve" smooth="yes"/>
      <point x="603" y="78" type="line"/>
      <point x="635" y="141"/>
      <point x="635" y="215" type="qcurve" smooth="yes"/>
      <point x="635" y="282"/>
      <point x="595" y="330" type="qcurve" smooth="yes"/>
      <point x="556" y="377"/>
      <point x="500" y="377" type="qcurve"/>
      <point x="528" y="360"/>
      <point x="545" y="332" type="qcurve" smooth="yes"/>
      <point x="561" y="304"/>
      <point x="561" y="272" type="qcurve" smooth="yes"/>
      <point x="561" y="225"/>
      <point x="518" y="191" type="qcurve" smooth="yes"/>
      <point x="475" y="158"/>
      <point x="414" y="158" type="qcurve" smooth="yes"/>
      <point x="362" y="158"/>
      <point x="326" y="192" type="qcurve" smooth="yes"/>
      <point x="289" y="225"/>
      <point x="289" y="273" type="qcurve" smooth="yes"/>
      <point x="289" y="334"/>
      <point x="348" y="370" type="qcurve" smooth="yes"/>
      <point x="408" y="407"/>
      <point x="506" y="407" type="qcurve" smooth="yes"/>
      <point x="590" y="407"/>
      <point x="650" y="349" type="qcurve" smooth="yes"/>
      <point x="710" y="291"/>
      <point x="710" y="209" type="qcurve" smooth="yes"/>
      <point x="710" y="137"/>
      <point x="681" y="78" type="qcurve"/>
      <point x="801" y="78" type="line"/>
      <point x="801" y="400" type="line"/>
      <point x="876" y="400" type="line"/>
      <point x="876" y="-134" type="line"/>
      <point x="801" y="-134" type="line"/>
      <point x="801" y="48" type="line"/>
      <point x="673" y="48" type="line"/>
      <point x="630" y="-30"/>
      <point x="538" y="-75" type="qcurve" smooth="yes"/>
      <point x="446" y="-120"/>
      <point x="330" y="-120" type="qcurve" smooth="yes"/>
      <point x="214" y="-120"/>
      <point x="132" y="-75" type="qcurve" smooth="yes"/>
      <point x="50" y="-31"/>
      <point x="50" y="32" type="qcurve"/>
    </contour>
    <contour>
      <point x="486" y="270" type="line"/>
      <point x="486" y="306"/>
      <point x="462" y="332" type="qcurve" smooth="yes"/>
      <point x="437" y="358"/>
      <point x="403" y="358" type="qcurve" smooth="yes"/>
      <point x="368" y="358"/>
      <point x="344" y="332" type="qcurve" smooth="yes"/>
      <point x="319" y="306"/>
      <point x="319" y="270" type="qcurve" smooth="yes"/>
      <point x="319" y="236"/>
      <point x="343" y="212" type="qcurve" smooth="yes"/>
      <point x="367" y="188"/>
      <point x="401" y="188" type="qcurve" smooth="yes"/>
      <point x="436" y="188"/>
      <point x="461" y="212" type="qcurve" smooth="yes"/>
      <point x="486" y="236"/>
      <point x="486" y="270" type="qcurve"/>
    </contour>
    <contour>
      <point x="588" y="48" type="line"/>
      <point x="113" y="48" type="line" smooth="yes"/>
      <point x="100" y="48"/>
      <point x="91" y="44" type="qcurve" smooth="yes"/>
      <point x="83" y="40"/>
      <point x="81" y="33" type="qcurve" smooth="yes"/>
      <point x="70" y="-14"/>
      <point x="140" y="-52" type="qcurve" smooth="yes"/>
      <point x="211" y="-90"/>
      <point x="309" y="-90" type="qcurve" smooth="yes"/>
      <point x="399" y="-90"/>
      <point x="473" y="-53" type="qcurve" smooth="yes"/>
      <point x="548" y="-16"/>
      <point x="588" y="48" type="qcurve"/>
    </contour>
  </outline>
</glyph>
<glyph name="uni0BF2" format="1">
  <advance width="695"/>
  <unicode hex="0BF2"/>
  <outline>
    <contour>
      <point x="24" y="127" type="line"/>
      <point x="25" y="162"/>
      <point x="50" y="186" type="qcurve" smooth="yes"/>
      <point x="75" y="210"/>
      <point x="110" y="210" type="qcurve" smooth="yes"/>
      <point x="132" y="210" type="line"/>
      <point x="132" y="400" type="line"/>
      <point x="488" y="400" type="line"/>
      <point x="488" y="370" type="line"/>
      <point x="329" y="370" type="line"/>
      <point x="329" y="210" type="line"/>
      <point x="580" y="210" type="line"/>
      <point x="580" y="180" type="line"/>
      <point x="510" y="180" type="line"/>
      <point x="510" y="107" type="line"/>
      <point x="516" y="110"/>
      <point x="530" y="112" type="qcurve" smooth="yes"/>
      <point x="544" y="114"/>
      <point x="564" y="114" type="qcurve" smooth="yes"/>
      <point x="612" y="114"/>
      <point x="647" y="84" type="qcurve" smooth="yes"/>
      <point x="681" y="53"/>
      <point x="681" y="10" type="qcurve" smooth="yes"/>
      <point x="681" y="-51"/>
      <point x="614" y="-94" type="qcurve" smooth="yes"/>
      <point x="547" y="-137"/>
      <point x="452" y="-137" type="qcurve" smooth="yes"/>
      <point x="167" y="-137" type="line" smooth="yes"/>
      <point x="141" y="-137"/>
      <point x="122" y="-144" type="qcurve" smooth="yes"/>
      <point x="103" y="-152"/>
      <point x="99" y="-164" type="qcurve"/>
      <point x="110" y="-160"/>
      <point x="120" y="-168" type="qcurve" smooth="yes"/>
      <point x="130" y="-176"/>
      <point x="130" y="-190" type="qcurve" smooth="yes"/>
      <point x="130" y="-201"/>
      <point x="120" y="-208" type="qcurve" smooth="yes"/>
      <point x="111" y="-216"/>
      <point x="97" y="-216" type="qcurve" smooth="yes"/>
      <point x="80" y="-216"/>
      <point x="67" y="-205" type="qcurve" smooth="yes"/>
      <point x="55" y="-193"/>
      <point x="55" y="-177" type="qcurve" smooth="yes"/>
      <point x="55" y="-148"/>
      <point x="88" y="-128" type="qcurve" smooth="yes"/>
      <point x="121" y="-107"/>
      <point x="167" y="-107" type="qcurve" smooth="yes"/>
      <point x="455" y="-107" type="line" smooth="yes"/>
      <point x="518" y="-107"/>
      <point x="562" y="-73" type="qcurve" smooth="yes"/>
      <point x="606" y="-38"/>
      <point x="606" y="10" type="qcurve" smooth="yes"/>
      <point x="606" y="41"/>
      <point x="590" y="62" type="qcurve" smooth="yes"/>
      <point x="575" y="84"/>
      <point x="553" y="84" type="qcurve" smooth="yes"/>
      <point x="527" y="84"/>
      <point x="510" y="74" type="qcurve"/>
      <point x="510" y="0" type="line"/>
      <point x="435" y="0" type="line"/>
      <point x="435" y="180" type="line"/>
      <point x="329" y="180" type="line"/>
      <point x="329" y="124" type="line" smooth="yes"/>
      <point x="330" y="73"/>
      <point x="287" y="36" type="qcurve" smooth="yes"/>
      <point x="243" y="0"/>
      <point x="182" y="0" type="qcurve" smooth="yes"/>
      <point x="117" y="0"/>
      <point x="70" y="37" type="qcurve" smooth="yes"/>
      <point x="24" y="74"/>
      <point x="24" y="127" type="qcurve"/>
    </contour>
    <contour>
      <point x="254" y="210" type="line"/>
      <point x="254" y="370" type="line"/>
      <point x="162" y="370" type="line"/>
      <point x="162" y="210" type="line"/>
      <point x="254" y="210" type="line"/>
    </contour>
    <contour>
      <point x="254" y="132" type="line"/>
      <point x="254" y="180" type="line"/>
      <point x="106" y="180" type="line" smooth="yes"/>
      <point x="84" y="180"/>
      <point x="69" y="164" type="qcurve" smooth="yes"/>
      <point x="54" y="147"/>
      <point x="54" y="124" type="qcurve" smooth="yes"/>
      <point x="54" y="91"/>
      <point x="75" y="65" type="qcurve" smooth="yes"/>
      <point x="97" y="39"/>
      <point x="130" y="31" type="qcurve" smooth="yes"/>
      <point x="178" y="20"/>
      <point x="216" y="51" type="qcurve" smooth="yes"/>
      <point x="254" y="82"/>
      <point x="254" y="132" type="qcurve"/>
    </contour>
  </outline>
</glyph>
<glyph name="uni0BF5" format="1">
  <advance width="1340"/>
  <unicode hex="0BF5"/>
  <outline>
    <contour>
      <point x="165" y="182" type="line"/>
      <point x="165" y="272"/>
      <point x="227" y="336" type="qcurve" smooth="yes"/>
      <point x="289" y="400"/>
      <point x="377" y="400" type="qcurve" smooth="yes"/>
      <point x="462" y="400"/>
      <point x="523" y="338" type="qcurve" smooth="yes"/>
      <point x="583" y="276"/>
      <point x="583" y="189" type="qcurve" smooth="yes"/>
      <point x="583" y="132"/>
      <point x="569" y="90" type="qcurve" smooth="yes"/>
      <point x="556" y="48"/>
      <point x="532" y="31" type="qcurve"/>
      <point x="686" y="31" type="line"/>
      <point x="686" y="400" type="line"/>
      <point x="1064" y="400" type="line"/>
      <point x="1064" y="370" type="line"/>
      <point x="936" y="370" type="line"/>
      <point x="936" y="205" type="line"/>
      <point x="964" y="222"/>
      <point x="1003" y="222" type="qcurve" smooth="yes"/>
      <point x="1059" y="222"/>
      <point x="1099" y="175" type="qcurve" smooth="yes"/>
      <point x="1139" y="128"/>
      <point x="1139" y="62" type="qcurve" smooth="yes"/>
      <point x="1139" y="-64"/>
      <point x="994" y="-139" type="qcurve" smooth="yes"/>
      <point x="849" y="-215"/>
      <point x="609" y="-215" type="qcurve" smooth="yes"/>
      <point x="356" y="-215"/>
      <point x="204" y="-96" type="qcurve" smooth="yes"/>
      <point x="52" y="23"/>
      <point x="52" y="220" type="qcurve" smooth="yes"/>
      <point x="52" y="405"/>
      <point x="224" y="516" type="qcurve" smooth="yes"/>
      <point x="396" y="627"/>
      <point x="681" y="627" type="qcurve" smooth="yes"/>
      <point x="897" y="627"/>
      <point x="1026" y="570" type="qcurve" smooth="yes"/>
      <point x="1156" y="513"/>
      <point x="1156" y="418" type="qcurve" smooth="yes"/>
      <point x="1156" y="333" type="line" smooth="yes"/>
      <point x="1156" y="316"/>
      <point x="1163" y="305" type="qcurve" smooth="yes"/>
      <point x="1171" y="293"/>
      <point x="1181" y="293" type="qcurve" smooth="yes"/>
      <point x="1214" y="293" type="line" smooth="yes"/>
      <point x="1226" y="293"/>
      <point x="1234" y="305" type="qcurve" smooth="yes"/>
      <point x="1242" y="318"/>
      <point x="1242" y="335" type="qcurve" smooth="yes"/>
      <point x="1242" y="400" type="line"/>
      <point x="1317" y="400" type="line"/>
      <point x="1317" y="335" type="line" smooth="yes"/>
      <point x="1317" y="305"/>
      <point x="1305" y="284" type="qcurve" smooth="yes"/>
      <point x="1294" y="263"/>
      <point x="1277" y="263" type="qcurve" smooth="yes"/>
      <point x="1177" y="263" type="line" smooth="yes"/>
      <point x="1156" y="263"/>
      <point x="1141" y="280" type="qcurve" smooth="yes"/>
      <point x="1126" y="297"/>
      <point x="1126" y="321" type="qcurve" smooth="yes"/>
      <point x="1126" y="418" type="line" smooth="yes"/>
      <point x="1126" y="499"/>
      <point x="1005" y="548" type="qcurve" smooth="yes"/>
      <point x="885" y="597"/>
      <point x="684" y="597" type="qcurve" smooth="yes"/>
      <point x="411" y="597"/>
      <point x="246" y="494" type="qcurve" smooth="yes"/>
      <point x="82" y="391"/>
      <point x="82" y="219" type="qcurve" smooth="yes"/>
      <point x="82" y="36"/>
      <point x="226" y="-75" type="qcurve" smooth="yes"/>
      <point x="370" y="-185"/>
      <point x="609" y="-185" type="qcurve" smooth="yes"/>
      <point x="815" y="-185"/>
      <point x="940" y="-120" type="qcurve" smooth="yes"/>
      <point x="1064" y="-55"/>
      <point x="1064" y="53" type="qcurve" smooth="yes"/>
      <point x="1064" y="111"/>
      <point x="1042" y="151" type="qcurve" smooth="yes"/>
      <point x="1019" y="192"/>
      <point x="988" y="192" type="qcurve" smooth="yes"/>
      <point x="969" y="192"/>
      <point x="936" y="176" type="qcurve"/>
      <point x="936" y="0" type="line"/>
      <point x="861" y="0" type="line"/>
      <point x="861" y="370" type="line"/>
      <point x="716" y="370" type="line"/>
      <point x="716" y="0" type="line"/>
      <point x="457" y="0" type="line"/>
      <point x="457" y="30" type="line"/>
      <point x="481" y="48"/>
      <point x="495" y="92" type="qcurve" smooth="yes"/>
      <point x="508" y="136"/>
      <point x="508" y="197" type="qcurve" smooth="yes"/>
      <point x="508" y="269"/>
      <point x="469" y="319" type="qcurve" smooth="yes"/>
      <point x="431" y="370"/>
      <point x="376" y="370" type="qcurve" smooth="yes"/>
      <point x="301" y="370"/>
      <point x="248" y="316" type="qcurve" smooth="yes"/>
      <point x="195" y="261"/>
      <point x="195" y="184" type="qcurve" smooth="yes"/>
      <point x="195" y="133"/>
      <point x="212" y="95" type="qcurve" smooth="yes"/>
      <point x="228" y="57"/>
      <point x="257" y="42" type="qcurve"/>
      <point x="246" y="54"/>
      <point x="240" y="75" type="qcurve" smooth="yes"/>
      <point x="234" y="95"/>
      <point x="234" y="120" type="qcurve" smooth="yes"/>
      <point x="234" y="166"/>
      <point x="260" y="199" type="qcurve" smooth="yes"/>
      <point x="286" y="232"/>
      <point x="322" y="232" type="qcurve" smooth="yes"/>
      <point x="365" y="232"/>
      <point x="395" y="198" type="qcurve" smooth="yes"/>
      <point x="425" y="164"/>
      <point x="425" y="116" type="qcurve" smooth="yes"/>
      <point x="425" y="68"/>
      <point x="392" y="34" type="qcurve" smooth="yes"/>
      <point x="359" y="0"/>
      <point x="313" y="0" type="qcurve" smooth="yes"/>
      <point x="252" y="0"/>
      <point x="208" y="53" type="qcurve" smooth="yes"/>
      <point x="165" y="107"/>
      <point x="165" y="182" type="qcurve"/>
    </contour>
    <contour>
      <point x="350" y="114" type="line"/>
      <point x="350" y="144"/>
      <point x="339" y="165" type="qcurve" smooth="yes"/>
      <point x="328" y="186"/>
      <point x="312" y="186" type="qcurve" smooth="yes"/>
      <point x="292" y="186"/>
      <point x="278" y="166" type="qcurve" smooth="yes"/>
      <point x="264" y="147"/>
      <point x="264" y="119" type="qcurve" smooth="yes"/>
      <point x="264" y="87"/>
      <point x="277" y="65" type="qcurve" smooth="yes"/>
      <point x="291" y="42"/>
      <point x="310" y="42" type="qcurve" smooth="yes"/>
      <point x="327" y="42"/>
      <point x="338" y="63" type="qcurve" smooth="yes"/>
      <point x="350" y="84"/>
      <point x="350" y="114" type="qcurve"/>
    </contour>
  </outline>
</glyph>
<glyph name="uni0BF6" format="1">
  <advance width="794"/>
  <unicode hex="0BF6"/>
  <outline>
    <contour>
      <point x="401" y="-98" type="line"/>
      <point x="139" y="-98" type="line" smooth="yes"/>
      <point x="123" y="-98"/>
      <point x="111" y="-104" type="qcurve" smooth="yes"/>
      <point x="100" y="-110"/>
      <point x="100" y="-118" type="qcurve" smooth="yes"/>
      <point x="90" y="-141"/>
      <point x="138" y="-161" type="qcurve" smooth="yes"/>
      <point x="186" y="-182"/>
      <point x="248" y="-182" type="qcurve" smooth="yes"/>
      <point x="306" y="-182"/>
      <point x="348" y="-159" type="qcurve" smooth="yes"/>
      <point x="391" y="-135"/>
      <point x="401" y="-98" type="qcurve"/>
    </contour>
    <contour>
      <point x="70" y="0" type="line"/>
      <point x="70" y="400" type="line"/>
      <point x="145" y="400" type="line"/>
      <point x="145" y="32" type="line"/>
      <point x="402" y="32" type="line"/>
      <point x="402" y="400" type="line"/>
      <point x="477" y="400" type="line"/>
      <point x="477" y="-68" type="line"/>
      <point x="649" y="-68" type="line"/>
      <point x="649" y="400" type="line"/>
      <point x="724" y="400" type="line"/>
      <point x="724" y="-98" type="line"/>
      <point x="473" y="-98" type="line"/>
      <point x="473" y="-145"/>
      <point x="407" y="-179" type="qcurve" smooth="yes"/>
      <point x="341" y="-212"/>
      <point x="248" y="-212" type="qcurve" smooth="yes"/>
      <point x="174" y="-212"/>
      <point x="122" y="-185" type="qcurve" smooth="yes"/>
      <point x="70" y="-158"/>
      <point x="70" y="-120" type="qcurve" smooth="yes"/>
      <point x="70" y="-98"/>
      <point x="91" y="-83" type="qcurve" smooth="yes"/>
      <point x="112" y="-68"/>
      <point x="141" y="-68" type="qcurve" smooth="yes"/>
      <point x="402" y="-68" type="line"/>
      <point x="402" y="0" type="line"/>
      <point x="70" y="0" type="line"/>
    </contour>
  </outline>
</glyph>
<glyph name="uni0BF7" format="1">
  <advance width="1082"/>
  <unicode hex="0BF7"/>
  <outline>
    <contour>
      <point x="671" y="370" type="line"/>
      <point x="560" y="370" type="line"/>
      <point x="560" y="213" type="line"/>
      <point x="704" y="213" type="line" smooth="yes"/>
      <point x="721" y="213"/>
      <point x="734" y="197" type="qcurve" smooth="yes"/>
      <point x="746" y="181"/>
      <point x="746" y="158" type="qcurve"/>
      <point x="758" y="183"/>
      <point x="786" y="198" type="qcurve" smooth="yes"/>
      <point x="814" y="213"/>
      <point x="849" y="213" type="qcurve" smooth="yes"/>
      <point x="896" y="213"/>
      <point x="929" y="185" type="qcurve" smooth="yes"/>
      <point x="962" y="158"/>
      <point x="962" y="119" type="qcurve" smooth="yes"/>
      <point x="962" y="89"/>
      <point x="950" y="65" type="qcurve" smooth="yes"/>
      <point x="938" y="41"/>
      <point x="918" y="29" type="qcurve"/>
      <point x="1077" y="29" type="line"/>
      <point x="1077" y="0" type="line"/>
      <point x="823" y="0" type="line"/>
      <point x="823" y="29" type="line"/>
      <point x="851" y="36"/>
      <point x="869" y="60" type="qcurve" smooth="yes"/>
      <point x="887" y="83"/>
      <point x="887" y="113" type="qcurve" smooth="yes"/>
      <point x="887" y="142"/>
      <point x="869" y="162" type="qcurve" smooth="yes"/>
      <point x="852" y="183"/>
      <point x="827" y="183" type="qcurve" smooth="yes"/>
      <point x="802" y="183"/>
      <point x="780" y="164" type="qcurve" smooth="yes"/>
      <point x="757" y="145"/>
      <point x="746" y="113" type="qcurve"/>
      <point x="746" y="0" type="line"/>
      <point x="671" y="0" type="line"/>
      <point x="671" y="183" type="line"/>
      <point x="560" y="183" type="line"/>
      <point x="560" y="0" type="line"/>
      <point x="485" y="0" type="line"/>
      <point x="485" y="370" type="line"/>
      <point x="287" y="370" type="line" smooth="yes"/>
      <point x="196" y="370"/>
      <point x="131" y="316" type="qcurve" smooth="yes"/>
      <point x="67" y="262"/>
      <point x="67" y="185" type="qcurve" smooth="yes"/>
      <point x="67" y="139"/>
      <point x="84" y="103" type="qcurve" smooth="yes"/>
      <point x="101" y="67"/>
      <point x="131" y="50" type="qcurve"/>
      <point x="120" y="63"/>
      <point x="114" y="84" type="qcurve" smooth="yes"/>
      <point x="108" y="104"/>
      <point x="108" y="129" type="qcurve" smooth="yes"/>
      <point x="108" y="172"/>
      <point x="141" y="203" type="qcurve" smooth="yes"/>
      <point x="174" y="233"/>
      <point x="221" y="233" type="qcurve" smooth="yes"/>
      <point x="272" y="233"/>
      <point x="308" y="198" type="qcurve" smooth="yes"/>
      <point x="344" y="164"/>
      <point x="344" y="115" type="qcurve" smooth="yes"/>
      <point x="344" y="65"/>
      <point x="303" y="30" type="qcurve" smooth="yes"/>
      <point x="261" y="-5"/>
      <point x="203" y="-5" type="qcurve" smooth="yes"/>
      <point x="134" y="-5"/>
      <point x="86" y="50" type="qcurve" smooth="yes"/>
      <point x="37" y="106"/>
      <point x="37" y="184" type="qcurve" smooth="yes"/>
      <point x="37" y="273"/>
      <point x="110" y="337" type="qcurve" smooth="yes"/>
      <point x="183" y="400"/>
      <point x="286" y="400" type="qcurve" smooth="yes"/>
      <point x="671" y="400" type="line"/>
      <point x="671" y="370" type="line"/>
    </contour>
    <contour>
      <point x="269" y="119" type="line"/>
      <point x="269" y="154"/>
      <point x="251" y="178" type="qcurve" smooth="yes"/>
      <point x="234" y="203"/>
      <point x="209" y="203" type="qcurve" smooth="yes"/>
      <point x="180" y="203"/>
      <point x="159" y="178" type="qcurve" smooth="yes"/>
      <point x="138" y="153"/>
      <point x="138" y="117" type="qcurve" smooth="yes"/>
      <point x="138" y="85"/>
      <point x="158" y="63" type="qcurve" smooth="yes"/>
      <point x="178" y="40"/>
      <point x="206" y="40" type="qcurve" smooth="yes"/>
      <point x="232" y="40"/>
      <point x="251" y="63" type="qcurve" smooth="yes"/>
      <point x="269" y="86"/>
      <point x="269" y="119" type="qcurve"/>
    </contour>
  </outline>
</glyph>
<glyph name="uni0BF8" format="1">
  <advance width="1193"/>
  <unicode hex="0BF8"/>
  <outline>
    <contour>
      <point x="48" y="274" type="line"/>
      <point x="48" y="410"/>
      <point x="116" y="507" type="qcurve" smooth="yes"/>
      <point x="184" y="603"/>
      <point x="280" y="603" type="qcurve" smooth="yes"/>
      <point x="374" y="603"/>
      <point x="445" y="519" type="qcurve" smooth="yes"/>
      <point x="516" y="435"/>
      <point x="527" y="311" type="qcurve"/>
      <point x="545" y="319"/>
      <point x="583" y="319" type="qcurve" smooth="yes"/>
      <point x="653" y="319"/>
      <point x="703" y="271" type="qcurve" smooth="yes"/>
      <point x="752" y="222"/>
      <point x="752" y="154" type="qcurve" smooth="yes"/>
      <point x="752" y="118"/>
      <point x="738" y="87" type="qcurve" smooth="yes"/>
      <point x="724" y="56"/>
      <point x="698" y="37" type="qcurve"/>
      <point x="927" y="37" type="line"/>
      <point x="880" y="63"/>
      <point x="852" y="114" type="qcurve" smooth="yes"/>
      <point x="825" y="166"/>
      <point x="825" y="228" type="qcurve" smooth="yes"/>
      <point x="825" y="301"/>
      <point x="864" y="352" type="qcurve" smooth="yes"/>
      <point x="902" y="404"/>
      <point x="957" y="404" type="qcurve" smooth="yes"/>
      <point x="996" y="404"/>
      <point x="1023" y="368" type="qcurve" smooth="yes"/>
      <point x="1051" y="331"/>
      <point x="1051" y="280" type="qcurve" smooth="yes"/>
      <point x="1051" y="37" type="line"/>
      <point x="1186" y="37" type="line"/>
      <point x="1186" y="0" type="line"/>
      <point x="1051" y="0" type="line"/>
      <point x="1051" y="-209" type="line"/>
      <point x="976" y="-209" type="line"/>
      <point x="976" y="0" type="line"/>
      <point x="614" y="0" type="line"/>
      <point x="614" y="38" type="line"/>
      <point x="643" y="51"/>
      <point x="660" y="83" type="qcurve" smooth="yes"/>
      <point x="677" y="115"/>
      <point x="677" y="156" type="qcurve" smooth="yes"/>
      <point x="677" y="211"/>
      <point x="647" y="250" type="qcurve" smooth="yes"/>
      <point x="617" y="289"/>
      <point x="575" y="289" type="qcurve" smooth="yes"/>
      <point x="556" y="289"/>
      <point x="533" y="281" type="qcurve"/>
      <point x="546" y="232"/>
      <point x="546" y="128" type="qcurve" smooth="yes"/>
      <point x="546" y="75"/>
      <point x="518" y="37" type="qcurve" smooth="yes"/>
      <point x="490" y="0"/>
      <point x="451" y="0" type="qcurve" smooth="yes"/>
      <point x="417" y="0"/>
      <point x="394" y="34" type="qcurve" smooth="yes"/>
      <point x="370" y="69"/>
      <point x="370" y="117" type="qcurve" smooth="yes"/>
      <point x="370" y="171"/>
      <point x="394" y="217" type="qcurve" smooth="yes"/>
      <point x="418" y="263"/>
      <point x="460" y="290" type="qcurve"/>
      <point x="442" y="407"/>
      <point x="387" y="483" type="qcurve" smooth="yes"/>
      <point x="333" y="560"/>
      <point x="269" y="560" type="qcurve" smooth="yes"/>
      <point x="190" y="560"/>
      <point x="134" y="477" type="qcurve" smooth="yes"/>
      <point x="78" y="394"/>
      <point x="78" y="276" type="qcurve" smooth="yes"/>
      <point x="78" y="203"/>
      <point x="94" y="148" type="qcurve" smooth="yes"/>
      <point x="110" y="92"/>
      <point x="139" y="63" type="qcurve"/>
      <point x="125" y="93"/>
      <point x="125" y="134" type="qcurve" smooth="yes"/>
      <point x="125" y="181"/>
      <point x="152" y="215" type="qcurve" smooth="yes"/>
      <point x="179" y="248"/>
      <point x="218" y="248" type="qcurve" smooth="yes"/>
      <point x="260" y="248"/>
      <point x="290" y="213" type="qcurve" smooth="yes"/>
      <point x="320" y="178"/>
      <point x="320" y="129" type="qcurve" smooth="yes"/>
      <point x="320" y="76"/>
      <point x="287" y="38" type="qcurve" smooth="yes"/>
      <point x="253" y="0"/>
      <point x="206" y="0" type="qcurve" smooth="yes"/>
      <point x="141" y="0"/>
      <point x="94" y="80" type="qcurve" smooth="yes"/>
      <point x="48" y="161"/>
      <point x="48" y="274" type="qcurve"/>
    </contour>
    <contour>
      <point x="245" y="118" type="line"/>
      <point x="245" y="154"/>
      <point x="233" y="180" type="qcurve" smooth="yes"/>
      <point x="221" y="205"/>
      <point x="204" y="205" type="qcurve" smooth="yes"/>
      <point x="184" y="205"/>
      <point x="169" y="181" type="qcurve" smooth="yes"/>
      <point x="155" y="158"/>
      <point x="155" y="124" type="qcurve" smooth="yes"/>
      <point x="155" y="88"/>
      <point x="168" y="62" type="qcurve" smooth="yes"/>
      <point x="180" y="37"/>
      <point x="198" y="37" type="qcurve" smooth="yes"/>
      <point x="217" y="37"/>
      <point x="231" y="61" type="qcurve" smooth="yes"/>
      <point x="245" y="84"/>
      <point x="245" y="118" type="qcurve"/>
    </contour>
    <contour>
      <point x="471" y="125" type="line"/>
      <point x="471" y="152" type="line" smooth="yes"/>
      <point x="471" y="234"/>
      <point x="465" y="251" type="qcurve"/>
      <point x="435" y="231"/>
      <point x="417" y="195" type="qcurve" smooth="yes"/>
      <point x="400" y="159"/>
      <point x="400" y="116" type="qcurve" smooth="yes"/>
      <point x="400" y="83"/>
      <point x="411" y="60" type="qcurve" smooth="yes"/>
      <point x="423" y="37"/>
      <point x="439" y="37" type="qcurve" smooth="yes"/>
      <point x="452" y="37"/>
      <point x="462" y="63" type="qcurve" smooth="yes"/>
      <point x="471" y="89"/>
      <point x="471" y="125" type="qcurve"/>
    </contour>
    <contour>
      <point x="976" y="41" type="line"/>
      <point x="976" y="286" type="line" smooth="yes"/>
      <point x="976" y="317"/>
      <point x="965" y="340" type="qcurve" smooth="yes"/>
      <point x="953" y="362"/>
      <point x="937" y="362" type="qcurve" smooth="yes"/>
      <point x="903" y="362"/>
      <point x="879" y="321" type="qcurve" smooth="yes"/>
      <point x="855" y="279"/>
      <point x="855" y="221" type="qcurve" smooth="yes"/>
      <point x="855" y="160"/>
      <point x="888" y="110" type="qcurve" smooth="yes"/>
      <point x="922" y="61"/>
      <point x="976" y="41" type="qcurve"/>
    </contour>
  </outline>
</glyph>
<glyph name="uni0BF9" format="1">
  <advance width="997"/>
  <unicode hex="0BF9"/>
  <outline>
    <contour>
      <point x="55" y="200" type="line"/>
      <point x="55" y="366"/>
      <point x="164" y="484" type="qcurve" smooth="yes"/>
      <point x="272" y="601"/>
      <point x="426" y="601" type="qcurve" smooth="yes"/>
      <point x="523" y="601"/>
      <point x="595" y="561" type="qcurve" smooth="yes"/>
      <point x="668" y="521"/>
      <point x="689" y="457" type="qcurve"/>
      <point x="700" y="490"/>
      <point x="728" y="511" type="qcurve" smooth="yes"/>
      <point x="756" y="531"/>
      <point x="789" y="531" type="qcurve" smooth="yes"/>
      <point x="843" y="531"/>
      <point x="882" y="497" type="qcurve" smooth="yes"/>
      <point x="920" y="464"/>
      <point x="920" y="416" type="qcurve"/>
      <point x="995" y="416" type="line"/>
      <point x="995" y="390" type="line"/>
      <point x="856" y="390" type="line"/>
      <point x="856" y="436"/>
      <point x="835" y="468" type="qcurve" smooth="yes"/>
      <point x="813" y="501"/>
      <point x="783" y="501" type="qcurve" smooth="yes"/>
      <point x="757" y="501"/>
      <point x="736" y="475" type="qcurve" smooth="yes"/>
      <point x="715" y="449"/>
      <point x="709" y="410" type="qcurve"/>
      <point x="676" y="410" type="line"/>
      <point x="665" y="480"/>
      <point x="594" y="525" type="qcurve" smooth="yes"/>
      <point x="523" y="571"/>
      <point x="426" y="571" type="qcurve" smooth="yes"/>
      <point x="303" y="571"/>
      <point x="217" y="462" type="qcurve" smooth="yes"/>
      <point x="130" y="354"/>
      <point x="130" y="200" type="qcurve" smooth="yes"/>
      <point x="130" y="36"/>
      <point x="210" y="-63" type="qcurve" smooth="yes"/>
      <point x="290" y="-162"/>
      <point x="423" y="-162" type="qcurve" smooth="yes"/>
      <point x="520" y="-162"/>
      <point x="588" y="-97" type="qcurve" smooth="yes"/>
      <point x="657" y="-32"/>
      <point x="657" y="60" type="qcurve" smooth="yes"/>
      <point x="659" y="117"/>
      <point x="632" y="157" type="qcurve" smooth="yes"/>
      <point x="606" y="198"/>
      <point x="567" y="198" type="qcurve" smooth="yes"/>
      <point x="556" y="198"/>
      <point x="542" y="193" type="qcurve" smooth="yes"/>
      <point x="528" y="188"/>
      <point x="514" y="178" type="qcurve"/>
      <point x="514" y="0" type="line"/>
      <point x="439" y="0" type="line"/>
      <point x="439" y="370" type="line"/>
      <point x="292" y="370" type="line"/>
      <point x="292" y="0" type="line"/>
      <point x="262" y="0" type="line"/>
      <point x="262" y="400" type="line"/>
      <point x="639" y="400" type="line"/>
      <point x="639" y="370" type="line"/>
      <point x="514" y="370" type="line"/>
      <point x="514" y="214" type="line"/>
      <point x="545" y="228"/>
      <point x="569" y="228" type="qcurve" smooth="yes"/>
      <point x="637" y="228"/>
      <point x="684" y="178" type="qcurve" smooth="yes"/>
      <point x="732" y="128"/>
      <point x="732" y="58" type="qcurve" smooth="yes"/>
      <point x="732" y="-46"/>
      <point x="641" y="-119" type="qcurve" smooth="yes"/>
      <point x="550" y="-192"/>
      <point x="422" y="-192" type="qcurve" smooth="yes"/>
      <point x="255" y="-192"/>
      <point x="155" y="-85" type="qcurve" smooth="yes"/>
      <point x="55" y="22"/>
      <point x="55" y="200" type="qcurve"/>
    </contour>
  </outline>
</glyph>
<glyph name="si_I" format="1">
  <advance width="579"/>
  <unicode hex="0D89"/>
  <outline>
    <contour>
      <point x="32" y="216" type="curve" smooth="yes"/>
      <point x="32" y="349"/>
      <point x="144" y="422"/>
      <point x="277" y="422" type="curve" smooth="yes"/>
      <point x="425" y="422"/>
      <point x="531" y="344"/>
      <point x="531" y="193" type="curve" smooth="yes"/>
      <point x="531" y="89"/>
      <point x="462" y="10"/>
      <point x="375" y="-6" type="curve"/>
      <point x="407" y="-12"/>
      <point x="429" y="-35"/>
      <point x="429" y="-73" type="curve" smooth="yes"/>
      <point x="429" y="-132"/>
      <point x="355" y="-156"/>
      <point x="291" y="-156" type="curve" smooth="yes"/>
      <point x="230" y="-156"/>
      <point x="169" y="-136"/>
      <point x="169" y="-74" type="curve" smooth="yes"/>
      <point x="169" y="-50"/>
      <point x="185" y="-37"/>
      <point x="202" y="-37" type="curve" smooth="yes"/>
      <point x="217" y="-37"/>
      <point x="229" y="-46"/>
      <point x="229" y="-63" type="curve" smooth="yes"/>
      <point x="229" y="-69"/>
      <point x="226" y="-80"/>
      <point x="226" y="-92" type="curve" smooth="yes"/>
      <point x="226" y="-112"/>
      <point x="236" y="-134"/>
      <point x="293" y="-134" type="curve" smooth="yes"/>
      <point x="331" y="-134"/>
      <point x="366" y="-118"/>
      <point x="366" y="-81" type="curve" smooth="yes"/>
      <point x="366" y="-39"/>
      <point x="326" y="-15"/>
      <point x="261" y="-15" type="curve" smooth="yes"/>
      <point x="252" y="-15"/>
      <point x="253" y="-15"/>
      <point x="243" y="-16" type="curve"/>
      <point x="243" y="12" type="line"/>
      <point x="255" y="13"/>
      <point x="256" y="13"/>
      <point x="267" y="13" type="curve" smooth="yes"/>
      <point x="284" y="13"/>
      <point x="298" y="11"/>
      <point x="316" y="11" type="curve" smooth="yes"/>
      <point x="413" y="11"/>
      <point x="494" y="71"/>
      <point x="494" y="175" type="curve" smooth="yes"/>
      <point x="494" y="285"/>
      <point x="395" y="349"/>
      <point x="278" y="349" type="curve" smooth="yes"/>
      <point x="171" y="349"/>
      <point x="71" y="302"/>
      <point x="71" y="199" type="curve" smooth="yes"/>
      <point x="71" y="130"/>
      <point x="134" y="79"/>
      <point x="218" y="79" type="curve" smooth="yes"/>
      <point x="270" y="79"/>
      <point x="309" y="94"/>
      <point x="325" y="117" type="curve"/>
      <point x="310" y="105"/>
      <point x="292" y="103"/>
      <point x="278" y="103" type="curve" smooth="yes"/>
      <point x="238" y="103"/>
      <point x="203" y="136"/>
      <point x="203" y="175" type="curve" smooth="yes"/>
      <point x="203" y="220"/>
      <point x="236" y="254"/>
      <point x="279" y="254" type="curve" smooth="yes"/>
      <point x="335" y="254"/>
      <point x="367" y="217"/>
      <point x="367" y="166" type="curve" smooth="yes"/>
      <point x="367" y="88"/>
      <point x="303" y="53"/>
      <point x="215" y="53" type="curve" smooth="yes"/>
      <point x="111" y="53"/>
      <point x="32" y="114"/>
    </contour>
    <contour>
      <point x="231" y="178" type="curve" smooth="yes"/>
      <point x="231" y="151"/>
      <point x="255" y="129"/>
      <point x="281" y="129" type="curve" smooth="yes"/>
      <point x="308" y="129"/>
      <point x="331" y="152"/>
      <point x="331" y="178" type="curve" smooth="yes"/>
      <point x="331" y="205"/>
      <point x="307" y="227"/>
      <point x="281" y="227" type="curve" smooth="yes"/>
      <point x="254" y="227"/>
      <point x="231" y="204"/>
    </contour>
  </outline>
</glyph>
<glyph name="si_Ee" format="1">
  <advance width="581"/>
  <unicode hex="0D92"/>
  <outline>
    <contour>
      <point x="430" y="434" type="line"/>
      <point x="430" y="678" type="line"/>
      <point x="484" y="633"/>
      <point x="582" y="636"/>
      <point x="582" y="542" type="curve" smooth="yes"/>
      <point x="582" y="501"/>
      <point x="550" y="473"/>
      <point x="502" y="473" type="curve" smooth="yes"/>
      <point x="487" y="473"/>
      <point x="473" y="475"/>
      <point x="458" y="480" type="curve"/>
      <point x="458" y="417" type="line"/>
    </contour>
    <contour>
      <point x="458" y="503" type="line"/>
      <point x="466" y="499"/>
      <point x="476" y="497"/>
      <point x="489" y="497" type="curve" smooth="yes"/>
      <point x="532" y="497"/>
      <point x="542" y="521"/>
      <point x="542" y="544" type="curve" smooth="yes"/>
      <point x="542" y="584"/>
      <point x="514" y="604"/>
      <point x="458" y="633" type="curve"/>
    </contour>
    <contour>
      <point x="44" y="161" type="curve" smooth="yes"/>
      <point x="44" y="191"/>
      <point x="54" y="222"/>
      <point x="76" y="242" type="curve" smooth="yes"/>
      <point x="92" y="256"/>
      <point x="111" y="266"/>
      <point x="136" y="271" type="curve"/>
      <point x="169" y="283"/>
      <point x="203" y="295"/>
      <point x="239" y="295" type="curve" smooth="yes"/>
      <point x="251" y="295" type="line"/>
      <point x="251" y="297"/>
      <point x="251" y="299"/>
      <point x="251" y="301" type="curve" smooth="yes"/>
      <point x="251" y="339"/>
      <point x="225" y="380"/>
      <point x="189" y="380" type="curve" smooth="yes"/>
      <point x="151" y="380"/>
      <point x="141" y="357"/>
      <point x="135" y="341" type="curve" smooth="yes"/>
      <point x="128" y="322"/>
      <point x="119" y="310"/>
      <point x="98" y="310" type="curve" smooth="yes"/>
      <point x="82" y="310"/>
      <point x="62" y="320"/>
      <point x="62" y="345" type="curve" smooth="yes"/>
      <point x="62" y="391"/>
      <point x="111" y="416"/>
      <point x="165" y="416" type="curve" smooth="yes"/>
      <point x="251" y="416"/>
      <point x="282" y="344"/>
      <point x="282" y="283" type="curve" smooth="yes"/>
      <point x="282" y="280"/>
      <point x="282" y="274"/>
      <point x="282" y="271" type="curve"/>
      <point x="226" y="271" type="line" smooth="yes"/>
      <point x="183" y="271"/>
      <point x="143" y="259"/>
      <point x="119" y="243" type="curve" smooth="yes"/>
      <point x="93" y="226"/>
      <point x="80" y="201"/>
      <point x="80" y="176" type="curve" smooth="yes"/>
      <point x="80" y="92"/>
      <point x="184" y="69"/>
      <point x="272" y="69" type="curve" smooth="yes"/>
      <point x="421" y="69"/>
      <point x="501" y="149"/>
      <point x="501" y="255" type="curve" smooth="yes"/>
      <point x="501" y="311"/>
      <point x="484" y="350"/>
      <point x="460" y="385" type="curve"/>
      <point x="445" y="353"/>
      <point x="416" y="333"/>
      <point x="374" y="333" type="curve" smooth="yes"/>
      <point x="312" y="333"/>
      <point x="276" y="387"/>
      <point x="276" y="451" type="curve" smooth="yes"/>
      <point x="276" y="500"/>
      <point x="291" y="535"/>
      <point x="317" y="565" type="curve"/>
      <point x="377" y="533"/>
      <point x="443" y="461"/>
      <point x="481" y="402" type="curve" smooth="yes"/>
      <point x="516" y="347"/>
      <point x="532" y="301"/>
      <point x="532" y="233" type="curve" smooth="yes"/>
      <point x="532" y="116"/>
      <point x="449" y="0"/>
      <point x="270" y="0" type="curve" smooth="yes"/>
      <point x="152" y="0"/>
      <point x="44" y="45"/>
    </contour>
    <contour>
      <point x="16" y="264" type="curve"/>
      <point x="16" y="295" type="line"/>
      <point x="249" y="295" type="line"/>
      <point x="278" y="271" type="line"/>
      <point x="126" y="271" type="line" smooth="yes"/>
      <point x="57" y="270"/>
      <point x="32" y="267"/>
    </contour>
    <contour>
      <point x="306" y="455" type="curve" smooth="yes"/>
      <point x="306" y="407"/>
      <point x="325" y="368"/>
      <point x="381" y="368" type="curve" smooth="yes"/>
      <point x="404" y="368"/>
      <point x="431" y="379"/>
      <point x="441" y="412" type="curve"/>
      <point x="412" y="457"/>
      <point x="363" y="502"/>
      <point x="326" y="529" type="curve"/>
      <point x="314" y="511"/>
      <point x="306" y="489"/>
    </contour>
  </outline>
</glyph>
